<svg width="183" height="241" viewBox="0 0 183 241" fill="none" xmlns="http://www.w3.org/2000/svg">
<g filter="url(#filter0_d_41_34)">
<path d="M20 28.3731C20 22.3563 24.8775 17.4788 30.8943 17.4788H120.091C126.108 17.4788 130.986 22.3563 130.986 28.3731V144.252C130.986 150.269 126.108 155.147 120.091 155.147H30.8943C24.8775 155.147 20 150.269 20 144.252V28.3731Z" fill="white"/>
</g>
<ellipse cx="75.5124" cy="63.057" rx="31.1891" ry="31.2179" fill="white"/>
<path d="M98.6435 83.9979C95.0498 87.9748 90.4932 90.9581 85.413 92.6603C80.3327 94.3625 74.9 94.7262 69.6385 93.7163C64.377 92.7064 59.4641 90.357 55.3734 86.8945C51.2826 83.432 48.1518 78.9732 46.2828 73.9478C44.4139 68.9224 43.8697 63.4998 44.7027 58.2027C45.5358 52.9056 47.718 47.9126 51.039 43.7049C54.3601 39.4973 58.708 36.2167 63.6637 34.1796C68.6194 32.1425 74.0158 31.4174 79.3328 32.0742L78.3777 39.8199C74.3899 39.3273 70.3426 39.8711 66.6258 41.399C62.9091 42.9268 59.6482 45.3872 57.1574 48.543C54.6666 51.6987 53.0299 55.4435 52.4051 59.4163C51.7804 63.3891 52.1885 67.456 53.5902 71.2251C54.992 74.9941 57.34 78.3383 60.4081 80.9351C63.4762 83.532 67.1609 85.2941 71.107 86.0515C75.0531 86.8089 79.1276 86.5361 82.9378 85.2595C86.748 83.9828 90.1654 81.7453 92.8607 78.7627L98.6435 83.9979Z" fill="#F3F3F3"/>
<path d="M75.5124 35.7413C75.5124 33.5862 77.2663 31.8139 79.4046 32.0831C84.4092 32.7132 89.2071 34.5518 93.3739 37.4653C98.6114 41.1276 102.599 46.3115 104.797 52.316C106.995 58.3204 107.298 64.8558 105.665 71.0382C104.366 75.9565 101.891 80.4626 98.4776 84.18C97.0198 85.768 94.5351 85.5485 93.143 83.9026C91.7527 82.2588 91.9876 79.817 93.3767 78.1721C95.6066 75.5317 97.2355 72.4166 98.1268 69.0429C99.3519 64.4061 99.1247 59.5046 97.476 55.0012C95.8273 50.4979 92.8367 46.6099 88.9085 43.8632C86.0523 41.8661 82.8006 40.5424 79.3966 39.9686C77.2714 39.6104 75.5124 37.8965 75.5124 35.7413Z" fill="#D3ED68"/>
<path d="M41.8882 130.913V130.141H46.4872V130.913H44.6331V136.083H43.7394V130.913H41.8882ZM48.6648 136.173C48.2469 136.173 47.8823 136.077 47.5709 135.886C47.2594 135.694 47.0177 135.426 46.8455 135.082C46.6733 134.738 46.5873 134.335 46.5873 133.875C46.5873 133.413 46.6733 133.008 46.8455 132.662C47.0177 132.316 47.2594 132.047 47.5709 131.856C47.8823 131.664 48.2469 131.568 48.6648 131.568C49.0826 131.568 49.4472 131.664 49.7586 131.856C50.0701 132.047 50.3119 132.316 50.484 132.662C50.6562 133.008 50.7423 133.413 50.7423 133.875C50.7423 134.335 50.6562 134.738 50.484 135.082C50.3119 135.426 50.0701 135.694 49.7586 135.886C49.4472 136.077 49.0826 136.173 48.6648 136.173ZM48.6677 135.445C48.9385 135.445 49.1629 135.373 49.3408 135.23C49.5188 135.087 49.6503 134.896 49.7354 134.658C49.8225 134.421 49.866 134.158 49.866 133.872C49.866 133.588 49.8225 133.327 49.7354 133.089C49.6503 132.849 49.5188 132.656 49.3408 132.511C49.1629 132.366 48.9385 132.294 48.6677 132.294C48.3949 132.294 48.1686 132.366 47.9887 132.511C47.8107 132.656 47.6782 132.849 47.5912 133.089C47.5061 133.327 47.4635 133.588 47.4635 133.872C47.4635 134.158 47.5061 134.421 47.5912 134.658C47.6782 134.896 47.8107 135.087 47.9887 135.23C48.1686 135.373 48.3949 135.445 48.6677 135.445ZM53.7911 131.626V132.323H51.3567V131.626H53.7911ZM52.0095 130.559H52.8771V134.775C52.8771 134.943 52.9022 135.07 52.9525 135.155C53.0028 135.238 53.0676 135.295 53.1469 135.326C53.2282 135.355 53.3162 135.369 53.411 135.369C53.4806 135.369 53.5415 135.365 53.5937 135.355C53.646 135.345 53.6866 135.337 53.7156 135.332L53.8723 136.048C53.822 136.068 53.7504 136.087 53.6576 136.106C53.5647 136.128 53.4487 136.139 53.3094 136.141C53.0811 136.145 52.8684 136.104 52.6711 136.019C52.4738 135.934 52.3142 135.803 52.1923 135.625C52.0704 135.447 52.0095 135.223 52.0095 134.954V130.559ZM56.0477 136.182C55.7653 136.182 55.51 136.13 55.2817 136.025C55.0535 135.919 54.8726 135.765 54.7391 135.564C54.6076 135.363 54.5418 135.116 54.5418 134.824C54.5418 134.572 54.5902 134.365 54.6869 134.203C54.7836 134.04 54.9142 133.912 55.0786 133.817C55.243 133.722 55.4268 133.651 55.6299 133.602C55.833 133.554 56.04 133.517 56.2508 133.492C56.5178 133.461 56.7344 133.436 56.9008 133.417C57.0671 133.395 57.188 133.361 57.2635 133.315C57.3389 133.269 57.3766 133.193 57.3766 133.089V133.068C57.3766 132.815 57.3051 132.619 57.1619 132.479C57.0207 132.34 56.8099 132.271 56.5294 132.271C56.2373 132.271 56.0071 132.335 55.8388 132.465C55.6725 132.593 55.5574 132.735 55.4935 132.891L54.6782 132.706C54.7749 132.435 54.9161 132.216 55.1018 132.05C55.2895 131.882 55.5051 131.76 55.7489 131.684C55.9926 131.607 56.2489 131.568 56.5178 131.568C56.6957 131.568 56.8843 131.59 57.0836 131.632C57.2847 131.673 57.4724 131.748 57.6465 131.858C57.8225 131.969 57.9666 132.126 58.0788 132.331C58.191 132.535 58.2471 132.799 58.2471 133.124V136.083H57.3998V135.474H57.365C57.3089 135.586 57.2248 135.696 57.1126 135.805C57.0004 135.913 56.8563 136.003 56.6803 136.074C56.5042 136.146 56.2934 136.182 56.0477 136.182ZM56.2363 135.485C56.4762 135.485 56.6812 135.438 56.8515 135.343C57.0236 135.248 57.1542 135.125 57.2432 134.972C57.3341 134.817 57.3795 134.652 57.3795 134.476V133.901C57.3486 133.932 57.2886 133.961 57.1996 133.988C57.1126 134.013 57.013 134.036 56.9008 134.055C56.7886 134.072 56.6793 134.089 56.5729 134.104C56.4665 134.118 56.3775 134.129 56.306 134.139C56.1377 134.16 55.9839 134.196 55.8446 134.246C55.7073 134.297 55.597 134.369 55.5138 134.464C55.4326 134.557 55.392 134.681 55.392 134.835C55.392 135.05 55.4713 135.213 55.6299 135.323C55.7885 135.431 55.9907 135.485 56.2363 135.485ZM60.2702 130.141V136.083H59.4026V130.141H60.2702ZM65.6801 131.626V132.323H63.2457V131.626H65.6801ZM63.8986 130.559H64.7661V134.775C64.7661 134.943 64.7913 135.07 64.8416 135.155C64.8919 135.238 64.9567 135.295 65.036 135.326C65.1172 135.355 65.2052 135.369 65.3 135.369C65.3696 135.369 65.4306 135.365 65.4828 135.355C65.535 135.345 65.5757 135.337 65.6047 135.332L65.7613 136.048C65.7111 136.068 65.6395 136.087 65.5466 136.106C65.4538 136.128 65.3377 136.139 65.1985 136.141C64.9702 136.145 64.7574 136.104 64.5601 136.019C64.3628 135.934 64.2032 135.803 64.0814 135.625C63.9595 135.447 63.8986 135.223 63.8986 134.954V130.559ZM66.6398 136.083V131.626H67.4783V132.334H67.5248C67.606 132.094 67.7491 131.906 67.9542 131.769C68.1612 131.629 68.3952 131.56 68.6564 131.56C68.7105 131.56 68.7744 131.562 68.8479 131.565C68.9233 131.569 68.9823 131.574 69.0249 131.58V132.41C68.99 132.4 68.9281 132.389 68.8392 132.378C68.7502 132.364 68.6612 132.358 68.5722 132.358C68.3672 132.358 68.1844 132.401 68.0238 132.488C67.8652 132.573 67.7395 132.692 67.6466 132.845C67.5538 132.996 67.5074 133.168 67.5074 133.361V136.083H66.6398ZM69.7756 136.083V131.626H70.6432V136.083H69.7756ZM70.2138 130.939C70.0629 130.939 69.9333 130.888 69.825 130.788C69.7186 130.685 69.6654 130.563 69.6654 130.422C69.6654 130.279 69.7186 130.157 69.825 130.057C69.9333 129.954 70.0629 129.903 70.2138 129.903C70.3646 129.903 70.4933 129.954 70.5997 130.057C70.708 130.157 70.7621 130.279 70.7621 130.422C70.7621 130.563 70.708 130.685 70.5997 130.788C70.4933 130.888 70.3646 130.939 70.2138 130.939ZM71.8103 137.754V131.626H72.6576V132.349H72.7301C72.7804 132.256 72.8529 132.149 72.9477 132.027C73.0425 131.905 73.1741 131.799 73.3423 131.708C73.5106 131.615 73.7331 131.568 74.0097 131.568C74.3695 131.568 74.6906 131.659 74.973 131.841C75.2554 132.023 75.4769 132.285 75.6375 132.627C75.7999 132.97 75.8812 133.382 75.8812 133.863C75.8812 134.345 75.8009 134.758 75.6404 135.102C75.4798 135.445 75.2593 135.709 74.9788 135.895C74.6983 136.078 74.3782 136.17 74.0184 136.17C73.7476 136.17 73.5261 136.125 73.3539 136.034C73.1837 135.943 73.0503 135.836 72.9535 135.715C72.8568 135.593 72.7823 135.484 72.7301 135.39H72.6779V137.754H71.8103ZM72.6605 133.855C72.6605 134.168 72.7059 134.443 72.7969 134.679C72.8878 134.915 73.0193 135.1 73.1915 135.233C73.3636 135.365 73.5745 135.43 73.824 135.43C74.0832 135.43 74.2999 135.362 74.4739 135.224C74.648 135.085 74.7796 134.896 74.8686 134.658C74.9595 134.421 75.0049 134.153 75.0049 133.855C75.0049 133.561 74.9604 133.297 74.8715 133.063C74.7844 132.829 74.6529 132.644 74.4768 132.508C74.3028 132.373 74.0851 132.305 73.824 132.305C73.5725 132.305 73.3598 132.37 73.1857 132.5C73.0135 132.629 72.8829 132.81 72.794 133.042C72.705 133.274 72.6605 133.545 72.6605 133.855ZM79.268 133.617C79.268 132.89 79.3638 132.22 79.5553 131.609C79.7468 130.998 80.0263 130.434 80.3938 129.917H81.1888C81.0457 130.109 80.9122 130.344 80.7884 130.622C80.6646 130.901 80.5563 131.207 80.4634 131.539C80.3706 131.87 80.2981 132.213 80.2458 132.569C80.1936 132.923 80.1675 133.273 80.1675 133.617C80.1675 134.077 80.2129 134.543 80.3039 135.015C80.3948 135.487 80.5176 135.925 80.6724 136.33C80.8271 136.734 80.9993 137.064 81.1888 137.319H80.3938C80.0263 136.803 79.7468 136.239 79.5553 135.628C79.3638 135.016 79.268 134.346 79.268 133.617ZM82.1035 136.083V131.626H82.9363V132.352H82.9914C83.0843 132.106 83.2361 131.915 83.4469 131.777C83.6578 131.638 83.9102 131.568 84.2043 131.568C84.5021 131.568 84.7517 131.638 84.9528 131.777C85.156 131.917 85.3059 132.108 85.4026 132.352H85.449C85.5554 132.114 85.7247 131.924 85.9568 131.783C86.1889 131.64 86.4655 131.568 86.7866 131.568C87.1909 131.568 87.5207 131.695 87.776 131.948C88.0333 132.202 88.1619 132.584 88.1619 133.095V136.083H87.2944V133.176C87.2944 132.874 87.2122 132.655 87.0478 132.52C86.8833 132.385 86.687 132.317 86.4587 132.317C86.1763 132.317 85.9568 132.404 85.8001 132.578C85.6434 132.75 85.5651 132.972 85.5651 133.243V136.083H84.7004V133.121C84.7004 132.879 84.625 132.684 84.4741 132.537C84.3232 132.39 84.1269 132.317 83.8851 132.317C83.7207 132.317 83.5688 132.36 83.4295 132.448C83.2922 132.533 83.181 132.652 83.0959 132.804C83.0127 132.957 82.9711 133.134 82.9711 133.335V136.083H82.1035ZM91.202 136.173C90.7842 136.173 90.4196 136.077 90.1082 135.886C89.7967 135.694 89.5549 135.426 89.3828 135.082C89.2106 134.738 89.1245 134.335 89.1245 133.875C89.1245 133.413 89.2106 133.008 89.3828 132.662C89.5549 132.316 89.7967 132.047 90.1082 131.856C90.4196 131.664 90.7842 131.568 91.202 131.568C91.6199 131.568 91.9845 131.664 92.2959 131.856C92.6073 132.047 92.8491 132.316 93.0213 132.662C93.1935 133.008 93.2795 133.413 93.2795 133.875C93.2795 134.335 93.1935 134.738 93.0213 135.082C92.8491 135.426 92.6073 135.694 92.2959 135.886C91.9845 136.077 91.6199 136.173 91.202 136.173ZM91.2049 135.445C91.4757 135.445 91.7001 135.373 91.8781 135.23C92.0561 135.087 92.1876 134.896 92.2727 134.658C92.3597 134.421 92.4033 134.158 92.4033 133.872C92.4033 133.588 92.3597 133.327 92.2727 133.089C92.1876 132.849 92.0561 132.656 91.8781 132.511C91.7001 132.366 91.4757 132.294 91.2049 132.294C90.9322 132.294 90.7059 132.366 90.526 132.511C90.348 132.656 90.2155 132.849 90.1285 133.089C90.0434 133.327 90.0008 133.588 90.0008 133.872C90.0008 134.158 90.0434 134.421 90.1285 134.658C90.2155 134.896 90.348 135.087 90.526 135.23C90.7059 135.373 90.9322 135.445 91.2049 135.445ZM95.1155 133.437V136.083H94.2479V131.626H95.0807V132.352H95.1358C95.2383 132.116 95.3989 131.926 95.6175 131.783C95.838 131.64 96.1156 131.568 96.4502 131.568C96.7539 131.568 97.0199 131.632 97.2481 131.76C97.4764 131.886 97.6534 132.073 97.7791 132.323C97.9048 132.572 97.9677 132.881 97.9677 133.248V136.083H97.1001V133.353C97.1001 133.03 97.016 132.777 96.8477 132.595C96.6794 132.412 96.4483 132.32 96.1542 132.32C95.9531 132.32 95.7741 132.363 95.6175 132.45C95.4627 132.537 95.3399 132.665 95.249 132.833C95.16 133 95.1155 133.201 95.1155 133.437ZM101.212 131.626V132.323H98.7772V131.626H101.212ZM99.4301 130.559H100.298V134.775C100.298 134.943 100.323 135.07 100.373 135.155C100.423 135.238 100.488 135.295 100.567 135.326C100.649 135.355 100.737 135.369 100.832 135.369C100.901 135.369 100.962 135.365 101.014 135.355C101.067 135.345 101.107 135.337 101.136 135.332L101.293 136.048C101.243 136.068 101.171 136.087 101.078 136.106C100.985 136.128 100.869 136.139 100.73 136.141C100.502 136.145 100.289 136.104 100.092 136.019C99.8943 135.934 99.7347 135.803 99.6129 135.625C99.491 135.447 99.4301 135.223 99.4301 134.954V130.559ZM103.135 133.437V136.083H102.267V130.141H103.123V132.352H103.178C103.283 132.112 103.442 131.921 103.657 131.78C103.872 131.639 104.152 131.568 104.498 131.568C104.804 131.568 105.071 131.631 105.299 131.757C105.529 131.883 105.707 132.07 105.833 132.32C105.961 132.567 106.025 132.877 106.025 133.248V136.083H105.157V133.353C105.157 133.026 105.073 132.772 104.905 132.593C104.736 132.411 104.502 132.32 104.202 132.32C103.997 132.32 103.814 132.363 103.651 132.45C103.491 132.537 103.364 132.665 103.271 132.833C103.18 133 103.135 133.201 103.135 133.437ZM108.851 133.617C108.851 134.346 108.755 135.016 108.563 135.628C108.372 136.239 108.092 136.803 107.725 137.319H106.93C107.073 137.128 107.206 136.893 107.33 136.614C107.454 136.336 107.562 136.031 107.655 135.7C107.748 135.367 107.821 135.023 107.873 134.667C107.925 134.311 107.951 133.961 107.951 133.617C107.951 133.158 107.906 132.693 107.815 132.221C107.724 131.749 107.601 131.311 107.446 130.907C107.292 130.503 107.119 130.173 106.93 129.917H107.725C108.092 130.434 108.372 130.998 108.563 131.609C108.755 132.22 108.851 132.89 108.851 133.617Z" fill="#AEB4CF"/>
<path d="M70.9989 65.0398C70.3489 65.0398 69.7701 64.9281 69.2623 64.7047C68.7574 64.4784 68.3585 64.1679 68.0654 63.7733C67.7753 63.3758 67.6258 62.9174 67.6171 62.398H69.5147C69.5264 62.6156 69.5974 62.8071 69.728 62.9725C69.8615 63.135 70.0385 63.2612 70.259 63.3511C70.4795 63.4411 70.7276 63.4861 71.0032 63.4861C71.2905 63.4861 71.5444 63.4353 71.7649 63.3337C71.9854 63.2322 72.158 63.0915 72.2828 62.9116C72.4076 62.7317 72.47 62.5242 72.47 62.2892C72.47 62.0512 72.4032 61.8409 72.2698 61.6581C72.1392 61.4724 71.9506 61.3273 71.704 61.2229C71.4602 61.1184 71.1701 61.0662 70.8335 61.0662H70.0022V59.6821H70.8335C71.1178 59.6821 71.3688 59.6328 71.5864 59.5342C71.807 59.4355 71.9782 59.2991 72.1 59.125C72.2219 58.9481 72.2828 58.742 72.2828 58.507C72.2828 58.2836 72.2291 58.0877 72.1218 57.9195C72.0173 57.7483 71.8693 57.6148 71.6778 57.519C71.4892 57.4233 71.2687 57.3754 71.0163 57.3754C70.761 57.3754 70.5274 57.4218 70.3156 57.5147C70.1038 57.6046 69.934 57.7338 69.8064 57.902C69.6787 58.0703 69.6105 58.2676 69.6018 58.494H67.7956C67.8043 57.9804 67.9508 57.5278 68.2352 57.136C68.5195 56.7443 68.9025 56.4382 69.3842 56.2177C69.8687 55.9943 70.4157 55.8826 71.025 55.8826C71.6401 55.8826 72.1784 55.9943 72.6397 56.2177C73.101 56.4411 73.4594 56.7429 73.7147 57.123C73.973 57.5002 74.1006 57.9238 74.0977 58.3939C74.1006 58.8929 73.9454 59.3093 73.632 59.643C73.3216 59.9766 72.9168 60.1885 72.4177 60.2784V60.348C73.0735 60.4322 73.5725 60.66 73.9149 61.0314C74.2602 61.3999 74.4314 61.8612 74.4285 62.4154C74.4314 62.9232 74.2849 63.3744 73.9889 63.769C73.6959 64.1636 73.2911 64.474 72.7746 64.7004C72.2582 64.9267 71.6662 65.0398 70.9989 65.0398ZM79.0082 55.8826C79.4667 55.8826 79.9077 55.9595 80.3313 56.1133C80.7578 56.267 81.1379 56.5122 81.4716 56.8488C81.8082 57.1854 82.0737 57.6322 82.2681 58.1893C82.4654 58.7435 82.5655 59.4239 82.5684 60.2305C82.5684 60.9878 82.4828 61.6639 82.3116 62.2587C82.1433 62.8506 81.9011 63.354 81.5848 63.769C81.2685 64.1839 80.887 64.5001 80.4401 64.7178C79.9933 64.9325 79.4942 65.0398 78.9429 65.0398C78.3481 65.0398 77.8229 64.9252 77.3674 64.696C76.9119 64.4639 76.5448 64.1491 76.2663 63.7516C75.9906 63.3511 75.8238 62.9014 75.7657 62.4023H77.6242C77.6967 62.7273 77.8491 62.9797 78.0812 63.1596C78.3133 63.3366 78.6006 63.4251 78.9429 63.4251C79.5232 63.4251 79.9643 63.1727 80.266 62.6678C80.5678 62.1601 80.7201 61.4651 80.723 60.5831H80.6621C80.5286 60.8442 80.3487 61.0691 80.1224 61.2577C79.8961 61.4434 79.6364 61.587 79.3433 61.6886C79.0532 61.7901 78.7442 61.8409 78.4163 61.8409C77.8911 61.8409 77.4225 61.7176 77.0105 61.4709C76.5985 61.2243 76.2735 60.8848 76.0356 60.4525C75.7977 60.0202 75.6787 59.5269 75.6787 58.9727C75.6758 58.375 75.8136 57.8426 76.0922 57.3754C76.3707 56.9083 76.7595 56.5427 77.2586 56.2786C77.7606 56.0117 78.3438 55.8797 79.0082 55.8826ZM79.0213 57.3624C78.7282 57.3624 78.4671 57.432 78.2379 57.5713C78.0115 57.7105 77.8316 57.8977 77.6982 58.1327C77.5676 58.3677 77.5038 58.6303 77.5067 58.9205C77.5067 59.2135 77.5705 59.4776 77.6982 59.7126C77.8287 59.9447 78.0057 60.1304 78.2292 60.2697C78.4555 60.4061 78.7137 60.4743 79.0039 60.4743C79.2215 60.4743 79.4231 60.4336 79.6088 60.3524C79.7945 60.2712 79.9556 60.1594 80.0919 60.0173C80.2312 59.8722 80.34 59.7054 80.4184 59.5168C80.4967 59.3282 80.5359 59.1279 80.5359 58.9161C80.533 58.6347 80.4662 58.3765 80.3357 58.1414C80.2051 57.9064 80.0252 57.7178 79.796 57.5756C79.5668 57.4335 79.3085 57.3624 79.0213 57.3624Z" fill="#0D1E3F"/>
<path d="M61.0932 70.4261V70.0402H63.3926V70.4261H62.4656V73.0114H62.0187V70.4261H61.0932ZM63.8659 73.0114V70.783H64.2997V73.0114H63.8659ZM64.085 70.4391C64.0096 70.4391 63.9448 70.414 63.8906 70.3637C63.8374 70.3124 63.8108 70.2515 63.8108 70.1809C63.8108 70.1093 63.8374 70.0484 63.8906 69.9981C63.9448 69.9468 64.0096 69.9212 64.085 69.9212C64.1604 69.9212 64.2248 69.9468 64.278 69.9981C64.3321 70.0484 64.3592 70.1093 64.3592 70.1809C64.3592 70.2515 64.3321 70.3124 64.278 70.3637C64.2248 70.414 64.1604 70.4391 64.085 70.4391ZM64.8833 73.0114V70.783H65.2997V71.1457H65.3272C65.3736 71.0228 65.4496 70.9271 65.555 70.8584C65.6604 70.7888 65.7866 70.754 65.9336 70.754C66.0826 70.754 66.2074 70.7888 66.3079 70.8584C66.4095 70.928 66.4845 71.0238 66.5328 71.1457H66.556C66.6092 71.0267 66.6938 70.9319 66.8099 70.8613C66.926 70.7897 67.0643 70.754 67.2248 70.754C67.427 70.754 67.5919 70.8173 67.7195 70.944C67.8482 71.0707 67.9125 71.2617 67.9125 71.5171V73.0114H67.4787V71.5577C67.4787 71.4068 67.4376 71.2975 67.3554 71.2298C67.2732 71.1621 67.175 71.1283 67.0609 71.1283C66.9197 71.1283 66.8099 71.1718 66.7316 71.2588C66.6532 71.3449 66.6141 71.4556 66.6141 71.591V73.0114H66.1817V71.5301C66.1817 71.4092 66.144 71.312 66.0686 71.2385C65.9931 71.165 65.895 71.1283 65.7741 71.1283C65.6918 71.1283 65.6159 71.15 65.5463 71.1935C65.4776 71.2361 65.422 71.2956 65.3794 71.372C65.3379 71.4484 65.3171 71.5369 65.3171 71.6375V73.0114H64.8833ZM69.4543 73.0563C69.2347 73.0563 69.0457 73.0094 68.887 72.9156C68.7294 72.8208 68.6075 72.6878 68.5215 72.5166C68.4363 72.3445 68.3938 72.1428 68.3938 71.9117C68.3938 71.6834 68.4363 71.4822 68.5215 71.3081C68.6075 71.1341 68.7275 70.9982 68.8812 70.9005C69.036 70.8028 69.2169 70.754 69.4238 70.754C69.5496 70.754 69.6714 70.7748 69.7894 70.8163C69.9074 70.8579 70.0133 70.9232 70.1071 71.0122C70.201 71.1012 70.2749 71.2168 70.3291 71.3589C70.3833 71.5001 70.4104 71.6718 70.4104 71.8739V72.0277H68.639V71.7028H69.9853C69.9853 71.5886 69.9621 71.4876 69.9156 71.3995C69.8692 71.3106 69.8039 71.2404 69.7198 71.1892C69.6366 71.1379 69.5389 71.1123 69.4267 71.1123C69.3049 71.1123 69.1985 71.1423 69.1076 71.2022C69.0176 71.2612 68.948 71.3386 68.8987 71.4344C68.8503 71.5292 68.8261 71.6322 68.8261 71.7434V71.9973C68.8261 72.1462 68.8522 72.2729 68.9045 72.3774C68.9577 72.4818 69.0316 72.5616 69.1264 72.6167C69.2212 72.6709 69.3319 72.698 69.4586 72.698C69.5409 72.698 69.6158 72.6864 69.6835 72.6632C69.7512 72.639 69.8097 72.6032 69.8591 72.5558C69.9084 72.5084 69.9461 72.4499 69.9722 72.3803L70.3828 72.4543C70.3499 72.5752 70.2909 72.6811 70.2058 72.772C70.1217 72.8619 70.0157 72.932 69.8881 72.9823C69.7614 73.0317 69.6168 73.0563 69.4543 73.0563ZM72.5615 71.327L72.1683 71.3966C72.1519 71.3464 72.1258 71.2985 72.09 71.253C72.0552 71.2076 72.0078 71.1703 71.9478 71.1413C71.8878 71.1123 71.8129 71.0978 71.7229 71.0978C71.6001 71.0978 71.4976 71.1254 71.4154 71.1805C71.3332 71.2346 71.2921 71.3048 71.2921 71.3908C71.2921 71.4653 71.3196 71.5253 71.3748 71.5707C71.4299 71.6162 71.5189 71.6534 71.6417 71.6824L71.9957 71.7637C72.2007 71.8111 72.3535 71.8841 72.4541 71.9828C72.5547 72.0814 72.605 72.2096 72.605 72.3672C72.605 72.5007 72.5663 72.6196 72.4889 72.7241C72.4125 72.8276 72.3057 72.9088 72.1683 72.9678C72.032 73.0268 71.8738 73.0563 71.6939 73.0563C71.4444 73.0563 71.2408 73.0031 71.0831 72.8967C70.9255 72.7894 70.8288 72.6371 70.793 72.4397L71.2123 72.3759C71.2384 72.4852 71.2921 72.5679 71.3733 72.624C71.4545 72.6791 71.5605 72.7067 71.691 72.7067C71.8332 72.7067 71.9468 72.6772 72.032 72.6182C72.1171 72.5582 72.1596 72.4852 72.1596 72.3991C72.1596 72.3295 72.1335 72.271 72.0813 72.2236C72.03 72.1762 71.9512 72.1404 71.8448 72.1162L71.4676 72.0335C71.2597 71.9861 71.1059 71.9107 71.0063 71.8072C70.9076 71.7037 70.8583 71.5727 70.8583 71.4141C70.8583 71.2825 70.895 71.1674 70.9685 71.0688C71.042 70.9701 71.1436 70.8932 71.2732 70.8381C71.4028 70.782 71.5513 70.754 71.7186 70.754C71.9594 70.754 72.149 70.8062 72.2873 70.9106C72.4256 71.0141 72.517 71.1529 72.5615 71.327ZM75.2033 70.783V71.1312H73.9861V70.783H75.2033ZM74.3126 70.2491H74.7463V72.3571C74.7463 72.4412 74.7589 72.5046 74.7841 72.5471C74.8092 72.5887 74.8416 72.6172 74.8813 72.6327C74.9219 72.6472 74.9659 72.6545 75.0133 72.6545C75.0481 72.6545 75.0786 72.652 75.1047 72.6472C75.1308 72.6424 75.1511 72.6385 75.1656 72.6356L75.244 72.9939C75.2188 73.0036 75.183 73.0133 75.1366 73.023C75.0902 73.0336 75.0321 73.0394 74.9625 73.0404C74.8484 73.0423 74.742 73.022 74.6433 72.9794C74.5447 72.9369 74.4649 72.8711 74.404 72.7821C74.343 72.6932 74.3126 72.5814 74.3126 72.447V70.2491ZM75.6832 73.0114V70.783H76.1024V71.137H76.1257C76.1663 71.017 76.2379 70.9227 76.3404 70.8541C76.4439 70.7844 76.5609 70.7496 76.6915 70.7496C76.7185 70.7496 76.7505 70.7506 76.7872 70.7525C76.8249 70.7544 76.8544 70.7569 76.8757 70.7598V71.1747C76.8583 71.1698 76.8273 71.1645 76.7829 71.1587C76.7384 71.152 76.6939 71.1486 76.6494 71.1486C76.5469 71.1486 76.4555 71.1703 76.3752 71.2138C76.2959 71.2564 76.233 71.3159 76.1866 71.3923C76.1402 71.4677 76.117 71.5538 76.117 71.6505V73.0114H75.6832ZM77.8796 73.0607C77.7384 73.0607 77.6108 73.0346 77.4966 72.9823C77.3825 72.9291 77.2921 72.8523 77.2253 72.7517C77.1596 72.6511 77.1267 72.5278 77.1267 72.3817C77.1267 72.256 77.1509 72.1525 77.1992 72.0713C77.2476 71.99 77.3129 71.9257 77.3951 71.8783C77.4773 71.8309 77.5692 71.7951 77.6707 71.7709C77.7723 71.7468 77.8758 71.7284 77.9812 71.7158C78.1147 71.7003 78.223 71.6878 78.3062 71.6781C78.3893 71.6675 78.4498 71.6505 78.4875 71.6273C78.5252 71.6041 78.5441 71.5664 78.5441 71.5142V71.504C78.5441 71.3773 78.5083 71.2791 78.4367 71.2095C78.3661 71.1399 78.2607 71.105 78.1205 71.105C77.9744 71.105 77.8593 71.1374 77.7752 71.2022C77.692 71.2661 77.6345 71.3372 77.6025 71.4155L77.1949 71.3227C77.2432 71.1873 77.3138 71.078 77.4067 70.9948C77.5005 70.9106 77.6083 70.8497 77.7302 70.812C77.8521 70.7733 77.9802 70.754 78.1147 70.754C78.2036 70.754 78.2979 70.7646 78.3976 70.7859C78.4982 70.8062 78.592 70.8439 78.679 70.899C78.767 70.9542 78.8391 71.033 78.8952 71.1355C78.9513 71.2371 78.9793 71.3691 78.9793 71.5316V73.0114H78.5557V72.7067H78.5383C78.5102 72.7628 78.4682 72.8179 78.4121 72.8721C78.356 72.9262 78.2839 72.9712 78.1959 73.007C78.1079 73.0428 78.0025 73.0607 77.8796 73.0607ZM77.9739 72.7125C78.0939 72.7125 78.1964 72.6888 78.2815 72.6414C78.3676 72.594 78.4329 72.5321 78.4774 72.4557C78.5228 72.3783 78.5455 72.2956 78.5455 72.2076V71.9204C78.5301 71.9358 78.5001 71.9504 78.4556 71.9639C78.4121 71.9765 78.3623 71.9876 78.3062 71.9973C78.2501 72.006 78.1954 72.0142 78.1422 72.0219C78.089 72.0287 78.0445 72.0345 78.0088 72.0393C77.9246 72.05 77.8477 72.0679 77.7781 72.093C77.7094 72.1182 77.6543 72.1544 77.6127 72.2018C77.5721 72.2482 77.5518 72.3101 77.5518 72.3875C77.5518 72.4949 77.5914 72.5761 77.6707 72.6313C77.75 72.6854 77.8511 72.7125 77.9739 72.7125ZM81.3836 70.783L80.5755 73.0114H80.1113L79.3018 70.783H79.7675L80.3318 72.4978H80.355L80.9179 70.783H81.3836ZM82.6759 73.0563C82.4563 73.0563 82.2672 73.0094 82.1086 72.9156C81.951 72.8208 81.8291 72.6878 81.743 72.5166C81.6579 72.3445 81.6154 72.1428 81.6154 71.9117C81.6154 71.6834 81.6579 71.4822 81.743 71.3081C81.8291 71.1341 81.949 70.9982 82.1028 70.9005C82.2576 70.8028 82.4384 70.754 82.6454 70.754C82.7711 70.754 82.893 70.7748 83.011 70.8163C83.129 70.8579 83.2349 70.9232 83.3287 71.0122C83.4225 71.1012 83.4965 71.2168 83.5507 71.3589C83.6049 71.5001 83.6319 71.6718 83.6319 71.8739V72.0277H81.8605V71.7028H83.2069C83.2069 71.5886 83.1836 71.4876 83.1372 71.3995C83.0908 71.3106 83.0255 71.2404 82.9414 71.1892C82.8582 71.1379 82.7605 71.1123 82.6483 71.1123C82.5265 71.1123 82.4201 71.1423 82.3291 71.2022C82.2392 71.2612 82.1696 71.3386 82.1202 71.4344C82.0719 71.5292 82.0477 71.6322 82.0477 71.7434V71.9973C82.0477 72.1462 82.0738 72.2729 82.126 72.3774C82.1792 72.4818 82.2532 72.5616 82.348 72.6167C82.4428 72.6709 82.5535 72.698 82.6802 72.698C82.7624 72.698 82.8374 72.6864 82.9051 72.6632C82.9728 72.639 83.0313 72.6032 83.0806 72.5558C83.13 72.5084 83.1677 72.4499 83.1938 72.3803L83.6044 72.4543C83.5715 72.5752 83.5125 72.6811 83.4274 72.772C83.3432 72.8619 83.2373 72.932 83.1097 72.9823C82.983 73.0317 82.8384 73.0563 82.6759 73.0563ZM84.547 70.0402V73.0114H84.1132V70.0402H84.547ZM86.091 73.0563C85.8714 73.0563 85.6824 73.0094 85.5237 72.9156C85.3661 72.8208 85.2442 72.6878 85.1581 72.5166C85.073 72.3445 85.0305 72.1428 85.0305 71.9117C85.0305 71.6834 85.073 71.4822 85.1581 71.3081C85.2442 71.1341 85.3642 70.9982 85.5179 70.9005C85.6727 70.8028 85.8535 70.754 86.0605 70.754C86.1863 70.754 86.3081 70.7748 86.4261 70.8163C86.5441 70.8579 86.65 70.9232 86.7438 71.0122C86.8377 71.1012 86.9116 71.2168 86.9658 71.3589C87.02 71.5001 87.047 71.6718 87.047 71.8739V72.0277H85.2757V71.7028H86.622C86.622 71.5886 86.5988 71.4876 86.5523 71.3995C86.5059 71.3106 86.4406 71.2404 86.3565 71.1892C86.2733 71.1379 86.1756 71.1123 86.0634 71.1123C85.9416 71.1123 85.8352 71.1423 85.7443 71.2022C85.6543 71.2612 85.5847 71.3386 85.5353 71.4344C85.487 71.5292 85.4628 71.6322 85.4628 71.7434V71.9973C85.4628 72.1462 85.4889 72.2729 85.5412 72.3774C85.5943 72.4818 85.6683 72.5616 85.7631 72.6167C85.8579 72.6709 85.9686 72.698 86.0953 72.698C86.1776 72.698 86.2525 72.6864 86.3202 72.6632C86.3879 72.639 86.4464 72.6032 86.4958 72.5558C86.5451 72.5084 86.5828 72.4499 86.6089 72.3803L87.0195 72.4543C86.9866 72.5752 86.9276 72.6811 86.8425 72.772C86.7583 72.8619 86.6524 72.932 86.5248 72.9823C86.3981 73.0317 86.2535 73.0563 86.091 73.0563ZM88.3625 73.0549C88.1826 73.0549 88.0221 73.0089 87.8809 72.9171C87.7406 72.8242 87.6304 72.6922 87.5501 72.521C87.4708 72.3488 87.4311 72.1423 87.4311 71.9015C87.4311 71.6607 87.4713 71.4547 87.5516 71.2835C87.6328 71.1123 87.744 70.9812 87.8852 70.8903C88.0264 70.7994 88.1865 70.754 88.3654 70.754C88.5037 70.754 88.615 70.7772 88.6991 70.8236C88.7842 70.8691 88.85 70.9222 88.8964 70.9832C88.9438 71.0441 88.9806 71.0978 89.0067 71.1442H89.0328V70.0402H89.4666V73.0114H89.0429V72.6646H89.0067C88.9806 72.712 88.9428 72.7662 88.8935 72.8271C88.8452 72.888 88.7784 72.9412 88.6933 72.9867C88.6082 73.0321 88.4979 73.0549 88.3625 73.0549ZM88.4583 72.6849C88.5831 72.6849 88.6885 72.652 88.7746 72.5863C88.8616 72.5195 88.9274 72.4272 88.9719 72.3092C89.0173 72.1912 89.04 72.0538 89.04 71.8972C89.04 71.7424 89.0178 71.607 88.9733 71.4909C88.9288 71.3749 88.8635 71.2845 88.7775 71.2197C88.6914 71.1549 88.585 71.1225 88.4583 71.1225C88.3277 71.1225 88.2189 71.1563 88.1319 71.224C88.0448 71.2917 87.979 71.3841 87.9346 71.5011C87.891 71.6181 87.8693 71.7502 87.8693 71.8972C87.8693 72.0461 87.8915 72.1801 87.936 72.299C87.9805 72.418 88.0463 72.5123 88.1333 72.5819C88.2213 72.6506 88.3296 72.6849 88.4583 72.6849Z" fill="#A5A8B4"/>
<path d="M59.752 120.759V118.948L63.9825 115.031C64.3423 114.683 64.644 114.369 64.8878 114.091C65.1354 113.812 65.323 113.54 65.4507 113.273C65.5783 113.002 65.6422 112.71 65.6422 112.396C65.6422 112.048 65.5629 111.748 65.4042 111.497C65.2456 111.241 65.029 111.046 64.7543 110.911C64.4796 110.771 64.1682 110.702 63.82 110.702C63.4563 110.702 63.1391 110.775 62.8683 110.922C62.5975 111.069 62.3886 111.28 62.2416 111.555C62.0945 111.83 62.021 112.156 62.021 112.536H59.636C59.636 111.758 59.812 111.083 60.1641 110.51C60.5161 109.938 61.0094 109.495 61.6438 109.181C62.2783 108.868 63.0095 108.711 63.8374 108.711C64.6885 108.711 65.4294 108.862 66.06 109.164C66.6945 109.462 67.1877 109.876 67.5398 110.406C67.8918 110.936 68.0678 111.543 68.0678 112.228C68.0678 112.677 67.9789 113.12 67.8009 113.557C67.6268 113.994 67.3154 114.48 66.8666 115.013C66.4178 115.544 65.7853 116.18 64.969 116.923L63.2339 118.623V118.704H68.2245V120.759H59.752ZM70.0452 120.759V118.948L74.2757 115.031C74.6355 114.683 74.9372 114.369 75.181 114.091C75.4286 113.812 75.6162 113.54 75.7439 113.273C75.8715 113.002 75.9354 112.71 75.9354 112.396C75.9354 112.048 75.8561 111.748 75.6974 111.497C75.5388 111.241 75.3222 111.046 75.0475 110.911C74.7728 110.771 74.4614 110.702 74.1132 110.702C73.7495 110.702 73.4323 110.775 73.1615 110.922C72.8907 111.069 72.6818 111.28 72.5348 111.555C72.3878 111.83 72.3142 112.156 72.3142 112.536H69.9292C69.9292 111.758 70.1052 111.083 70.4573 110.51C70.8093 109.938 71.3026 109.495 71.937 109.181C72.5715 108.868 73.3027 108.711 74.1306 108.711C74.9817 108.711 75.7226 108.862 76.3532 109.164C76.9877 109.462 77.4809 109.876 77.833 110.406C78.185 110.936 78.3611 111.543 78.3611 112.228C78.3611 112.677 78.2721 113.12 78.0941 113.557C77.92 113.994 77.6086 114.48 77.1598 115.013C76.711 115.544 76.0785 116.18 75.2622 116.923L73.5271 118.623V118.704H78.5177V120.759H70.0452ZM79.9032 118.669V116.691L84.8648 108.874H86.571V111.613H85.5612L82.4334 116.563V116.656H89.4841V118.669H79.9032ZM85.6076 120.759V118.066L85.6541 117.19V108.874H88.0101V120.759H85.6076Z" fill="#0D1E3F"/>
<defs>
<filter id="filter0_d_41_34" x="-31.0671" y="0.456402" width="213.12" height="239.802" filterUnits="userSpaceOnUse" color-interpolation-filters="sRGB">
<feFlood flood-opacity="0" result="BackgroundImageFix"/>
<feColorMatrix in="SourceAlpha" type="matrix" values="0 0 0 0 0 0 0 0 0 0 0 0 0 0 0 0 0 0 127 0" result="hardAlpha"/>
<feMorphology radius="17.0224" operator="erode" in="SourceAlpha" result="effect1_dropShadow_41_34"/>
<feOffset dy="34.0447"/>
<feGaussianBlur stdDeviation="34.0447"/>
<feColorMatrix type="matrix" values="0 0 0 0 0 0 0 0 0 0 0 0 0 0 0 0 0 0 0.1 0"/>
<feBlend mode="normal" in2="BackgroundImageFix" result="effect1_dropShadow_41_34"/>
<feBlend mode="normal" in="SourceGraphic" in2="effect1_dropShadow_41_34" result="shape"/>
</filter>
</defs>
</svg>
