<svg width="34" height="34" viewBox="0 0 34 34" fill="none" xmlns="http://www.w3.org/2000/svg">
<path d="M17 34C26.3888 34 34 26.3888 34 17C34 7.61116 26.3888 0 17 0C7.61116 0 0 7.61116 0 17C0 26.3888 7.61116 34 17 34Z" fill="#FF7B29"/>
<path d="M13.7379 13.7102C13.6925 13.2519 13.4974 12.8958 13.1527 12.642C12.808 12.3883 12.3402 12.2614 11.7493 12.2614C11.3478 12.2614 11.0088 12.3182 10.7322 12.4318C10.4557 12.5417 10.2436 12.6951 10.0959 12.892C9.95194 13.089 9.87997 13.3125 9.87997 13.5625C9.8724 13.7708 9.91596 13.9527 10.0107 14.108C10.1091 14.2633 10.2436 14.3977 10.4141 14.5114C10.5845 14.6212 10.7815 14.7178 11.005 14.8011C11.2285 14.8807 11.4671 14.9489 11.7209 15.0057L12.7663 15.2557C13.2739 15.3693 13.7398 15.5208 14.1641 15.7102C14.5883 15.8996 14.9557 16.1326 15.2663 16.4091C15.5769 16.6856 15.8175 17.0114 15.9879 17.3864C16.1622 17.7614 16.2512 18.1913 16.255 18.6761C16.2512 19.3883 16.0694 20.0057 15.7095 20.5284C15.3535 21.0473 14.8383 21.4508 14.1641 21.7386C13.4936 22.0227 12.6849 22.1648 11.7379 22.1648C10.7985 22.1648 9.98035 22.0208 9.28338 21.733C8.5902 21.4451 8.04853 21.0189 7.65838 20.4545C7.27202 19.8864 7.06937 19.1837 7.05043 18.3466H9.43111C9.45762 18.7367 9.56937 19.0625 9.76634 19.3239C9.96709 19.5814 10.2341 19.7765 10.5675 19.9091C10.9046 20.0379 11.2853 20.1023 11.7095 20.1023C12.1262 20.1023 12.4879 20.0417 12.7947 19.9205C13.1054 19.7992 13.3459 19.6307 13.5163 19.4148C13.6868 19.1989 13.772 18.9508 13.772 18.6705C13.772 18.4091 13.6944 18.1894 13.5391 18.0114C13.3875 17.8333 13.1641 17.6818 12.8686 17.5568C12.5769 17.4318 12.219 17.3182 11.7947 17.2159L10.5277 16.8977C9.54664 16.6591 8.77202 16.286 8.20384 15.7784C7.63565 15.2708 7.35346 14.5871 7.35724 13.7273C7.35346 13.0227 7.54096 12.4072 7.91974 11.8807C8.30232 11.3542 8.82694 10.9432 9.49361 10.6477C10.1603 10.3523 10.9179 10.2045 11.7663 10.2045C12.63 10.2045 13.3838 10.3523 14.0277 10.6477C14.6754 10.9432 15.1792 11.3542 15.5391 11.8807C15.8989 12.4072 16.0845 13.017 16.0959 13.7102H13.7379ZM17.4666 12.392V10.3636H27.0234V12.392H23.4609V22H21.0291V12.392H17.4666Z" fill="white"/>
</svg>
