<svg width="40" height="40" viewBox="0 0 40 40" fill="none" xmlns="http://www.w3.org/2000/svg">
<rect width="40" height="40" rx="6" fill="white"/>
<path d="M23.3722 20.9924C23.3722 21.0484 23.4637 21.0936 23.5756 21.0936C23.6872 21.0936 23.8573 21.1591 23.9535 21.2386C24.0499 21.3181 24.1793 21.3181 24.2409 21.2386C24.3027 21.1593 24.2772 21.0936 24.185 21.0936C24.0928 21.0936 23.9633 21.0484 23.8976 20.9924C23.8321 20.937 23.6872 20.8913 23.5756 20.8913C23.4635 20.8913 23.3722 20.9373 23.3722 20.9924Z" fill="#FF7B29"/>
<path d="M22.6583 20.7904C22.7278 20.8457 22.797 20.9305 22.8125 20.9781C22.8125 20.9781 22.8125 20.9781 22.9524 20.8916C23.0928 20.8049 23.0928 20.8049 23.0928 20.8049C23.2468 20.7358 23.4991 20.5669 23.6533 20.4289C23.6533 20.4289 23.6533 20.4289 23.3732 20.4289C23.2049 20.4289 23.2049 20.4289 23.2049 20.4289C22.9737 20.4289 22.728 20.4289 22.6585 20.4289C22.5892 20.4289 22.5326 20.4871 22.5326 20.5587C22.5324 20.6304 22.589 20.7346 22.6583 20.7904Z" fill="#FF7B29"/>
<path d="M16.4202 25.4685C16.4202 25.4617 16.4202 25.4617 16.4202 25.4617C16.5082 25.3264 16.5801 25.1505 16.5801 25.0707C16.5801 24.9915 16.5663 24.8839 16.5489 24.832C16.5321 24.7803 16.4392 24.8098 16.3432 24.8975C16.2468 24.9849 16.1366 25.076 16.0982 25.1C16.0596 25.1239 16.0282 25.222 16.0282 25.3172C16.0282 25.3172 16.0282 25.3172 16.0282 25.375C16.0282 25.4327 16.1261 25.5772 16.1539 25.6352C16.1822 25.693 16.2658 25.8087 16.273 25.8955C16.28 25.9822 16.28 25.9822 16.28 25.9822C16.3339 26.1016 16.4345 26.1995 16.5031 26.1995C16.5031 26.1995 16.5031 26.1995 16.5178 26.1995C16.5326 26.1995 16.5464 26.04 16.5744 25.9967C16.6023 25.953 16.6023 25.953 16.6023 25.953C16.5562 25.8097 16.4738 25.5951 16.4202 25.4752C16.4202 25.4755 16.4202 25.4755 16.4202 25.4685Z" fill="#FF7B29"/>
<path d="M16.9826 25.1288C16.9126 25.1433 16.9126 25.1433 16.9126 25.1433C16.8431 25.1832 16.7612 25.31 16.7303 25.4253C16.6996 25.541 16.6807 25.7005 16.6882 25.78C16.6882 25.78 16.6882 25.78 16.7865 25.722C16.8843 25.6643 16.9826 25.6355 16.9826 25.5485C16.9826 25.4618 17.0525 25.1143 16.9826 25.1288Z" fill="#FF7B29"/>
<path d="M11.3222 17.4638C11.53 17.1833 11.7293 16.9252 11.7652 16.8902C11.8005 16.8554 11.91 16.6906 12.0088 16.5229C12.0088 16.5229 12.0088 16.5229 12.0366 16.4649C12.0647 16.4071 12.0647 16.4071 12.0647 16.4071C11.9877 16.2964 11.9032 16.2046 11.877 16.2046C11.8508 16.2046 11.7965 16.1986 11.7563 16.1904C11.7563 16.1904 11.7563 16.1904 11.7282 16.2046C11.7001 16.2194 11.6722 16.2336 11.6444 16.3064C11.6161 16.3784 11.5882 16.3931 11.5742 16.5086C11.5602 16.6244 11.3643 16.9571 11.35 17.0149C11.3357 17.0731 11.3357 17.0731 11.3357 17.0731C11.2667 17.3114 11.1593 17.6567 11.0975 17.8398C11.0975 17.8398 11.0975 17.8398 11.2096 17.6518C11.3222 17.4638 11.3222 17.4638 11.3222 17.4638Z" fill="#FF7B29"/>
<path fill-rule="evenodd" clip-rule="evenodd" d="M17.9292 11.5016C12.4455 11.5016 8 16.0903 8 21.7508C8 27.4112 12.4455 32 17.9292 32C23.413 32 27.8584 27.4112 27.8584 21.7508C27.8584 21.7188 27.8583 21.6868 27.858 21.6549C27.8496 20.7013 27.7149 19.7787 27.4705 18.9042C27.4154 18.7072 27.2073 18.5987 27.0117 18.6587C26.8129 18.7197 26.7031 18.9312 26.7587 19.1315C26.9405 19.7856 27.0559 20.4685 27.0969 21.1722C26.987 21.1235 26.987 21.1237 26.987 21.1237C26.987 21.1237 27.0148 21.1814 26.987 21.2974C26.969 21.3722 26.9156 21.314 26.9104 21.3182C26.9076 21.3205 26.9193 21.3415 26.9591 21.4131C27.0241 21.5305 27.0324 21.5021 27.039 21.5025C27.0437 21.5029 27.0475 21.5184 27.0712 21.6157L27.1137 21.7916C27.1134 21.8582 27.1125 21.9247 27.1109 21.991C27.1073 21.9917 27.1033 21.9921 27.099 21.9921C27.015 21.9921 26.9102 21.6737 26.9102 21.6737C26.9102 21.6737 26.7628 21.3263 26.6785 21.2686L26.5945 21.2109C26.5945 21.2109 26.4824 21.0952 26.4546 20.9795C26.4428 20.9304 26.4661 20.8969 26.4863 20.8681C26.5137 20.8288 26.5352 20.798 26.4546 20.7481C26.3846 20.7048 26.3986 20.7265 26.4056 20.7373C26.4127 20.7482 26.4127 20.7482 26.3146 20.6616C26.1866 20.5485 26.0945 20.5214 26.0226 20.5003C25.984 20.489 25.9513 20.4794 25.9219 20.4591C25.8857 20.4342 25.8599 20.4627 25.8356 20.4896C25.8034 20.5253 25.7737 20.5581 25.7258 20.4591C25.6727 20.3496 25.7538 20.3784 25.7571 20.3708C25.7591 20.3664 25.7346 20.3496 25.6418 20.2857C25.3898 20.1115 25.2496 20.0248 25.2496 20.0248C25.2496 20.0248 25.2217 20.1985 25.053 20.0248C24.8852 19.8516 24.6891 19.8226 24.6891 19.8226C24.6891 19.8226 24.661 19.7354 24.5209 19.62C24.4373 19.5511 24.4532 19.5846 24.4502 19.5865C24.4481 19.5878 24.4373 19.5745 24.3805 19.5043L24.3804 19.5043L24.2403 19.3311L23.9882 19.1574H23.8761L23.7919 19.0127L23.5677 18.7238V18.5209C23.5677 18.5209 23.7081 18.7238 23.7081 18.5209C23.7081 18.4115 23.6999 18.4119 23.6968 18.408C23.6942 18.4047 23.6952 18.3983 23.7081 18.3184L23.736 18.145L23.5677 17.9131V17.5082C23.5677 17.5082 23.3997 17.3058 23.3157 17.2483C23.2738 17.2195 23.3088 17.2556 23.3263 17.2736C23.3439 17.2917 23.3439 17.2917 23.2319 17.1906L23.0077 16.9879L22.6992 16.6985V16.5828C22.6992 16.5828 22.5034 16.7275 22.4194 16.5828C22.3353 16.4379 22.2232 16.2934 22.2232 16.2934V16.1777C22.2232 16.1777 22.1109 16.4091 22.055 16.1777C21.9988 15.9465 22.055 15.8308 22.055 15.8308C22.055 15.8308 21.8865 15.6861 21.8586 15.5994C21.8462 15.5609 21.8558 15.5223 21.8655 15.4837C21.8776 15.4355 21.8897 15.3873 21.8586 15.339C21.8027 15.2523 21.7185 14.876 21.7185 14.876L21.4945 14.4134C21.4945 14.4134 21.5502 14.2402 21.4945 14.1534C21.4383 14.0667 21.3541 13.893 21.3541 13.893C21.3541 13.893 21.5502 13.7196 21.3541 13.5169C21.2436 13.4029 21.2309 13.4172 21.2208 13.4154C21.213 13.414 21.2069 13.4029 21.1578 13.3143L21.1578 13.3143C21.0457 13.1116 20.9616 12.9092 20.9616 12.9092L20.8304 12.753C21.4847 12.9776 22.1063 13.2762 22.6859 13.6392C22.8656 13.7517 23.1043 13.7065 23.2223 13.5304C23.3384 13.3572 23.294 13.1223 23.1179 13.0106C21.608 12.0535 19.831 11.5016 17.9292 11.5016ZM16.5611 31.1268C15.2274 30.9212 13.9874 30.4196 12.9058 29.6889C12.9376 29.6229 12.9093 29.5393 12.8826 29.4607C12.8594 29.3922 12.8374 29.3274 12.8575 29.2812C12.9083 29.1655 12.8575 28.9923 12.8575 28.9923C12.8575 28.9923 12.4709 28.6741 12.3436 28.6164C12.2844 28.5896 12.2042 28.4927 12.119 28.3799C12.129 28.3649 12.1349 28.356 12.1349 28.356C12.1349 28.356 12.1599 28.327 12.3436 28.2403C12.5273 28.1536 12.8575 27.9801 12.8575 27.9801C12.8575 27.9801 13.1994 27.8642 13.2275 27.9801C13.2556 28.0958 13.5077 28.1536 13.5077 28.1536C13.5077 28.1536 13.6197 28.2693 13.7597 28.3273C13.9001 28.3852 14.0681 28.5299 14.0681 28.5299C14.0681 28.5299 14.3202 28.6167 14.4325 28.5009C14.4729 28.4593 14.5423 28.4213 14.6173 28.3803C14.7503 28.3075 14.9008 28.2252 14.9366 28.0958C14.9658 27.9906 15.0026 27.8853 15.0351 27.7922C15.0651 27.7062 15.0915 27.6306 15.1048 27.5753C15.1332 27.4596 15.4692 27.0257 15.5813 26.9103C15.6934 26.7946 15.8333 26.5629 15.7496 26.4472C15.6653 26.3315 15.4414 26.0421 15.3571 26.0998L15.2731 26.1578L14.8806 25.8687C14.8806 25.8687 14.5579 26.582 14.5792 26.5868C14.6008 26.5919 14.7054 26.9972 14.5689 27.0837C14.5046 27.1246 14.452 27.2427 14.4054 27.347C14.3532 27.4639 14.3088 27.5636 14.2642 27.5178C14.18 27.4311 14.3763 26.7948 14.3763 26.7948L13.8999 26.5871C13.8999 26.5871 13.5638 26.7559 13.7038 26.5871C13.7676 26.5102 13.8549 26.4322 13.9336 26.3619C14.0273 26.2781 14.1088 26.2053 14.1241 26.1583C14.1521 26.0716 14.579 25.5798 14.579 25.5798H14.9363C14.9363 25.5798 15.2448 25.6955 15.4409 25.5798C15.637 25.464 16.0297 25.0592 16.0297 25.0592V24.6541C16.0297 24.6541 16.3096 24.8278 16.3657 24.6541C16.4219 24.4804 16.3657 24.2647 16.3657 24.2647L16.2536 24.0181C16.2536 24.0181 16.3084 23.9089 16.5193 23.8767C16.6159 23.8619 16.6801 23.8973 16.7267 23.923C16.7815 23.9533 16.8118 23.97 16.842 23.8751C16.8981 23.6997 16.842 23.4393 16.842 23.4393L16.867 23.1083C16.867 23.1083 16.7299 23.5581 16.758 23.1083C16.775 22.8356 16.6992 22.8665 16.6869 22.8492C16.6789 22.838 16.6977 22.8065 16.786 22.6586C16.898 22.4706 16.898 22.4489 16.898 22.4381C16.898 22.4273 16.898 22.4273 17.01 22.2827C17.1375 22.1182 17.1925 22.009 17.2472 21.9004C17.2886 21.8181 17.3299 21.7361 17.4024 21.6307C17.4839 21.5122 17.5381 21.3901 17.5837 21.2875C17.6324 21.1779 17.6712 21.0906 17.7228 21.0534C17.7816 21.0106 17.7658 20.973 17.746 20.9257C17.7322 20.8926 17.7164 20.8548 17.7228 20.8072C17.7385 20.6915 17.7228 20.3446 17.7228 20.3446C17.7228 20.3446 17.5145 19.9106 17.4584 19.8238C17.4393 19.7941 17.4235 19.7645 17.4065 19.7326C17.3736 19.6709 17.3361 19.6007 17.262 19.5055L17.1502 19.3608C17.1502 19.3608 16.8979 19.4475 16.8137 19.3608C16.7294 19.274 16.7296 19.274 16.7296 19.274H16.3372C16.3082 19.274 16.2824 19.2671 16.2577 19.2605C16.211 19.2479 16.168 19.2363 16.1132 19.274C16.0294 19.3323 15.805 19.4187 15.805 19.4187L15.4685 19.2489L15.1884 19.1296C15.145 19.0103 15.1614 18.8753 15.1759 18.7568C15.1894 18.646 15.2011 18.5495 15.1605 18.4936C15.1511 18.4806 15.1403 18.4655 15.1284 18.4489C15.034 18.3167 14.8708 18.0882 14.7959 18.0882C14.7122 18.0882 14.5785 17.9725 14.5785 17.9725V17.4237L14.7119 17.1056L14.7398 16.9314C14.7398 16.9314 14.7957 16.6425 14.7398 16.4686C14.7202 16.4076 14.7037 16.3182 14.6863 16.224C14.6541 16.05 14.619 15.8599 14.5563 15.8038C14.4596 15.7171 14.4039 15.4277 14.4039 15.4277L14.1795 14.9356C14.1795 14.9356 13.6754 15.1093 13.507 15.167C13.3389 15.2248 13.1987 15.3699 13.0867 15.6591C13.0396 15.7803 13.0103 15.9067 12.9843 16.019C12.9484 16.1743 12.9186 16.3025 12.8568 16.3529C12.7506 16.4396 12.6104 16.5845 12.4983 16.7292C12.3862 16.8739 12.1342 17.2208 12.1061 17.337C12.078 17.4524 12.162 18.1757 12.162 18.1757C12.162 18.1757 12.218 18.3781 12.1061 18.4938C11.994 18.6095 11.6296 19.0144 11.5737 19.1298C11.5474 19.1845 11.4525 19.3161 11.3566 19.4491C11.249 19.5983 11.1401 19.7493 11.1253 19.7953C11.0973 19.8821 11.0416 20.2874 11.1253 20.2297C11.2093 20.1712 11.5456 19.998 11.5456 19.998C11.5456 19.998 11.7979 20.3744 11.686 20.3454C11.5739 20.3161 11.1253 20.4123 10.8731 20.5956C10.621 20.779 10.2847 21.1838 10.2847 21.1838V21.6314C10.2847 21.6314 10.4249 21.7336 10.5089 21.7624C10.5927 21.7914 10.845 21.8203 10.845 21.8203L11.0694 22.023C11.0694 22.023 11.6299 22.3989 11.4338 22.3701C11.2377 22.3414 10.4813 22.023 10.4813 22.023C10.4813 22.023 10.0046 21.9943 9.9206 22.023C9.83659 22.052 9.36012 21.7025 9.27611 21.6314C9.21326 21.578 9.0721 21.3704 8.95803 21.2026L8.95793 21.2025C8.91955 21.146 8.88426 21.0941 8.85604 21.0541C8.83348 21.022 8.80636 20.9843 8.77744 20.9445C9.17386 16.0859 13.1199 12.2703 17.9292 12.2703C18.7037 12.2703 19.4558 12.3692 20.1742 12.5555L20.2895 12.7937C20.2895 12.7937 20.2336 12.9671 20.3176 13.0539L20.4016 13.1406L20.4854 13.2855V13.4877C20.4854 13.4877 20.3733 13.6326 20.4854 13.6904C20.5591 13.7285 20.5844 13.6665 20.593 13.6689C20.5975 13.6701 20.5975 13.6888 20.5975 13.7483V13.922C20.5975 13.922 20.4573 14.0375 20.4014 14.1242C20.3658 14.1792 20.3866 14.118 20.3852 14.1174C20.3843 14.1171 20.3761 14.137 20.3452 14.2109C20.2615 14.4134 20.2051 14.6738 20.2051 14.6738L20.009 14.8472V15.2233C20.009 15.2233 20.0373 15.3098 20.009 15.4262C19.9811 15.5419 20.009 15.7154 20.009 15.7154C20.009 15.7154 19.9252 15.7729 19.8407 15.8311C19.7569 15.8888 19.5327 16.0912 19.5327 16.0912C19.5327 16.0912 19.6729 16.1777 19.5327 16.2647C19.3923 16.3514 19.3083 16.4384 19.3366 16.5541C19.3544 16.628 19.3379 16.5363 19.3383 16.5363C19.3386 16.5362 19.3442 16.5651 19.3642 16.6685L19.3645 16.6698C19.3865 16.7837 19.4042 16.8483 19.4176 16.897C19.4382 16.9721 19.4485 17.0097 19.4485 17.1326C19.4485 17.2583 19.4915 17.2395 19.4976 17.2482C19.5013 17.2536 19.4912 17.2694 19.4485 17.3355C19.3364 17.5087 19.1684 17.8416 19.1684 17.8416C19.1684 17.8416 19.3645 18.058 19.4485 18.0873C19.4908 18.1018 19.5332 18.1237 19.5828 18.1494C19.6316 18.1747 19.6873 18.2036 19.7567 18.2324C19.8969 18.2899 20.2888 18.4346 20.2888 18.4346C20.2888 18.4346 20.485 18.5213 20.569 18.5503C20.6532 18.5793 20.9333 18.9844 20.9333 18.9844C20.9333 18.9844 20.9614 18.9844 21.2139 19.0711C21.466 19.1579 21.5219 19.1868 21.6061 19.2733C21.6902 19.36 21.9141 19.5627 21.9141 19.5627L21.97 19.7072C21.97 19.7072 22.0543 19.6207 22.3066 19.6494C22.5586 19.6784 22.7828 19.8811 22.7828 19.8811C22.7828 19.8811 22.923 19.8811 23.0353 19.8234C23.1474 19.7656 23.3433 19.6207 23.3433 19.6207L23.5394 19.563L23.9037 19.5917L24.156 19.7362L24.296 20.0548C24.296 20.0548 24.324 20.1992 24.4081 20.2574C24.4918 20.3149 24.7163 20.4886 24.7163 20.4886L24.6042 20.8357C24.6042 20.8357 24.7163 20.9804 24.8281 20.9222C24.9402 20.8647 25.1082 20.6623 25.1082 20.6623C25.1082 20.6623 25.1923 20.6046 25.2765 20.6333C25.3605 20.6623 25.5009 20.72 25.6409 20.8647C25.781 21.0092 25.8091 21.1539 25.8091 21.2406C25.8091 21.3273 25.6409 21.7034 25.6409 21.7034L25.1646 22.0508H24.8845L24.5761 22.1955L24.2681 21.7901L24.0158 21.4723C24.0158 21.4723 23.7079 21.6747 23.7776 21.7612C23.8478 21.8484 23.9599 22.0218 23.9599 22.0218C23.9599 22.0218 23.8197 22.2532 23.7776 22.3399C23.757 22.3824 23.7331 22.4109 23.7009 22.4494C23.6673 22.4895 23.6247 22.5403 23.5675 22.6288C23.4554 22.8025 23.3994 22.8892 23.3435 22.976C23.2873 23.0629 23.0634 23.4678 23.0634 23.4678L22.839 23.6417L22.6428 23.9019L22.5029 24.0463H22.2787L21.886 24.249H21.634L21.8582 24.5379L21.9984 24.7118C21.8582 24.8568 21.4662 24.943 21.4662 24.943C21.4662 24.943 21.0737 25.1747 21.1016 25.0879C21.1294 25.0012 21.4381 24.5959 21.4381 24.5959L21.2142 24.4224C21.2142 24.4224 20.9616 24.3647 20.9057 24.4512C20.8496 24.5379 20.8217 24.7406 20.8217 24.7406L20.9057 25.107V25.522C20.9057 25.6665 20.9616 26.0423 21.0459 25.9846C21.1297 25.9266 21.2144 26.2445 21.2144 26.2445V26.6499L21.5224 26.3607C21.5224 26.3607 21.7463 26.3897 21.7185 26.4764C21.6906 26.5631 21.5502 26.6501 21.5502 26.6501L21.8584 26.9108C21.8584 26.9108 22.1947 27.1419 22.2509 27.0554C22.3068 26.9687 22.391 26.7373 22.391 26.7373L22.5312 26.4189V26.2163L22.6433 25.9271L22.9798 25.58L23.1481 25.2331C23.1481 25.2331 23.2038 25.6667 23.2038 25.7534C23.2038 25.8402 23.5682 26.187 23.5682 26.187L23.6522 26.5344C23.6522 26.5344 23.5401 26.7658 23.5401 26.8525C23.5401 26.939 23.3999 27.1127 23.2878 27.2284C23.1757 27.3441 22.8956 27.5758 22.8116 27.6333C22.7276 27.691 22.5315 27.8069 22.5315 27.8069L22.5871 27.3154L22.2232 27.3731L22.2792 27.6333L21.9707 27.8069L21.8027 28.27C21.8027 28.27 21.6345 28.6749 21.5504 28.6174C21.4667 28.5594 21.2703 28.2988 21.2703 28.2988L21.5788 27.6627H21.8306L21.9146 27.4023C21.9146 27.4023 21.7744 27.3733 21.6623 27.2866C21.5502 27.1999 21.3543 26.9687 21.3543 26.9687L21.0178 27.2286V27.4601H20.7658L20.5975 27.8362L20.6537 28.0966C20.6537 28.0966 20.6537 28.1833 20.6256 28.2988L20.5975 28.4147L20.7096 28.6225V29.1377L20.8779 29.4554H21.4098L22.2789 29.8897H22.5031L22.5785 29.9286C22.0396 30.2557 21.4656 30.5277 20.8636 30.7371C20.8417 30.5769 20.7963 30.4138 20.7445 30.3238C20.6712 30.1965 20.5423 30.0791 20.4571 30.0634L20.345 30.0926C20.2329 30.1211 20.0087 30.4105 19.953 30.497C19.8969 30.5837 19.5044 30.8151 19.3923 30.8731L19.3418 30.8994C19.2711 30.8994 19.2007 30.9028 19.1857 30.9064L19.1684 30.9018L19.1066 30.8866C19.1655 30.8931 19.2589 30.8105 19.3151 30.7016L19.5046 30.5552L19.7288 30.3815C19.7906 30.2153 19.7906 29.9812 19.7288 29.8609L19.5608 29.5715C19.5456 29.4918 19.533 29.4008 19.533 29.3686V29.2819C19.533 29.2386 19.5399 29.1518 19.5469 29.0651L19.5469 29.0649C19.5473 29.0595 19.5478 29.0541 19.5482 29.0487C19.5547 28.9676 19.5608 28.8889 19.5608 28.8483C19.5608 28.805 19.6029 28.6675 19.6449 28.5301C19.687 28.3926 19.7291 28.2552 19.7291 28.2118C19.7291 28.1253 19.7782 27.8922 19.8384 27.6067L19.8388 27.6045L20.0083 27.4888C20.1257 27.4086 20.0931 27.3423 20.0532 27.261C20.0356 27.225 20.0164 27.1861 20.0083 27.1417C19.9974 27.0832 20.0274 27.0531 20.0539 27.0264C20.0928 26.9873 20.1242 26.9557 20.0083 26.8525C19.8933 26.7501 19.8753 26.7685 19.8627 26.7652C19.854 26.7629 19.8478 26.7501 19.8133 26.6789C19.7629 26.5746 19.7629 26.5746 19.7346 26.6038C19.7158 26.6233 19.6844 26.6557 19.6172 26.6789L19.4595 26.733C19.2058 27.0564 19.0041 27.3158 19.0097 27.3125C19.0057 27.3154 19.002 27.3183 18.9964 27.3229C18.9956 27.3236 18.9949 27.3242 18.9942 27.3248C18.9935 27.3254 18.9929 27.3259 18.9924 27.3265L18.986 27.3315L18.9781 27.3381L18.9727 27.3429L18.9272 27.378L18.9266 27.3784L18.8606 27.4311C18.6784 27.5755 18.6433 27.6117 18.6258 27.6298C18.6082 27.6479 18.6082 27.6479 18.4963 27.72C18.3642 27.8051 18.4068 27.8101 18.4072 27.8174C18.4075 27.8226 18.3871 27.8289 18.2719 27.8646L18.2718 27.8647L17.9917 27.9516C17.8068 28.0473 17.5546 28.2814 17.4312 28.4724L17.4031 28.5589C17.3955 28.5825 17.3858 28.5997 17.3775 28.6145C17.3551 28.6542 17.3422 28.6771 17.4031 28.7613C17.445 28.8192 17.4941 28.7758 17.5187 28.7541C17.5432 28.7324 17.5432 28.7324 17.4869 28.8771C17.4277 29.0296 17.4142 29.1016 17.4045 29.1526C17.3959 29.1982 17.3905 29.2271 17.3584 29.2817C17.3328 29.3257 17.3446 29.3279 17.3622 29.3312C17.3909 29.3367 17.4352 29.3451 17.3584 29.5423L17.2349 29.8605C17.1885 29.9397 17.2265 30.0568 17.3191 30.1206L17.1509 30.2363C16.9834 30.3515 16.9388 30.4167 16.8851 30.4952L16.8843 30.4962C16.8305 30.576 16.8495 30.7062 16.9264 30.7854L16.7865 30.8721C16.7322 30.9056 16.7031 30.904 16.683 30.9029C16.6512 30.901 16.6418 30.9005 16.5902 31.0436C16.5765 31.0817 16.5673 31.1082 16.5611 31.1268ZM12.0301 28.5239C11.9704 28.6239 11.899 28.7522 11.8541 28.8612C12.0898 29.0759 12.3364 29.2784 12.5927 29.4677C12.4865 29.2651 12.3029 28.7604 12.3029 28.7604L12.0301 28.5239ZM14.5696 23.2772L14.7412 23.033C14.7412 23.033 14.9373 23.174 14.8813 23.2777C14.8591 23.3185 14.8237 23.334 14.7943 23.3469C14.7495 23.3665 14.7187 23.38 14.7693 23.4673C14.8535 23.612 15.1055 23.7854 15.1055 23.7854H15.33C15.33 23.7854 15.6941 23.9879 15.7781 23.7854C15.7978 23.738 15.8159 23.6873 15.8339 23.6367C15.8929 23.4715 15.9509 23.3091 16.0585 23.2774C16.1984 23.2361 16.7027 22.8305 16.4507 22.8888C16.1984 22.9467 16.0585 23.0624 16.0585 23.0624C15.7358 23.1456 15.5936 23.0959 15.5084 23.0661C15.5047 23.0649 15.5012 23.0636 15.4978 23.0624C15.4749 23.0545 15.427 23.0445 15.369 23.0323L15.3689 23.0323C15.2138 22.9996 14.9859 22.9517 14.9656 22.8888C14.9373 22.8018 14.5696 22.4837 14.5696 22.4837L14.2649 22.3392L13.9567 22.5414L13.7047 22.5124H13.2002C13.2002 22.5124 12.8358 22.6163 12.7799 22.7238C12.7237 22.8305 12.6397 23.1081 12.6397 23.1081H13.3403L13.7325 23.4671H13.9287L13.9008 23.1199L14.3492 23.2772H14.5696ZM13.228 24.2632C13.312 24.1611 13.5081 24.0743 13.5081 24.0743L13.3403 23.8751C13.1159 23.8717 12.9198 23.8751 12.9198 23.8751L12.4714 23.8734L12.3032 24.0451C12.3032 24.0451 12.6118 24.1898 12.6397 24.2765C12.6678 24.3635 12.822 24.6526 12.822 24.6526L12.976 24.2632C12.976 24.2632 13.1442 24.3657 13.228 24.2632ZM12.3032 21.6293C12.3593 21.8182 12.4995 22.0208 12.4995 22.0208H12.7799C12.7799 22.0208 12.7518 21.3841 12.6397 21.2976C12.5278 21.2109 12.2753 20.9507 12.1913 20.806C12.1073 20.6613 11.855 20.3434 11.855 20.3434C11.855 20.3434 11.7991 20.5649 11.855 20.8444C11.8871 21.0046 12.0113 21.1769 12.122 21.3304C12.2045 21.4447 12.2794 21.5485 12.3032 21.6293Z" fill="#FF7B29"/>
<path d="M30.6211 13.3292C30.9868 12.6752 31.0844 11.8972 30.8926 11.1663C30.7008 10.4354 30.2352 9.81141 29.5983 9.4317C28.9614 9.05199 28.2053 8.94762 27.4964 9.14155C26.7874 9.33548 26.1837 9.81182 25.8181 10.4658C24.7884 12.3073 25.4622 16.8291 25.4622 16.8291C25.4622 16.8291 29.5915 15.1707 30.6211 13.3292ZM26.9062 11.154C27.3174 10.4187 28.2307 10.1688 28.9473 10.596C29.2911 10.8011 29.5425 11.1379 29.6461 11.5325C29.7496 11.9272 29.6969 12.3472 29.4995 12.7003C29.3021 13.0534 28.9761 13.3106 28.5934 13.4153C28.2106 13.52 27.8024 13.4636 27.4586 13.2586C27.1146 13.0536 26.8632 12.7166 26.7596 12.3219C26.656 11.9272 26.7088 11.5071 26.9062 11.154Z" fill="#FF7B29"/>
</svg>
