<svg width="40" height="40" viewBox="0 0 40 40" fill="none" xmlns="http://www.w3.org/2000/svg">
<rect width="40" height="40" rx="6" fill="white"/>
<path fill-rule="evenodd" clip-rule="evenodd" d="M27.2622 8.51644C27.313 8.84872 27.086 9.15943 26.7554 9.21043L12.652 11.3855C12.5645 11.3989 12.4849 11.4339 12.4181 11.4845C12.4641 11.4804 12.5107 11.4783 12.5577 11.4783H27.4423C28.3026 11.4783 29 12.1791 29 13.0435V30.4348C29 31.2992 28.3026 32 27.4423 32H12.5577C11.6974 32 11 31.2992 11 30.4348V14.2609V13.0435V11.9012C11 11.0425 11.6236 10.3124 12.4682 10.1822L26.5716 8.00713C26.9022 7.95613 27.2115 8.18416 27.2622 8.51644ZM16.162 22.2307C16.2381 22.2307 16.3003 22.2606 16.3003 22.2977C16.3003 22.3342 16.2382 22.3645 16.162 22.3645C16.0861 22.3645 15.9877 22.3343 15.9431 22.2977C15.8984 22.2606 15.8104 22.2307 15.7477 22.2307C15.6851 22.2307 15.6677 22.1872 15.7097 22.1348C15.7516 22.0822 15.8395 22.0822 15.9051 22.1348C15.9705 22.1874 16.0861 22.2307 16.162 22.2307ZM16.7858 22.4315C16.7386 22.3949 16.6915 22.3388 16.681 22.3073L16.5858 22.3645L16.4904 22.4219C16.3857 22.4676 16.2142 22.5794 16.1094 22.6706H16.2998H16.4142H16.7857C16.8328 22.6706 16.8713 22.6321 16.8713 22.5848C16.8714 22.5373 16.8329 22.4684 16.7858 22.4315ZM19.1759 15.6895C19.1744 15.6894 19.1722 15.6892 19.1694 15.6889C19.1603 15.6881 19.1451 15.6866 19.127 15.6859C19.136 15.6822 19.1457 15.6812 19.1575 15.6841L19.1592 15.6845C19.1727 15.6878 19.1785 15.6892 19.1784 15.6896C19.1784 15.6896 19.1781 15.6897 19.1774 15.6896C19.177 15.6896 19.1765 15.6896 19.1759 15.6895ZM21.0243 19.3354V19.3399C20.9645 19.4294 20.9156 19.5458 20.9156 19.5985C20.9156 19.6509 20.925 19.7221 20.9368 19.7564C20.9482 19.7907 21.0114 19.7712 21.0766 19.7131C21.1422 19.6553 21.2171 19.595 21.2432 19.5792C21.2694 19.5633 21.2908 19.4984 21.2908 19.4355V19.3972C21.2908 19.3703 21.2576 19.3147 21.2315 19.2708C21.2206 19.2526 21.2109 19.2364 21.2053 19.2251C21.2003 19.215 21.1926 19.2023 21.1839 19.188C21.1598 19.1479 21.128 19.0952 21.1244 19.0529L21.1196 18.9955C21.083 18.9166 21.0146 18.8518 20.968 18.8518H20.9579C20.9533 18.8518 20.9488 18.8745 20.9434 18.9017L20.9434 18.9017C20.9371 18.9331 20.9297 18.9706 20.9194 18.9859L20.9005 19.0149C20.9319 19.1097 20.9879 19.2516 21.0243 19.3309V19.3354ZM20.6909 19.5507L20.6433 19.5603C20.6093 19.5672 20.624 19.4513 20.6351 19.3638C20.6395 19.3291 20.6433 19.2989 20.6433 19.2826C20.6433 19.2372 20.685 19.2157 20.7354 19.1899C20.7487 19.1831 20.7627 19.1759 20.7767 19.1679L20.8435 19.1295C20.8486 19.1821 20.8357 19.2876 20.8148 19.3642C20.7938 19.4404 20.7382 19.5243 20.6909 19.5507ZM24.491 24.6326C24.3497 24.8182 24.2142 24.9889 24.1898 25.0121C24.1658 25.0351 24.0914 25.1441 24.0242 25.2551L24.0053 25.2934L23.9862 25.3316C24.0385 25.4048 24.096 25.4656 24.1138 25.4656C24.1316 25.4656 24.1685 25.4696 24.1959 25.475L24.215 25.4656L24.2153 25.4654C24.2343 25.4557 24.2531 25.4461 24.2719 25.3983C24.2778 25.3837 24.2837 25.3726 24.2893 25.3621C24.3019 25.3384 24.313 25.3175 24.3197 25.2645C24.3257 25.216 24.3812 25.1102 24.4236 25.0292C24.4483 24.9822 24.4685 24.9436 24.4721 24.9296L24.4818 24.8911C24.5287 24.7334 24.6017 24.505 24.6437 24.3838L24.5675 24.5082L24.491 24.6326ZM13.25 21.7393C13.25 17.9993 16.2779 14.9566 20 14.9566C23.7219 14.9566 26.75 17.9991 26.75 21.7392C26.75 25.4792 23.7219 28.5218 20 28.5218C16.2779 28.5218 13.25 25.4793 13.25 21.7393ZM24.1545 16.7921C23.9717 16.6368 23.7804 16.4917 23.5813 16.3574C23.5693 16.4354 23.5599 16.5476 23.5961 16.5836C23.6533 16.6413 23.8248 17.1004 23.8248 17.1004L24.0103 17.2569C24.0892 17.1281 24.1985 16.9283 24.1463 16.8899C24.1225 16.8726 24.1295 16.8375 24.1545 16.7921ZM22.2839 20.729L22.1673 20.8906C22.1673 20.8906 22.034 20.7973 22.072 20.7287C22.0871 20.7017 22.1112 20.6914 22.1312 20.6829C22.1616 20.6699 22.1826 20.661 22.1482 20.6032C22.0909 20.5075 21.9196 20.3927 21.9196 20.3927H21.767C21.767 20.3927 21.5195 20.2587 21.4623 20.3927C21.449 20.4241 21.4367 20.4577 21.4244 20.4911C21.3843 20.6005 21.3449 20.7079 21.2718 20.7289C21.1766 20.7562 20.8338 21.0246 21.0051 20.9861C21.1766 20.9477 21.2718 20.8711 21.2718 20.8711C21.4911 20.8161 21.5878 20.849 21.6457 20.8687C21.6482 20.8695 21.6506 20.8704 21.6529 20.8711C21.6685 20.8764 21.701 20.883 21.7405 20.8911C21.846 20.9127 22.0009 20.9444 22.0147 20.9861C22.034 21.0436 22.2839 21.2542 22.2839 21.2542L22.491 21.3498L22.7005 21.216L22.8719 21.2351H23.2149C23.2149 21.2351 23.4626 21.1664 23.5006 21.0953C23.5388 21.0246 23.5959 20.8409 23.5959 20.8409H23.1196L22.8529 20.6034H22.7196L22.7386 20.8331L22.4337 20.729H22.2839ZM23.1959 20.0765C23.1388 20.1441 23.0055 20.2015 23.0055 20.2015L23.1196 20.3334C23.2721 20.3356 23.4055 20.3334 23.4055 20.3334L23.7103 20.3345L23.8247 20.2208C23.8247 20.2208 23.6148 20.1251 23.5959 20.0677C23.5768 20.0101 23.472 19.8188 23.472 19.8188L23.3673 20.0765C23.3673 20.0765 23.2529 20.0087 23.1959 20.0765ZM23.8247 21.8196C23.7865 21.6946 23.6912 21.5604 23.6912 21.5604H23.5006C23.5006 21.5604 23.5197 21.9818 23.5959 22.0391C23.6719 22.0964 23.8436 22.2686 23.9007 22.3644C23.9578 22.4601 24.1293 22.6705 24.1293 22.6705C24.1293 22.6705 24.1673 22.5239 24.1293 22.339C24.1075 22.2329 24.023 22.1189 23.9478 22.0173C23.8918 21.9417 23.8408 21.873 23.8247 21.8196ZM19.2906 18.0385L19.287 18.0417C19.2858 18.0426 19.2839 18.0442 19.2816 18.046C19.279 18.048 19.2774 18.0492 19.2773 18.0493C19.2769 18.0497 19.2765 18.0501 19.276 18.0504C19.2756 18.0508 19.2751 18.0512 19.2746 18.0517C19.2721 18.0537 19.2701 18.0552 19.2683 18.0566C19.2673 18.0573 19.2664 18.058 19.2655 18.0586C19.2693 18.0564 19.1322 18.2281 18.9597 18.4421L18.8525 18.4779C18.8068 18.4933 18.7855 18.5147 18.7727 18.5276C18.7535 18.5469 18.7535 18.5469 18.7192 18.4779C18.6957 18.4308 18.6915 18.4223 18.6856 18.4208C18.677 18.4186 18.6648 18.4308 18.5867 18.363C18.5078 18.2947 18.5292 18.2738 18.5556 18.2479C18.5736 18.2303 18.594 18.2104 18.5867 18.1716C18.5811 18.1422 18.5681 18.1165 18.5561 18.0926C18.5289 18.0388 18.5068 17.995 18.5867 17.9419L18.7018 17.8653L18.7022 17.8639C18.7431 17.6749 18.7764 17.5207 18.7764 17.4635C18.7764 17.4348 18.805 17.3438 18.8336 17.2529C18.8622 17.1619 18.8908 17.0709 18.8908 17.0422C18.8908 17.0135 18.8956 16.9562 18.9003 16.8988C18.905 16.8414 18.9098 16.784 18.9098 16.7553V16.6979C18.9098 16.6766 18.9012 16.6164 18.8908 16.5636L18.8337 16.4679L18.7766 16.3721C18.7346 16.2925 18.7346 16.1376 18.7766 16.0276L18.929 15.9127L19.0579 15.8158C19.0961 15.7437 19.1595 15.689 19.1996 15.6934L19.1576 15.6833L19.1458 15.6803C19.1357 15.6827 19.0878 15.6849 19.0397 15.6849L19.0054 15.7023C18.9292 15.7407 18.6624 15.8938 18.6242 15.9512C18.5863 16.0084 18.4339 16.2 18.3577 16.2188L18.2815 16.2382C18.2236 16.2278 18.136 16.1501 18.0862 16.0658C18.0365 15.9819 17.9956 15.8021 17.9956 15.6667C17.9956 15.6347 18.0289 15.5965 18.0887 15.554C17.5712 15.7159 17.0812 15.941 16.6284 16.2212L16.8906 16.3531H17.043L17.6339 16.6405H17.9955L18.1099 16.8507V17.0039V17.1917L18.1861 17.3292L18.167 17.4059C18.1479 17.4823 18.1479 17.5397 18.1479 17.5397L18.1861 17.712L18.0717 17.9609H17.9003V18.1141L17.6716 18.2861C17.6716 18.2861 17.5384 18.1331 17.4622 18.0757C17.386 18.0183 17.2907 17.9991 17.2907 17.9991L17.3478 17.8268H17.519L17.7287 17.4059C17.7287 17.4059 17.5952 17.2334 17.5383 17.1951C17.4811 17.157 17.3668 17.4249 17.3668 17.4249L17.2525 17.7314L17.0428 17.8463L17.0809 18.0185L16.8335 18.0567L16.8714 17.7314C16.8714 17.7314 16.738 17.8081 16.6809 17.8463C16.6238 17.8844 16.4334 18.0377 16.3572 18.1142C16.281 18.1908 16.1857 18.3058 16.1857 18.363C16.1857 18.4204 16.1095 18.5735 16.1095 18.5735L16.1666 18.8034C16.1666 18.8034 16.4143 19.0329 16.4143 19.0903C16.4143 19.1477 16.4521 19.4347 16.4521 19.4347L16.5665 19.2051L16.7953 18.9754L16.8715 18.784V18.6499L16.9668 18.4392C16.9668 18.4392 17.0241 18.2861 17.0621 18.2287C17.1003 18.1715 17.3289 18.3245 17.3289 18.3245L17.5384 18.4969C17.5384 18.4969 17.443 18.5545 17.424 18.6119C17.4051 18.6693 17.5573 18.6884 17.5573 18.6884L17.7667 18.4971V18.7653C17.7667 18.7653 17.8243 18.9757 17.8812 18.9373C17.9385 18.8991 17.9765 19.1479 17.9765 19.2435V19.5181L18.0337 19.7606C18.0337 19.7606 18.0147 19.8947 17.9765 19.9521C17.9385 20.0093 17.7669 19.9711 17.7669 19.9711L17.6146 19.8564C17.6146 19.8564 17.8245 19.5881 17.8434 19.5307C17.8623 19.4733 17.5955 19.6267 17.5955 19.6267C17.5955 19.6267 17.329 19.6837 17.2338 19.7796L17.329 19.8947L17.4815 20.0859H17.3101L17.0432 20.22H16.8908L16.7956 20.3156L16.6623 20.4878L16.5097 20.6029C16.5097 20.6029 16.3575 20.8708 16.3193 20.9284C16.2813 20.9858 16.2433 21.0431 16.1671 21.1581C16.1282 21.2167 16.0992 21.2503 16.0764 21.2769C16.0545 21.3023 16.0382 21.3212 16.0242 21.3493C15.9956 21.4067 15.9003 21.5598 15.9003 21.5598C15.9003 21.5598 15.9765 21.6746 16.0242 21.7323C16.0716 21.7895 15.8622 21.9235 15.8622 21.9235L15.6907 21.7131L15.4814 21.4449L15.2717 21.5406H15.0813L14.7575 21.7705C14.7575 21.7705 14.6431 22.0194 14.6431 22.0768C14.6431 22.1342 14.6622 22.2299 14.7575 22.3255C14.8527 22.4213 14.9481 22.4595 15.0052 22.4787C15.0625 22.4977 15.1196 22.4595 15.1196 22.4595C15.1196 22.4595 15.2338 22.3255 15.31 22.2875C15.3861 22.249 15.4623 22.3447 15.4623 22.3447L15.3861 22.5744C15.3861 22.5744 15.5387 22.6894 15.5956 22.7274C15.6527 22.7659 15.6718 22.8615 15.6718 22.8615L15.767 23.0724L15.9384 23.168L16.1862 23.187L16.3195 23.1488C16.3195 23.1488 16.4526 23.0529 16.5288 23.0147C16.6052 22.9765 16.7005 22.9765 16.7005 22.9765C16.7005 22.9765 16.8529 23.1106 17.0242 23.1298C17.1957 23.1488 17.253 23.0916 17.253 23.0916L17.291 23.1872C17.291 23.1872 17.4433 23.3213 17.5004 23.3787C17.5577 23.4359 17.5957 23.4551 17.767 23.5125C17.9387 23.5699 17.9578 23.5699 17.9578 23.5699C17.9578 23.5699 18.1482 23.8379 18.2055 23.8571C18.2626 23.8763 18.3959 23.9337 18.3959 23.9337C18.3959 23.9337 18.6624 24.0294 18.7577 24.0675C18.8048 24.0866 18.8427 24.1057 18.8759 24.1224C18.9096 24.1394 18.9384 24.154 18.9672 24.1636C19.0243 24.1829 19.1576 24.3261 19.1576 24.3261C19.1576 24.3261 19.0434 24.5464 18.9672 24.661C18.9382 24.7048 18.9313 24.7152 18.9338 24.7188C18.938 24.7246 18.9672 24.7122 18.9672 24.7953C18.9672 24.8766 18.9742 24.9015 18.9882 24.9512C18.9973 24.9835 19.0093 25.0262 19.0243 25.1016C19.0381 25.1707 19.0419 25.19 19.0421 25.19C19.0424 25.1899 19.0311 25.1292 19.0432 25.1782C19.0625 25.2547 19.0054 25.3123 18.9099 25.3697C18.8146 25.4272 18.9099 25.4845 18.9099 25.4845C18.9099 25.4845 18.7575 25.6184 18.7006 25.6566C18.6431 25.6952 18.5862 25.7332 18.5862 25.7332C18.5862 25.7332 18.6051 25.848 18.5862 25.9245C18.5669 26.0016 18.5862 26.0588 18.5862 26.0588V26.1928V26.3077L18.4529 26.4225C18.4529 26.4225 18.4145 26.5948 18.3576 26.7288C18.3366 26.7777 18.331 26.7909 18.3304 26.7907C18.3294 26.7903 18.3436 26.7498 18.3194 26.7862C18.2814 26.8436 18.1861 26.92 18.1861 26.92V27.0349C18.1861 27.0743 18.1861 27.0867 18.1891 27.0875C18.195 27.0891 18.2122 27.0481 18.2623 27.0733C18.3385 27.1115 18.2623 27.2074 18.2623 27.2074V27.3412L18.3192 27.4371L18.3763 27.4945C18.4334 27.5519 18.3954 27.6667 18.3954 27.6667L18.5859 28.0495H18.5472C19.0144 28.1582 19.5006 28.2153 20 28.2153C23.2922 28.2153 26.0155 25.7223 26.3994 22.5145C26.3978 22.5074 26.3968 22.5034 26.3968 22.5034C26.3968 22.5034 26.2443 22.3057 26.1681 22.2002C26.1489 22.1737 26.1248 22.1393 26.0987 22.1019C26.0212 21.9909 25.9252 21.8535 25.8825 21.8181C25.8254 21.7711 25.5015 21.5398 25.4444 21.559C25.3872 21.578 25.0632 21.559 25.0632 21.559C25.0632 21.559 24.549 21.3483 24.4157 21.3293C24.2824 21.3103 24.6634 21.559 24.6634 21.559L24.816 21.6931C24.816 21.6931 24.9874 21.7123 25.0444 21.7315C25.1015 21.7505 25.1968 21.8181 25.1968 21.8181V22.1144C25.1968 22.1144 24.9682 22.3823 24.7969 22.5036C24.6254 22.6249 24.3204 22.6886 24.2442 22.6692C24.1681 22.65 24.3396 22.8991 24.3396 22.8991C24.3396 22.8991 24.5682 22.7845 24.6254 22.7458C24.6823 22.7076 24.6445 22.9758 24.6254 23.0332C24.6153 23.0636 24.5413 23.1636 24.4682 23.2624C24.403 23.3504 24.3385 23.4375 24.3205 23.4736C24.2825 23.55 24.0348 23.818 23.9586 23.8945C23.8826 23.9711 23.9206 24.1051 23.9206 24.1051C23.9206 24.1051 23.9777 24.5837 23.9586 24.6601C23.9395 24.737 23.7682 24.9665 23.692 25.0623C23.6158 25.158 23.5205 25.2539 23.4483 25.3113C23.4063 25.3446 23.3861 25.4295 23.3616 25.5323C23.3439 25.6066 23.324 25.6902 23.292 25.7704C23.2158 25.9618 23.1205 26.0579 23.0063 26.0961C22.8918 26.1343 22.5491 26.2492 22.5491 26.2492L22.3965 25.9236C22.3965 25.9236 22.3587 25.7321 22.293 25.6747C22.2503 25.6376 22.2265 25.5118 22.2046 25.3966C22.1928 25.3343 22.1815 25.2751 22.1682 25.2348C22.1302 25.1197 22.1682 24.9285 22.1682 24.9285L22.1872 24.8132L22.2778 24.6027V24.2395C22.2778 24.2395 22.187 24.1629 22.13 24.1629C22.0792 24.1629 21.9682 24.0117 21.904 23.9243C21.8959 23.9132 21.8886 23.9032 21.8822 23.8947C21.8546 23.8577 21.8626 23.7938 21.8718 23.7205C21.8816 23.642 21.8928 23.5527 21.8633 23.4738L21.6728 23.3948L21.4441 23.2824C21.4441 23.2824 21.2915 23.3397 21.2345 23.3782C21.1973 23.4032 21.168 23.3955 21.1363 23.3872C21.1195 23.3828 21.102 23.3782 21.0823 23.3782H20.8155C20.8155 23.3782 20.8157 23.3782 20.7584 23.3208C20.7011 23.2634 20.5296 23.3208 20.5296 23.3208L20.4536 23.225C20.4032 23.162 20.3778 23.1156 20.3554 23.0747C20.3438 23.0536 20.333 23.034 20.3201 23.0143C20.2819 22.957 20.1403 22.6697 20.1403 22.6697C20.1403 22.6697 20.1297 22.4401 20.1403 22.3636C20.1447 22.3321 20.1339 22.3071 20.1245 22.2852C20.1111 22.2539 20.1004 22.229 20.1403 22.2007C20.1754 22.1761 20.2018 22.1183 20.2349 22.0457C20.2659 21.9779 20.3027 21.8971 20.3581 21.8186C20.4074 21.7489 20.4355 21.6946 20.4637 21.6401C20.5008 21.5683 20.5382 21.496 20.6249 21.3872C20.701 21.2915 20.701 21.2915 20.701 21.2843C20.701 21.2771 20.701 21.2628 20.7772 21.1384C20.8372 21.0405 20.85 21.0197 20.8446 21.0123C20.8362 21.0008 20.7847 21.0213 20.7962 20.8408C20.8153 20.5431 20.7221 20.8408 20.7221 20.8408L20.7391 20.6218C20.7391 20.6218 20.7009 20.4494 20.7391 20.3334C20.7596 20.2705 20.7802 20.2816 20.8175 20.3016C20.8491 20.3186 20.8928 20.3421 20.9585 20.3323C21.1019 20.311 21.1391 20.2387 21.1391 20.2387L21.0629 20.0755C21.0629 20.0755 21.0247 19.9328 21.0629 19.8178C21.1011 19.7029 21.2913 19.8178 21.2913 19.8178V19.5498C21.2913 19.5498 21.5583 19.2818 21.6916 19.2053C21.8249 19.1287 22.0346 19.2053 22.0346 19.2053H22.2775C22.2775 19.2053 22.5677 18.8798 22.5868 18.8224C22.5972 18.7913 22.6526 18.7431 22.7163 18.6877C22.7698 18.6411 22.8291 18.5895 22.8725 18.5387C22.9677 18.4269 22.7392 18.5387 22.7392 18.5387L22.4153 18.4012C22.4153 18.4012 22.5488 17.9801 22.4915 17.9227C22.4612 17.8924 22.431 17.9584 22.3955 18.0358C22.3639 18.1048 22.3281 18.1829 22.2844 18.21C22.1916 18.2672 22.2627 18.5355 22.2774 18.5388C22.2918 18.542 22.0725 19.0141 22.0725 19.0141L21.8057 18.8227L21.7486 18.8611C21.6913 18.8993 21.539 18.7078 21.4818 18.6312C21.4248 18.5546 21.5199 18.4013 21.5961 18.3248C21.6723 18.2484 21.9008 17.9613 21.92 17.8847C21.9291 17.8481 21.9471 17.7981 21.9675 17.7412C21.9896 17.6796 22.0146 17.6098 22.0344 17.5402C22.0588 17.4546 22.161 17.4001 22.2515 17.352C22.3025 17.3248 22.3497 17.2997 22.3771 17.2721C22.4535 17.1955 22.6248 17.2529 22.6248 17.2529C22.6248 17.2529 22.739 17.3487 22.8345 17.3871C22.9296 17.4254 23.0058 17.502 23.0058 17.502C23.0058 17.502 23.1772 17.5402 23.1963 17.6168C23.2154 17.6935 23.4478 17.6168 23.4478 17.6168C23.4478 17.6168 23.6723 17.502 23.7971 17.4446C23.922 17.3872 23.9391 17.368 23.9391 17.368C23.9391 17.368 23.9402 17.3663 23.9424 17.3631C23.9442 17.3605 23.9467 17.3567 23.9499 17.3522C23.892 17.2775 23.8374 17.2134 23.7971 17.1957C23.7106 17.1575 23.4478 16.947 23.4478 16.947C23.4478 16.947 23.4133 16.8323 23.4478 16.7558C23.4615 16.7252 23.4465 16.6823 23.4307 16.637C23.407 16.5689 23.3814 16.4953 23.4478 16.4493C23.4992 16.4134 23.5348 16.3739 23.5584 16.3414C22.8038 15.8379 21.9382 15.4894 21.007 15.3417C20.9986 15.3615 20.986 15.3911 20.9673 15.4347C20.9398 15.4994 20.9388 15.5018 20.9388 15.5041C20.9387 15.5067 20.9398 15.5093 20.9103 15.5895C20.8752 15.6842 20.8688 15.6838 20.8472 15.6826C20.8335 15.6819 20.8137 15.6808 20.7768 15.703L20.6817 15.7603C20.734 15.8128 20.7469 15.8989 20.7103 15.9517L20.7098 15.9524C20.6733 16.0044 20.643 16.0475 20.5291 16.1237L20.4147 16.2003C20.4777 16.2425 20.5035 16.32 20.472 16.3724L20.388 16.583C20.3359 16.7135 20.366 16.719 20.3855 16.7227C20.3974 16.7249 20.4054 16.7263 20.388 16.7555C20.3662 16.7916 20.3625 16.8107 20.3567 16.8409C20.3501 16.8746 20.3409 16.9223 20.3007 17.0232C20.2743 17.0891 20.2661 17.1097 20.269 17.1114C20.2745 17.1147 20.3203 17.0496 20.3576 17.0998C20.3991 17.1555 20.3903 17.1707 20.3751 17.197C20.3694 17.2068 20.3628 17.2181 20.3576 17.2337L20.3385 17.291C20.2547 17.4174 20.0832 17.5723 19.9575 17.6356L19.7671 17.6932C19.6887 17.7169 19.6749 17.7211 19.675 17.7245C19.6753 17.7293 19.7043 17.7326 19.6145 17.7889C19.5384 17.8366 19.5384 17.8366 19.5265 17.8486C19.5145 17.8606 19.4907 17.8845 19.3668 17.9801L19.322 18.015L19.2906 18.0385ZM19.2844 18.0439C19.2834 18.0447 19.2824 18.0454 19.2816 18.046C19.2759 18.0507 19.2683 18.057 19.2656 18.0593C19.2684 18.0571 19.2713 18.0547 19.2744 18.0523C19.2754 18.0515 19.2764 18.0507 19.2774 18.0498C19.2774 18.0499 19.2774 18.0499 19.2774 18.05C19.2773 18.05 19.2772 18.0501 19.2771 18.0501C19.2771 18.0501 19.2773 18.0501 19.2774 18.05C19.2781 18.0495 19.2796 18.0482 19.2816 18.0466C19.2823 18.0461 19.2829 18.0455 19.2836 18.0449C19.2815 18.0466 19.2795 18.0482 19.2774 18.0498C19.2796 18.048 19.2819 18.0461 19.284 18.0442C19.2841 18.0441 19.2843 18.044 19.2844 18.0439ZM19.3054 18.0278C19.2966 18.0345 19.2894 18.0401 19.2844 18.0439C19.2866 18.042 19.2887 18.0402 19.2905 18.0386C19.3036 18.0287 19.3072 18.0262 19.3054 18.0278ZM19.3054 18.0278C19.31 18.0242 19.3151 18.0203 19.3205 18.0161L19.3216 18.0153C19.3167 18.0192 19.312 18.0229 19.3076 18.0264C19.3026 18.0303 19.298 18.0339 19.2938 18.037C19.2995 18.0326 19.304 18.029 19.3054 18.0278ZM13.5758 21.8477C13.5758 21.8477 13.5683 21.8412 13.5559 21.8301C13.5561 21.8415 13.5562 21.8528 13.5562 21.8643C13.5671 21.8539 13.5758 21.8477 13.5758 21.8477ZM13.5622 22.0111L13.5609 22.0101C13.6794 24.8879 15.6753 27.2869 18.3482 27.9995L18.1862 27.8772L17.9385 27.5903C17.9385 27.5903 17.8814 27.4563 17.8052 27.3222C17.7718 27.2635 17.7676 27.2562 17.7623 27.2553C17.7555 27.2541 17.7468 27.2635 17.6717 27.1881C17.5384 27.0539 17.6717 26.9392 17.6717 26.9392C17.6717 26.9392 17.6145 26.8242 17.5763 26.7668C17.5384 26.7094 17.5763 26.5948 17.5763 26.5948L17.424 26.2887C17.424 26.2887 17.3668 26.0396 17.3287 25.9823C17.3076 25.9503 17.3158 25.9184 17.3241 25.8865C17.3306 25.861 17.3372 25.8354 17.3287 25.8099C17.3098 25.7525 17.1953 25.6568 17.1953 25.6568C17.1953 25.6568 17.2334 25.5802 17.1953 25.4272C17.1572 25.2741 17.0809 25.4272 17.0809 25.4272V25.3507C17.0809 25.3507 17.0047 25.2551 16.9476 25.1592C16.8904 25.0634 16.7573 25.1592 16.7573 25.1592V25.0826L16.5476 24.8911L16.3952 24.757C16.3191 24.6901 16.3191 24.6901 16.331 24.702C16.3429 24.714 16.3667 24.7378 16.3382 24.7187C16.2811 24.6807 16.1669 24.5467 16.1669 24.5467V24.4126V24.2788L16.0525 24.1254L16.0714 24.0106C16.0802 23.9577 16.0809 23.9535 16.0791 23.9513C16.077 23.9487 16.0714 23.949 16.0714 23.8766C16.0714 23.7423 16.1669 23.8766 16.1669 23.8766V23.7423L16.0145 23.5511L15.9572 23.4554H15.881L15.7097 23.3405L15.6144 23.2258C15.5757 23.1793 15.5684 23.1705 15.567 23.1714C15.5649 23.1727 15.5757 23.1948 15.5189 23.1493C15.4236 23.0729 15.4045 23.0151 15.4045 23.0151C15.4045 23.0151 15.2712 22.996 15.1572 22.8813C15.0425 22.7664 15.0235 22.8813 15.0235 22.8813C15.0235 22.8813 14.9282 22.824 14.7569 22.7087C14.6938 22.6664 14.6772 22.6553 14.6785 22.6524C14.6808 22.6473 14.7359 22.6664 14.6998 22.5939C14.6672 22.5285 14.6471 22.5502 14.6251 22.5738C14.6086 22.5915 14.5911 22.6104 14.5665 22.5939C14.5465 22.5805 14.5242 22.5742 14.4981 22.5667C14.4492 22.5527 14.3866 22.5348 14.2995 22.46C14.2329 22.4027 14.2329 22.4027 14.2376 22.4098C14.2424 22.417 14.2519 22.4313 14.2044 22.4027C14.1496 22.3697 14.1642 22.3493 14.1828 22.3233C14.1965 22.3042 14.2124 22.2821 14.2044 22.2496C14.1854 22.173 14.1092 22.0964 14.1092 22.0964L14.0521 22.0582C13.9949 22.02 13.8946 21.7902 13.8946 21.7902C13.8946 21.7902 13.8234 21.5795 13.7662 21.5795C13.7091 21.5795 13.7472 21.6752 13.7472 21.6752L13.7852 21.8285C13.8013 21.893 13.8039 21.9032 13.8071 21.9034C13.8115 21.9037 13.8172 21.8849 13.8614 21.9626C13.8884 22.01 13.8964 22.0239 13.8945 22.0254C13.891 22.0282 13.8547 21.9897 13.8424 22.0392C13.8235 22.1159 13.8424 22.1542 13.8424 22.1542C13.8424 22.1542 13.8424 22.1543 13.7091 22.0968C13.6466 22.0698 13.6427 22.0681 13.6425 22.066C13.6422 22.0637 13.6466 22.0608 13.5758 22.0202C13.5705 22.0172 13.5664 22.0142 13.5622 22.0111Z" fill="#FF7B29"/>
</svg>
