<svg width="40" height="40" viewBox="0 0 40 40" fill="none" xmlns="http://www.w3.org/2000/svg">
<rect width="40" height="40" rx="6" fill="white"/>
<path fill-rule="evenodd" clip-rule="evenodd" d="M16.7059 8.6H23.2941C23.684 8.6 24 8.86863 24 9.20001V14H21.8824V13.2C21.8824 12.7582 21.461 12.4 20.9412 12.4H19.0588C18.539 12.4 18.1176 12.7582 18.1176 13.2V14H16V9.20001C16 8.86863 16.316 8.6 16.7059 8.6ZM21.1765 13.2V14H18.8235V13.2C18.8235 13.0896 18.9289 13 19.0588 13H20.9412C21.0711 13 21.1765 13.0896 21.1765 13.2ZM15.2941 14V9.20001C15.2941 8.53726 15.9262 8 16.7059 8H23.2941C24.0738 8 24.7059 8.53726 24.7059 9.20001V14H25.8824C27.0519 14 28 14.8059 28 15.8001V28.2001C28 29.1943 27.0519 30.0001 25.8824 30.0001H14.1176C12.9481 30.0001 12 29.1943 12 28.2001V15.8001C12 14.8059 12.9481 14 14.1176 14H15.2941ZM16.7059 17.6001C16.446 17.6001 16.2353 17.7791 16.2353 18.0001V26.4001C16.2353 26.621 16.446 26.8001 16.7059 26.8001C16.9658 26.8001 17.1765 26.621 17.1765 26.4001V18.0001C17.1765 17.7791 16.9658 17.6001 16.7059 17.6001ZM20 17.6001C19.7401 17.6001 19.5294 17.7791 19.5294 18.0001V26.4001C19.5294 26.621 19.7401 26.8001 20 26.8001C20.2599 26.8001 20.4706 26.621 20.4706 26.4001V18.0001C20.4706 17.7791 20.2599 17.6001 20 17.6001ZM22.8235 18.0001C22.8235 17.7791 23.0342 17.6001 23.2941 17.6001C23.554 17.6001 23.7647 17.7791 23.7647 18.0001V26.4001C23.7647 26.621 23.554 26.8001 23.2941 26.8001C23.0342 26.8001 22.8235 26.621 22.8235 26.4001V18.0001Z" fill="#FF7B29"/>
<path d="M14.2358 30.8H17.0593V31.4001C17.0593 31.7314 16.7433 32.0001 16.3534 32.0001H14.9416C14.5518 32.0001 14.2358 31.7314 14.2358 31.4001V30.8Z" fill="#FF7B29"/>
<path d="M22.9402 30.8H25.7637V31.4001C25.7637 31.7314 25.4477 32.0001 25.0578 32.0001H23.6461C23.2562 32.0001 22.9402 31.7314 22.9402 31.4001V30.8Z" fill="#FF7B29"/>
</svg>
