<svg width="40" height="40" viewBox="0 0 40 40" fill="none" xmlns="http://www.w3.org/2000/svg">
<circle cx="20" cy="20" r="19.5" transform="matrix(-1 0 0 1 40 0)" stroke="#ECECEC"/>
<path d="M14.1375 20.3425C14.1376 20.3427 14.1377 20.3428 14.1379 20.343L16.5872 22.8591C16.7707 23.0476 17.0675 23.0469 17.2502 22.8575C17.4328 22.668 17.4321 22.3617 17.2486 22.1732L15.6041 20.4839L25.5313 20.4839C25.7901 20.4839 26 20.2672 26 20C26 19.7328 25.7901 19.5161 25.5313 19.5161L15.6041 19.5161L17.2486 17.8268C17.4321 17.6383 17.4328 17.332 17.2501 17.1425C17.0675 16.9531 16.7707 16.9524 16.5872 17.1409L14.1379 19.657C14.1377 19.6572 14.1376 19.6573 14.1375 19.6575C13.9539 19.8466 13.9545 20.154 14.1375 20.3425Z" fill="#505050"/>
</svg>
