<svg width="106" height="106" viewBox="0 0 106 106" fill="none" xmlns="http://www.w3.org/2000/svg">
<path d="M53 24C49.1917 24 45.4206 24.7501 41.9022 26.2075C38.3837 27.6649 35.1868 29.801 32.4939 32.4939C29.801 35.1868 27.6649 38.3837 26.2075 41.9022C24.7501 45.4206 24 49.1917 24 53C24 56.8083 24.7501 60.5794 26.2075 64.0978C27.6649 67.6163 29.801 70.8132 32.4939 73.5061C35.1868 76.199 38.3837 78.3351 41.9022 79.7925C45.4206 81.2499 49.1917 82 53 82L53 53L53 24Z" fill="#FB9333"/>
<g filter="url(#filter0_d_41_18)">
<circle cx="53" cy="53" r="24.4688" fill="white"/>
</g>
<path d="M57.5312 53L51.4141 56.9242L51.4141 49.0758L57.5312 53Z" fill="#4D4F56"/>
<defs>
<filter id="filter0_d_41_18" x="0.53125" y="0.53125" width="104.938" height="104.938" filterUnits="userSpaceOnUse" color-interpolation-filters="sRGB">
<feFlood flood-opacity="0" result="BackgroundImageFix"/>
<feColorMatrix in="SourceAlpha" type="matrix" values="0 0 0 0 0 0 0 0 0 0 0 0 0 0 0 0 0 0 127 0" result="hardAlpha"/>
<feMorphology radius="12" operator="erode" in="SourceAlpha" result="effect1_dropShadow_41_18"/>
<feOffset/>
<feGaussianBlur stdDeviation="20"/>
<feColorMatrix type="matrix" values="0 0 0 0 0 0 0 0 0 0 0 0 0 0 0 0 0 0 0.2 0"/>
<feBlend mode="normal" in2="BackgroundImageFix" result="effect1_dropShadow_41_18"/>
<feBlend mode="normal" in="SourceGraphic" in2="effect1_dropShadow_41_18" result="shape"/>
</filter>
</defs>
</svg>
