<svg width="40" height="40" viewBox="0 0 40 40" fill="none" xmlns="http://www.w3.org/2000/svg">
<circle cx="20" cy="20" r="20" fill="#FF7B29"/>
<path d="M25.8625 19.6575C25.8624 19.6573 25.8623 19.6572 25.8621 19.657L23.4128 17.1409C23.2293 16.9524 22.9325 16.9531 22.7498 17.1425C22.5672 17.332 22.5679 17.6383 22.7514 17.8268L24.3959 19.5161H14.4687C14.2099 19.5161 14 19.7328 14 20C14 20.2672 14.2099 20.4839 14.4687 20.4839H24.3959L22.7514 22.1732C22.5679 22.3617 22.5672 22.668 22.7499 22.8575C22.9325 23.0469 23.2293 23.0476 23.4128 22.8591L25.8621 20.343C25.8623 20.3428 25.8624 20.3427 25.8625 20.3425C26.0461 20.1534 26.0455 19.846 25.8625 19.6575Z" fill="white"/>
</svg>
