<svg width="250" height="370" viewBox="0 0 250 370" fill="none" xmlns="http://www.w3.org/2000/svg">
<g filter="url(#filter0_d_1_275)">
<rect x="50" y="232" width="58" height="58" rx="12" fill="white"/>
</g>
<path d="M78.1248 267.574L76.7628 267.543C76.3294 267.543 75.958 267.261 75.8032 266.854C75.6484 266.447 75.7723 265.977 76.0818 265.695L79.2701 262.781V250.94C79.2701 250.439 78.8677 250 78.3415 250H65.9286C65.4334 250 65 250.407 65 250.94V271.835C65 272.336 65.4024 272.775 65.9286 272.775H70.2004V268.514C70.2004 268.326 70.3552 268.138 70.5719 268.138H73.7912C73.9769 268.138 74.1626 268.295 74.1626 268.514V272.743H78.3105C78.2177 272.524 78.1867 272.305 78.1867 272.086V267.574H78.1248ZM67.5073 254.981C67.5073 254.824 67.6312 254.699 67.7859 254.699H70.6647C70.8195 254.699 70.9433 254.824 70.9433 254.981V257.894C70.9433 258.051 70.8195 258.176 70.6647 258.176H67.7859C67.6312 258.176 67.5073 258.051 67.5073 257.894V254.981ZM71.0052 264.191C71.0052 264.348 70.8814 264.473 70.7266 264.473H67.8478C67.6931 264.473 67.5692 264.348 67.5692 264.191V261.278C67.5692 261.121 67.6931 260.996 67.8478 260.996H70.7266C70.8814 260.996 71.0052 261.121 71.0052 261.278V264.191ZM73.2649 254.95C73.2649 254.793 73.3887 254.668 73.5435 254.668H76.4533C76.608 254.668 76.7319 254.793 76.7319 254.95V257.863C76.7319 258.02 76.608 258.145 76.4533 258.145H73.5745C73.4197 258.145 73.2959 258.02 73.2959 257.863V254.95H73.2649ZM73.6054 264.473C73.4507 264.473 73.3268 264.348 73.3268 264.191V261.278C73.3268 261.121 73.4507 260.996 73.6054 260.996H76.4842C76.639 260.996 76.7628 261.121 76.7628 261.278V264.191C76.7628 264.348 76.639 264.473 76.4842 264.473H73.6054Z" fill="url(#paint0_linear_1_275)"/>
<path d="M90.5308 264.389V260.16H88.2402V262.259L85.2066 259.439C85.1137 259.345 84.9899 259.314 84.8661 259.314C84.7423 259.314 84.6185 259.345 84.5256 259.439L76.7869 266.488L79.1704 266.551V272.095C79.1704 272.44 79.449 272.722 79.7895 272.722H83.1945V269.558C83.1945 269.182 83.5041 268.869 83.8755 268.869H85.9186C86.29 268.869 86.5996 269.182 86.5996 269.558V272.722H89.9737C90.3142 272.722 90.5928 272.44 90.5928 272.095V266.676L92.8525 266.519L90.5308 264.389ZM86.321 265.203C86.321 265.485 86.1043 265.705 85.8257 265.705H83.9684C83.6898 265.705 83.4731 265.485 83.4731 265.203V264.702C83.4731 264.42 83.6898 264.201 83.9684 264.201H85.8257C86.1043 264.201 86.321 264.42 86.321 264.702V265.203Z" fill="url(#paint1_linear_1_275)"/>
<path d="M134.233 289V278.818H137.673C138.472 278.818 139.125 278.962 139.632 279.251C140.143 279.536 140.52 279.922 140.766 280.409C141.011 280.896 141.134 281.44 141.134 282.04C141.134 282.64 141.011 283.185 140.766 283.675C140.524 284.166 140.149 284.557 139.642 284.849C139.135 285.137 138.485 285.281 137.693 285.281H135.227V284.188H137.653C138.2 284.188 138.639 284.093 138.971 283.904C139.302 283.715 139.543 283.46 139.692 283.138C139.844 282.814 139.92 282.447 139.92 282.04C139.92 281.632 139.844 281.268 139.692 280.946C139.543 280.625 139.301 280.373 138.966 280.19C138.631 280.005 138.187 279.912 137.634 279.912H135.466V289H134.233ZM142.961 289V281.364H144.094V282.517H144.174C144.313 282.139 144.565 281.833 144.929 281.597C145.294 281.362 145.705 281.244 146.162 281.244C146.248 281.244 146.356 281.246 146.485 281.249C146.615 281.253 146.712 281.258 146.779 281.264V282.457C146.739 282.447 146.648 282.433 146.505 282.413C146.366 282.389 146.219 282.378 146.063 282.378C145.692 282.378 145.36 282.456 145.069 282.612C144.78 282.764 144.551 282.976 144.382 283.248C144.217 283.516 144.134 283.823 144.134 284.168V289H142.961ZM151.039 289.159C150.35 289.159 149.745 288.995 149.225 288.667C148.708 288.339 148.303 287.88 148.012 287.29C147.723 286.7 147.579 286.01 147.579 285.222C147.579 284.426 147.723 283.732 148.012 283.138C148.303 282.545 148.708 282.085 149.225 281.756C149.745 281.428 150.35 281.264 151.039 281.264C151.729 281.264 152.332 281.428 152.849 281.756C153.369 282.085 153.774 282.545 154.062 283.138C154.354 283.732 154.5 284.426 154.5 285.222C154.5 286.01 154.354 286.7 154.062 287.29C153.774 287.88 153.369 288.339 152.849 288.667C152.332 288.995 151.729 289.159 151.039 289.159ZM151.039 288.105C151.563 288.105 151.994 287.971 152.332 287.702C152.67 287.434 152.92 287.081 153.083 286.643C153.245 286.206 153.326 285.732 153.326 285.222C153.326 284.711 153.245 284.236 153.083 283.795C152.92 283.354 152.67 282.998 152.332 282.726C151.994 282.454 151.563 282.318 151.039 282.318C150.516 282.318 150.085 282.454 149.747 282.726C149.409 282.998 149.158 283.354 148.996 283.795C148.834 284.236 148.752 284.711 148.752 285.222C148.752 285.732 148.834 286.206 148.996 286.643C149.158 287.081 149.409 287.434 149.747 287.702C150.085 287.971 150.516 288.105 151.039 288.105ZM156.291 291.864V281.364H157.424V282.577H157.563C157.65 282.444 157.769 282.275 157.921 282.07C158.077 281.861 158.299 281.675 158.588 281.513C158.879 281.347 159.274 281.264 159.771 281.264C160.414 281.264 160.981 281.425 161.471 281.746C161.962 282.068 162.344 282.524 162.619 283.114C162.895 283.704 163.032 284.4 163.032 285.202C163.032 286.01 162.895 286.711 162.619 287.305C162.344 287.895 161.963 288.352 161.476 288.677C160.989 288.998 160.427 289.159 159.791 289.159C159.3 289.159 158.907 289.078 158.612 288.915C158.317 288.75 158.09 288.562 157.931 288.354C157.772 288.142 157.65 287.966 157.563 287.827H157.464V291.864H156.291ZM157.444 285.182C157.444 285.759 157.529 286.267 157.698 286.708C157.867 287.146 158.114 287.489 158.438 287.737C158.763 287.982 159.161 288.105 159.632 288.105C160.122 288.105 160.531 287.976 160.86 287.717C161.191 287.455 161.44 287.104 161.605 286.663C161.774 286.219 161.859 285.725 161.859 285.182C161.859 284.645 161.776 284.161 161.61 283.73C161.448 283.296 161.201 282.953 160.869 282.701C160.541 282.446 160.129 282.318 159.632 282.318C159.154 282.318 158.753 282.439 158.428 282.681C158.104 282.92 157.858 283.254 157.693 283.685C157.527 284.113 157.444 284.612 157.444 285.182ZM168.024 289.159C167.288 289.159 166.653 288.997 166.119 288.672C165.589 288.344 165.18 287.886 164.892 287.3C164.606 286.71 164.464 286.024 164.464 285.241C164.464 284.459 164.606 283.77 164.892 283.173C165.18 282.573 165.581 282.106 166.095 281.771C166.612 281.433 167.215 281.264 167.904 281.264C168.302 281.264 168.695 281.33 169.083 281.463C169.47 281.596 169.823 281.811 170.142 282.109C170.46 282.404 170.713 282.795 170.902 283.283C171.091 283.77 171.186 284.37 171.186 285.082V285.58H165.299V284.565H169.992C169.992 284.134 169.906 283.75 169.734 283.412C169.565 283.074 169.323 282.807 169.008 282.612C168.696 282.416 168.329 282.318 167.904 282.318C167.437 282.318 167.033 282.434 166.691 282.666C166.353 282.895 166.093 283.193 165.911 283.561C165.728 283.929 165.637 284.323 165.637 284.744V285.42C165.637 285.997 165.737 286.486 165.936 286.887C166.138 287.285 166.418 287.588 166.776 287.797C167.134 288.002 167.55 288.105 168.024 288.105C168.332 288.105 168.61 288.062 168.859 287.976C169.111 287.886 169.328 287.754 169.51 287.578C169.692 287.399 169.833 287.177 169.933 286.912L171.066 287.23C170.947 287.615 170.746 287.953 170.465 288.244C170.183 288.533 169.835 288.758 169.421 288.92C169.006 289.08 168.541 289.159 168.024 289.159ZM172.97 289V281.364H174.104V282.517H174.183C174.323 282.139 174.575 281.833 174.939 281.597C175.304 281.362 175.715 281.244 176.172 281.244C176.258 281.244 176.366 281.246 176.495 281.249C176.624 281.253 176.722 281.258 176.789 281.264V282.457C176.749 282.447 176.658 282.433 176.515 282.413C176.376 282.389 176.228 282.378 176.073 282.378C175.701 282.378 175.37 282.456 175.078 282.612C174.79 282.764 174.561 282.976 174.392 283.248C174.227 283.516 174.144 283.823 174.144 284.168V289H172.97ZM181.979 281.364V282.358H178.021V281.364H181.979ZM179.175 279.534H180.348V286.812C180.348 287.144 180.396 287.393 180.492 287.558C180.592 287.721 180.718 287.83 180.87 287.886C181.026 287.939 181.19 287.966 181.362 287.966C181.492 287.966 181.598 287.959 181.681 287.946C181.763 287.929 181.83 287.916 181.879 287.906L182.118 288.96C182.039 288.99 181.927 289.02 181.785 289.05C181.642 289.083 181.462 289.099 181.243 289.099C180.912 289.099 180.587 289.028 180.269 288.886C179.954 288.743 179.692 288.526 179.483 288.234C179.278 287.943 179.175 287.575 179.175 287.131V279.534ZM184.499 291.864C184.301 291.864 184.123 291.847 183.968 291.814C183.812 291.784 183.704 291.754 183.644 291.724L183.943 290.69C184.228 290.763 184.48 290.79 184.698 290.77C184.917 290.75 185.111 290.652 185.28 290.477C185.452 290.304 185.61 290.024 185.752 289.636L185.971 289.04L183.147 281.364H184.42L186.528 287.449H186.607L188.715 281.364H189.988L186.747 290.114C186.601 290.508 186.42 290.835 186.205 291.093C185.989 291.355 185.739 291.549 185.454 291.675C185.172 291.801 184.854 291.864 184.499 291.864ZM195.633 289V278.818H199.193C199.902 278.818 200.487 278.941 200.948 279.186C201.409 279.428 201.752 279.754 201.977 280.165C202.202 280.573 202.315 281.026 202.315 281.523C202.315 281.96 202.237 282.321 202.081 282.607C201.929 282.892 201.727 283.117 201.475 283.283C201.226 283.448 200.956 283.571 200.665 283.651V283.75C200.976 283.77 201.289 283.879 201.604 284.078C201.919 284.277 202.183 284.562 202.395 284.933C202.607 285.304 202.713 285.759 202.713 286.295C202.713 286.806 202.597 287.265 202.365 287.673C202.133 288.08 201.767 288.403 201.266 288.642C200.766 288.881 200.114 289 199.312 289H195.633ZM196.866 287.906H199.312C200.118 287.906 200.689 287.75 201.028 287.439C201.369 287.124 201.54 286.743 201.54 286.295C201.54 285.951 201.452 285.633 201.276 285.341C201.1 285.046 200.85 284.811 200.525 284.635C200.201 284.456 199.816 284.366 199.372 284.366H196.866V287.906ZM196.866 283.293H199.153C199.524 283.293 199.859 283.22 200.157 283.074C200.459 282.928 200.698 282.723 200.873 282.457C201.052 282.192 201.142 281.881 201.142 281.523C201.142 281.075 200.986 280.696 200.675 280.384C200.363 280.069 199.869 279.912 199.193 279.912H196.866V283.293ZM209.392 285.878V281.364H210.566V289H209.392V287.707H209.313C209.134 288.095 208.855 288.425 208.477 288.697C208.1 288.965 207.622 289.099 207.046 289.099C206.568 289.099 206.144 288.995 205.773 288.786C205.402 288.574 205.11 288.256 204.898 287.832C204.686 287.404 204.58 286.866 204.58 286.216V281.364H205.753V286.136C205.753 286.693 205.909 287.137 206.22 287.469C206.535 287.8 206.936 287.966 207.423 287.966C207.715 287.966 208.012 287.891 208.313 287.742C208.618 287.593 208.874 287.364 209.079 287.056C209.288 286.748 209.392 286.355 209.392 285.878ZM212.714 289V281.364H213.888V289H212.714ZM213.311 280.091C213.082 280.091 212.885 280.013 212.719 279.857C212.557 279.701 212.476 279.514 212.476 279.295C212.476 279.077 212.557 278.889 212.719 278.734C212.885 278.578 213.082 278.5 213.311 278.5C213.54 278.5 213.735 278.578 213.898 278.734C214.063 278.889 214.146 279.077 214.146 279.295C214.146 279.514 214.063 279.701 213.898 279.857C213.735 280.013 213.54 280.091 213.311 280.091ZM217.21 278.818V289H216.037V278.818H217.21ZM222.243 289.159C221.606 289.159 221.044 288.998 220.557 288.677C220.07 288.352 219.689 287.895 219.414 287.305C219.139 286.711 219.001 286.01 219.001 285.202C219.001 284.4 219.139 283.704 219.414 283.114C219.689 282.524 220.072 282.068 220.562 281.746C221.053 281.425 221.619 281.264 222.262 281.264C222.76 281.264 223.152 281.347 223.441 281.513C223.732 281.675 223.954 281.861 224.107 282.07C224.263 282.275 224.384 282.444 224.47 282.577H224.569V278.818H225.743V289H224.609V287.827H224.47C224.384 287.966 224.261 288.142 224.102 288.354C223.943 288.562 223.716 288.75 223.421 288.915C223.126 289.078 222.733 289.159 222.243 289.159ZM222.402 288.105C222.872 288.105 223.27 287.982 223.595 287.737C223.92 287.489 224.167 287.146 224.336 286.708C224.505 286.267 224.589 285.759 224.589 285.182C224.589 284.612 224.506 284.113 224.341 283.685C224.175 283.254 223.93 282.92 223.605 282.681C223.28 282.439 222.879 282.318 222.402 282.318C221.904 282.318 221.49 282.446 221.159 282.701C220.831 282.953 220.584 283.296 220.418 283.73C220.256 284.161 220.174 284.645 220.174 285.182C220.174 285.725 220.257 286.219 220.423 286.663C220.592 287.104 220.841 287.455 221.169 287.717C221.5 287.976 221.911 288.105 222.402 288.105Z" fill="#777F8B"/>
<path d="M135.536 261L144.335 243.571V243.433H134.044V239.182H149.79V243.464L140.958 261H135.536ZM152.685 261V257.207L160.643 250.24C161.24 249.7 161.747 249.207 162.166 248.759C162.585 248.305 162.905 247.85 163.125 247.396C163.345 246.934 163.455 246.433 163.455 245.893C163.455 245.29 163.324 244.775 163.061 244.349C162.798 243.915 162.436 243.582 161.975 243.347C161.513 243.113 160.984 242.996 160.387 242.996C159.784 242.996 159.254 243.12 158.8 243.369C158.345 243.61 157.99 243.962 157.735 244.423C157.486 244.885 157.362 245.446 157.362 246.107H152.365C152.365 244.622 152.699 243.34 153.367 242.261C154.034 241.181 154.972 240.35 156.179 239.768C157.394 239.178 158.803 238.884 160.409 238.884C162.063 238.884 163.502 239.161 164.723 239.714C165.945 240.268 166.889 241.043 167.557 242.037C168.232 243.024 168.569 244.171 168.569 245.478C168.569 246.309 168.402 247.133 168.068 247.95C167.735 248.766 167.134 249.668 166.268 250.656C165.409 251.643 164.187 252.825 162.603 254.203L159.993 256.611V256.749H168.835V261H152.685ZM180.168 261.298C178.577 261.298 177.164 261.011 175.928 260.435C174.692 259.86 173.716 259.068 172.998 258.06C172.288 257.051 171.919 255.893 171.89 254.587H177.004C177.047 255.389 177.373 256.036 177.984 256.526C178.595 257.009 179.323 257.25 180.168 257.25C180.828 257.25 181.414 257.104 181.926 256.813C182.437 256.522 182.838 256.114 183.13 255.588C183.421 255.055 183.563 254.445 183.556 253.756C183.563 253.053 183.417 252.438 183.119 251.913C182.828 251.387 182.423 250.979 181.904 250.688C181.393 250.389 180.804 250.24 180.136 250.24C179.504 250.233 178.904 250.371 178.336 250.656C177.775 250.94 177.348 251.327 177.057 251.817L172.402 250.943L173.35 239.182H187.348V243.433H177.686L177.185 248.578H177.313C177.675 247.974 178.257 247.477 179.06 247.087C179.87 246.689 180.789 246.49 181.819 246.49C183.126 246.49 184.291 246.795 185.314 247.406C186.343 248.01 187.153 248.848 187.743 249.92C188.339 250.993 188.637 252.222 188.637 253.607C188.637 255.105 188.282 256.433 187.572 257.591C186.869 258.749 185.882 259.658 184.61 260.318C183.346 260.972 181.865 261.298 180.168 261.298ZM198.074 257.847V242.42H202.367V257.847H198.074ZM192.502 252.286V247.982H207.928V252.286H192.502Z" fill="#0A192D"/>
<g filter="url(#filter1_d_1_275)">
<rect x="50" y="126" width="58" height="58" rx="12" fill="white"/>
</g>
<path fill-rule="evenodd" clip-rule="evenodd" d="M72.5453 142H86.1407C86.7038 142 87.1865 142.488 87.1865 143.058V145.012C92.1741 145.826 91.6914 154.538 86.6233 154.619C85.4971 157.061 83.3251 158.527 80.9921 159.015V163.33H82.7619C83.0837 163.33 83.3251 163.656 83.4055 163.982L84.21 167.157C84.2904 167.482 83.8882 167.808 83.5664 167.808H75.2C74.7978 167.808 74.3956 167.482 74.476 167.157L75.2805 163.982C75.4414 163.656 75.6023 163.33 76.0045 163.33H77.6939V159.015C75.3609 158.527 73.1889 157.061 72.0626 154.619C66.9946 154.538 66.5119 145.826 71.4995 145.012V143.058C71.4995 142.488 71.9822 142 72.5453 142ZM79.705 146.152L80.5095 148.513H83.0837C83.9686 148.513 83.9686 148.757 83.2446 149.246L81.2335 150.711L82.0379 153.235C82.2793 154.049 82.0379 154.131 81.3944 153.642L79.3832 152.177L77.2916 153.642C76.5676 154.212 76.4872 154.049 76.7285 153.235L77.533 150.793L75.4414 149.246C74.7174 148.757 74.8782 148.513 75.6827 148.594H78.1765L78.981 146.071C79.2223 145.257 79.4637 145.338 79.705 146.152ZM87.1865 152.991V146.559C89.8412 147.373 89.8412 152.177 87.1865 152.991ZM71.4995 152.991V146.559C68.8448 147.373 68.8448 152.177 71.4995 152.991Z" fill="url(#paint2_linear_1_275)"/>
<path d="M129.651 183H128.358L132.097 172.818H133.369L137.108 183H135.815L132.773 174.429H132.693L129.651 183ZM130.128 179.023H135.338V180.116H130.128V179.023ZM139.308 183L136.981 175.364H138.214L139.865 181.21H139.944L141.575 175.364H142.828L144.439 181.19H144.518L146.169 175.364H147.402L145.075 183H143.922L142.251 177.134H142.132L140.461 183H139.308ZM151.2 183.179C150.716 183.179 150.277 183.088 149.882 182.906C149.488 182.72 149.175 182.453 148.943 182.105C148.711 181.754 148.595 181.33 148.595 180.832C148.595 180.395 148.681 180.04 148.853 179.768C149.026 179.493 149.256 179.278 149.544 179.122C149.833 178.966 150.151 178.85 150.499 178.774C150.85 178.695 151.203 178.632 151.558 178.585C152.022 178.526 152.398 178.481 152.686 178.451C152.978 178.418 153.19 178.363 153.323 178.287C153.459 178.211 153.527 178.078 153.527 177.889V177.849C153.527 177.359 153.392 176.978 153.124 176.706C152.859 176.434 152.456 176.298 151.916 176.298C151.356 176.298 150.917 176.421 150.598 176.666C150.28 176.911 150.056 177.173 149.927 177.452L148.814 177.054C149.012 176.59 149.278 176.229 149.609 175.97C149.944 175.708 150.308 175.526 150.703 175.423C151.1 175.317 151.492 175.264 151.876 175.264C152.121 175.264 152.403 175.294 152.721 175.354C153.043 175.41 153.353 175.528 153.651 175.707C153.953 175.886 154.203 176.156 154.402 176.517C154.6 176.878 154.7 177.362 154.7 177.969V183H153.527V181.966H153.467C153.387 182.132 153.255 182.309 153.069 182.498C152.884 182.687 152.637 182.848 152.328 182.98C152.02 183.113 151.644 183.179 151.2 183.179ZM151.379 182.125C151.843 182.125 152.234 182.034 152.552 181.852C152.874 181.669 153.116 181.434 153.278 181.146C153.444 180.857 153.527 180.554 153.527 180.236V179.162C153.477 179.222 153.368 179.276 153.199 179.326C153.033 179.372 152.841 179.414 152.622 179.45C152.406 179.483 152.196 179.513 151.99 179.54C151.788 179.563 151.624 179.583 151.498 179.599C151.193 179.639 150.908 179.704 150.643 179.793C150.381 179.879 150.169 180.01 150.007 180.186C149.848 180.358 149.768 180.594 149.768 180.892C149.768 181.3 149.919 181.608 150.221 181.817C150.525 182.022 150.912 182.125 151.379 182.125ZM156.841 183V175.364H157.975V176.517H158.055C158.194 176.139 158.446 175.833 158.81 175.597C159.175 175.362 159.586 175.244 160.043 175.244C160.129 175.244 160.237 175.246 160.366 175.249C160.496 175.253 160.593 175.258 160.66 175.264V176.457C160.62 176.447 160.529 176.433 160.386 176.413C160.247 176.389 160.099 176.378 159.944 176.378C159.573 176.378 159.241 176.456 158.949 176.612C158.661 176.764 158.432 176.976 158.263 177.248C158.098 177.516 158.015 177.823 158.015 178.168V183H156.841ZM164.702 183.159C164.065 183.159 163.503 182.998 163.016 182.677C162.529 182.352 162.148 181.895 161.873 181.305C161.598 180.711 161.46 180.01 161.46 179.202C161.46 178.4 161.598 177.704 161.873 177.114C162.148 176.524 162.531 176.068 163.021 175.746C163.512 175.425 164.078 175.264 164.721 175.264C165.219 175.264 165.611 175.347 165.9 175.513C166.191 175.675 166.413 175.861 166.566 176.07C166.722 176.275 166.843 176.444 166.929 176.577H167.028V172.818H168.202V183H167.068V181.827H166.929C166.843 181.966 166.72 182.142 166.561 182.354C166.402 182.562 166.175 182.75 165.88 182.915C165.585 183.078 165.192 183.159 164.702 183.159ZM164.861 182.105C165.331 182.105 165.729 181.982 166.054 181.737C166.379 181.489 166.626 181.146 166.795 180.708C166.964 180.267 167.048 179.759 167.048 179.182C167.048 178.612 166.965 178.113 166.8 177.685C166.634 177.254 166.389 176.92 166.064 176.681C165.739 176.439 165.338 176.318 164.861 176.318C164.363 176.318 163.949 176.446 163.618 176.701C163.29 176.953 163.043 177.296 162.877 177.73C162.715 178.161 162.633 178.645 162.633 179.182C162.633 179.725 162.716 180.219 162.882 180.663C163.051 181.104 163.3 181.455 163.628 181.717C163.959 181.976 164.37 182.105 164.861 182.105ZM175.922 177.074L174.868 177.372C174.802 177.196 174.704 177.026 174.575 176.86C174.449 176.691 174.277 176.552 174.058 176.442C173.839 176.333 173.559 176.278 173.218 176.278C172.751 176.278 172.361 176.386 172.05 176.602C171.741 176.814 171.587 177.084 171.587 177.412C171.587 177.704 171.693 177.934 171.905 178.103C172.117 178.272 172.449 178.413 172.9 178.526L174.033 178.804C174.716 178.97 175.225 179.223 175.559 179.565C175.894 179.903 176.062 180.339 176.062 180.872C176.062 181.31 175.936 181.701 175.684 182.045C175.435 182.39 175.087 182.662 174.64 182.861C174.192 183.06 173.672 183.159 173.079 183.159C172.3 183.159 171.655 182.99 171.145 182.652C170.634 182.314 170.311 181.82 170.175 181.17L171.289 180.892C171.395 181.303 171.595 181.611 171.89 181.817C172.189 182.022 172.578 182.125 173.059 182.125C173.606 182.125 174.04 182.009 174.361 181.777C174.686 181.542 174.849 181.26 174.849 180.932C174.849 180.667 174.756 180.445 174.57 180.266C174.385 180.083 174.099 179.947 173.715 179.858L172.442 179.56C171.743 179.394 171.229 179.137 170.901 178.789C170.576 178.438 170.414 177.999 170.414 177.472C170.414 177.041 170.535 176.66 170.777 176.328C171.022 175.997 171.355 175.737 171.776 175.548C172.2 175.359 172.681 175.264 173.218 175.264C173.974 175.264 174.567 175.43 174.998 175.761C175.432 176.093 175.74 176.53 175.922 177.074ZM188.885 176C188.775 175.665 188.631 175.365 188.452 175.1C188.276 174.832 188.066 174.603 187.821 174.414C187.579 174.225 187.304 174.081 186.995 173.982C186.687 173.882 186.349 173.832 185.981 173.832C185.378 173.832 184.829 173.988 184.336 174.3C183.842 174.611 183.449 175.07 183.157 175.677C182.866 176.283 182.72 177.027 182.72 177.909C182.72 178.791 182.867 179.535 183.162 180.141C183.457 180.748 183.857 181.207 184.36 181.518C184.864 181.83 185.431 181.986 186.061 181.986C186.644 181.986 187.158 181.862 187.602 181.613C188.049 181.361 188.397 181.006 188.646 180.549C188.898 180.088 189.024 179.546 189.024 178.923L189.402 179.003H186.339V177.909H190.217V179.003C190.217 179.841 190.038 180.571 189.68 181.19C189.325 181.81 188.835 182.291 188.208 182.632C187.585 182.97 186.869 183.139 186.061 183.139C185.159 183.139 184.367 182.927 183.684 182.503C183.005 182.079 182.475 181.475 182.093 180.693C181.716 179.911 181.527 178.983 181.527 177.909C181.527 177.104 181.634 176.379 181.85 175.737C182.069 175.09 182.377 174.54 182.775 174.086C183.172 173.632 183.643 173.284 184.186 173.042C184.73 172.8 185.328 172.679 185.981 172.679C186.518 172.679 187.019 172.76 187.483 172.923C187.95 173.082 188.366 173.309 188.73 173.604C189.098 173.895 189.405 174.245 189.65 174.653C189.895 175.057 190.065 175.506 190.157 176H188.885ZM194.417 183.179C193.933 183.179 193.494 183.088 193.099 182.906C192.705 182.72 192.392 182.453 192.16 182.105C191.928 181.754 191.812 181.33 191.812 180.832C191.812 180.395 191.898 180.04 192.07 179.768C192.242 179.493 192.473 179.278 192.761 179.122C193.05 178.966 193.368 178.85 193.716 178.774C194.067 178.695 194.42 178.632 194.775 178.585C195.239 178.526 195.615 178.481 195.903 178.451C196.195 178.418 196.407 178.363 196.54 178.287C196.675 178.211 196.743 178.078 196.743 177.889V177.849C196.743 177.359 196.609 176.978 196.341 176.706C196.076 176.434 195.673 176.298 195.133 176.298C194.573 176.298 194.133 176.421 193.815 176.666C193.497 176.911 193.273 177.173 193.144 177.452L192.03 177.054C192.229 176.59 192.494 176.229 192.826 175.97C193.161 175.708 193.525 175.526 193.92 175.423C194.317 175.317 194.708 175.264 195.093 175.264C195.338 175.264 195.62 175.294 195.938 175.354C196.26 175.41 196.569 175.528 196.868 175.707C197.169 175.886 197.42 176.156 197.618 176.517C197.817 176.878 197.917 177.362 197.917 177.969V183H196.743V181.966H196.684C196.604 182.132 196.472 182.309 196.286 182.498C196.1 182.687 195.854 182.848 195.545 182.98C195.237 183.113 194.861 183.179 194.417 183.179ZM194.596 182.125C195.06 182.125 195.451 182.034 195.769 181.852C196.09 181.669 196.332 181.434 196.495 181.146C196.661 180.857 196.743 180.554 196.743 180.236V179.162C196.694 179.222 196.584 179.276 196.415 179.326C196.25 179.372 196.057 179.414 195.839 179.45C195.623 179.483 195.413 179.513 195.207 179.54C195.005 179.563 194.841 179.583 194.715 179.599C194.41 179.639 194.125 179.704 193.86 179.793C193.598 179.879 193.386 180.01 193.224 180.186C193.064 180.358 192.985 180.594 192.985 180.892C192.985 181.3 193.136 181.608 193.437 181.817C193.742 182.022 194.128 182.125 194.596 182.125ZM200.058 183V175.364H201.232V183H200.058ZM200.655 174.091C200.426 174.091 200.229 174.013 200.063 173.857C199.901 173.701 199.82 173.514 199.82 173.295C199.82 173.077 199.901 172.889 200.063 172.734C200.229 172.578 200.426 172.5 200.655 172.5C200.884 172.5 201.079 172.578 201.241 172.734C201.407 172.889 201.49 173.077 201.49 173.295C201.49 173.514 201.407 173.701 201.241 173.857C201.079 174.013 200.884 174.091 200.655 174.091ZM204.554 178.406V183H203.381V175.364H204.514V176.557H204.613C204.792 176.169 205.064 175.857 205.429 175.622C205.793 175.384 206.264 175.264 206.841 175.264C207.358 175.264 207.81 175.37 208.198 175.582C208.586 175.791 208.887 176.109 209.103 176.537C209.318 176.961 209.426 177.498 209.426 178.148V183H208.253V178.227C208.253 177.627 208.097 177.16 207.785 176.825C207.474 176.487 207.046 176.318 206.503 176.318C206.128 176.318 205.793 176.399 205.498 176.562C205.207 176.724 204.976 176.961 204.807 177.273C204.638 177.584 204.554 177.962 204.554 178.406ZM214.772 183.159C214.036 183.159 213.401 182.997 212.868 182.672C212.337 182.344 211.928 181.886 211.64 181.3C211.355 180.71 211.212 180.024 211.212 179.241C211.212 178.459 211.355 177.77 211.64 177.173C211.928 176.573 212.329 176.106 212.843 175.771C213.36 175.433 213.963 175.264 214.652 175.264C215.05 175.264 215.443 175.33 215.831 175.463C216.218 175.596 216.571 175.811 216.89 176.109C217.208 176.404 217.461 176.795 217.65 177.283C217.839 177.77 217.934 178.37 217.934 179.082V179.58H212.047V178.565H216.74C216.74 178.134 216.654 177.75 216.482 177.412C216.313 177.074 216.071 176.807 215.756 176.612C215.444 176.416 215.077 176.318 214.652 176.318C214.185 176.318 213.781 176.434 213.439 176.666C213.101 176.895 212.841 177.193 212.659 177.561C212.476 177.929 212.385 178.323 212.385 178.744V179.42C212.385 179.997 212.485 180.486 212.684 180.887C212.886 181.285 213.166 181.588 213.524 181.797C213.882 182.002 214.298 182.105 214.772 182.105C215.08 182.105 215.358 182.062 215.607 181.976C215.859 181.886 216.076 181.754 216.258 181.578C216.44 181.399 216.581 181.177 216.681 180.912L217.814 181.23C217.695 181.615 217.494 181.953 217.213 182.244C216.931 182.533 216.583 182.758 216.169 182.92C215.754 183.08 215.289 183.159 214.772 183.159ZM222.602 183.159C221.966 183.159 221.404 182.998 220.917 182.677C220.429 182.352 220.048 181.895 219.773 181.305C219.498 180.711 219.36 180.01 219.36 179.202C219.36 178.4 219.498 177.704 219.773 177.114C220.048 176.524 220.431 176.068 220.922 175.746C221.412 175.425 221.979 175.264 222.622 175.264C223.119 175.264 223.512 175.347 223.8 175.513C224.092 175.675 224.314 175.861 224.466 176.07C224.622 176.275 224.743 176.444 224.829 176.577H224.929V172.818H226.102V183H224.968V181.827H224.829C224.743 181.966 224.62 182.142 224.461 182.354C224.302 182.562 224.075 182.75 223.78 182.915C223.485 183.078 223.092 183.159 222.602 183.159ZM222.761 182.105C223.232 182.105 223.629 181.982 223.954 181.737C224.279 181.489 224.526 181.146 224.695 180.708C224.864 180.267 224.949 179.759 224.949 179.182C224.949 178.612 224.866 178.113 224.7 177.685C224.534 177.254 224.289 176.92 223.964 176.681C223.639 176.439 223.238 176.318 222.761 176.318C222.264 176.318 221.85 176.446 221.518 176.701C221.19 176.953 220.943 177.296 220.777 177.73C220.615 178.161 220.534 178.645 220.534 179.182C220.534 179.725 220.617 180.219 220.782 180.663C220.951 181.104 221.2 181.455 221.528 181.717C221.859 181.976 222.27 182.105 222.761 182.105Z" fill="#777F8B"/>
<path d="M129.609 155V151.207L137.567 144.24C138.163 143.7 138.671 143.207 139.09 142.759C139.509 142.305 139.829 141.85 140.049 141.396C140.269 140.934 140.379 140.433 140.379 139.893C140.379 139.29 140.248 138.775 139.985 138.349C139.722 137.915 139.36 137.582 138.898 137.347C138.437 137.113 137.908 136.996 137.311 136.996C136.707 136.996 136.178 137.12 135.724 137.369C135.269 137.61 134.914 137.962 134.658 138.423C134.41 138.885 134.286 139.446 134.286 140.107H129.289C129.289 138.622 129.623 137.34 130.29 136.261C130.958 135.181 131.896 134.35 133.103 133.768C134.317 133.178 135.727 132.884 137.332 132.884C138.987 132.884 140.425 133.161 141.647 133.714C142.869 134.268 143.813 135.043 144.481 136.037C145.156 137.024 145.493 138.171 145.493 139.478C145.493 140.309 145.326 141.133 144.992 141.95C144.658 142.766 144.058 143.668 143.192 144.656C142.332 145.643 141.111 146.825 139.527 148.203L136.917 150.611V150.749H145.759V155H129.609ZM156.953 132.884C158.146 132.884 159.286 133.079 160.373 133.469C161.46 133.853 162.429 134.467 163.281 135.312C164.134 136.151 164.805 137.255 165.295 138.626C165.785 139.996 166.03 141.669 166.03 143.643C166.037 145.462 165.824 147.092 165.391 148.533C164.958 149.968 164.336 151.19 163.526 152.198C162.724 153.207 161.758 153.977 160.629 154.51C159.499 155.036 158.239 155.298 156.847 155.298C155.313 155.298 153.96 155.004 152.788 154.414C151.623 153.817 150.689 153.015 149.986 152.006C149.29 150.998 148.874 149.869 148.74 148.619H153.928C154.091 149.343 154.436 149.89 154.961 150.259C155.487 150.621 156.115 150.803 156.847 150.803C158.182 150.803 159.18 150.224 159.84 149.066C160.501 147.908 160.831 146.335 160.831 144.347H160.703C160.398 145 159.965 145.561 159.404 146.03C158.85 146.499 158.207 146.857 157.475 147.106C156.744 147.354 155.973 147.479 155.164 147.479C153.857 147.479 152.703 147.18 151.701 146.584C150.707 145.987 149.926 145.167 149.357 144.123C148.796 143.079 148.512 141.886 148.505 140.543C148.498 139.038 148.85 137.71 149.56 136.559C150.27 135.401 151.261 134.499 152.532 133.853C153.803 133.2 155.277 132.876 156.953 132.884ZM156.985 136.932C156.332 136.932 155.749 137.085 155.238 137.39C154.734 137.695 154.336 138.107 154.045 138.626C153.754 139.144 153.612 139.727 153.619 140.373C153.626 141.019 153.771 141.602 154.056 142.12C154.347 142.638 154.741 143.05 155.238 143.356C155.742 143.661 156.318 143.814 156.964 143.814C157.447 143.814 157.894 143.725 158.306 143.548C158.718 143.37 159.077 143.125 159.382 142.812C159.688 142.493 159.926 142.124 160.096 141.705C160.274 141.286 160.359 140.838 160.352 140.362C160.345 139.73 160.195 139.155 159.904 138.636C159.613 138.118 159.212 137.706 158.7 137.401C158.196 137.088 157.624 136.932 156.985 136.932Z" fill="#0A192D"/>
<g filter="url(#filter2_d_1_275)">
<rect x="50" y="20" width="58" height="58" rx="12" fill="white"/>
</g>
<path d="M90.7469 51.6159L88.6001 48.3146C88.4886 48.1171 88.4329 47.8914 88.405 47.6657C88.0425 43.6026 84.892 40.3578 80.8772 39.9628C80.9609 40.8092 80.6263 41.6557 79.9851 42.22L78.5631 43.4333L79.0092 45.2673C79.2044 46.0574 79.0092 46.8756 78.5074 47.5246C78.0055 48.1453 77.2528 48.5404 76.4442 48.5404C75.9703 48.5404 75.4963 48.4275 75.0781 48.1736L73.4889 47.186L71.9276 48.1736C71.8718 48.23 71.7882 48.2582 71.7045 48.2864C71.7045 48.3428 71.7045 48.3711 71.7045 48.4275C71.7045 51.2209 73.0149 53.9296 75.0781 55.7072C75.329 55.9329 75.4684 56.215 75.4684 56.5536V62.0275C75.4684 62.4225 75.7751 62.7329 76.1375 62.7611H83.3586C83.8047 62.7893 84.1671 62.4507 84.1671 62.0275V58.5852C84.1671 58.3594 84.3623 58.1901 84.5575 58.1901H87.0667C87.8474 58.1901 88.4607 57.5412 88.4607 56.7794V53.337C88.4607 53.196 88.5723 53.0549 88.7395 53.0549H89.9663C90.7191 53.0831 91.1651 52.2366 90.7469 51.6159Z" fill="url(#paint3_linear_1_275)"/>
<path d="M73.9636 45.2618L76.0825 46.5597C76.668 46.9265 77.4207 46.3905 77.2535 45.7133L76.668 43.2867C76.6122 43.0046 76.6959 42.6942 76.9189 42.4967L78.8148 40.8602C79.3445 40.4087 79.0657 39.534 78.3687 39.4776L75.8873 39.2801C75.6085 39.2519 75.3297 39.0826 75.2182 38.8004L74.2703 36.4867C73.9915 35.8378 73.0993 35.8378 72.8205 36.4867L71.8725 38.8004C71.761 39.0826 71.5101 39.2519 71.2034 39.2801L68.7221 39.4776C68.025 39.5058 67.7462 40.3805 68.276 40.8319L70.1718 42.4685C70.3949 42.666 70.4785 42.9763 70.4228 43.2585L69.8373 45.7133C69.67 46.3905 70.4228 46.9265 71.0082 46.5597L73.1272 45.2618C73.406 45.1207 73.7126 45.1207 73.9636 45.2618Z" fill="url(#paint4_linear_1_275)"/>
<path d="M128.358 66.8182H129.77L132.594 71.571H132.713L135.537 66.8182H136.949L133.27 72.804V77H132.037V72.804L128.358 66.8182ZM140.506 77.1591C139.77 77.1591 139.136 76.9967 138.602 76.6719C138.072 76.3438 137.662 75.8864 137.374 75.2997C137.089 74.7098 136.946 74.0237 136.946 73.2415C136.946 72.4593 137.089 71.7699 137.374 71.1733C137.662 70.5734 138.063 70.1061 138.577 69.7713C139.094 69.4332 139.697 69.2642 140.387 69.2642C140.784 69.2642 141.177 69.3305 141.565 69.4631C141.953 69.5956 142.306 69.8111 142.624 70.1094C142.942 70.4044 143.196 70.7955 143.385 71.2827C143.574 71.7699 143.668 72.3698 143.668 73.0824V73.5795H137.782V72.5653H142.475C142.475 72.1345 142.389 71.75 142.216 71.4119C142.047 71.0739 141.805 70.8071 141.49 70.6115C141.179 70.416 140.811 70.3182 140.387 70.3182C139.919 70.3182 139.515 70.4342 139.174 70.6662C138.836 70.8949 138.575 71.1932 138.393 71.5611C138.211 71.929 138.12 72.3234 138.12 72.7443V73.4205C138.12 73.9972 138.219 74.486 138.418 74.8871C138.62 75.2848 138.9 75.5881 139.258 75.7969C139.616 76.0024 140.032 76.1051 140.506 76.1051C140.814 76.1051 141.093 76.062 141.341 75.9759C141.593 75.8864 141.81 75.7538 141.993 75.5781C142.175 75.3991 142.316 75.1771 142.415 74.9119L143.549 75.2301C143.429 75.6146 143.229 75.9527 142.947 76.2443C142.665 76.5327 142.317 76.758 141.903 76.9205C141.489 77.0795 141.023 77.1591 140.506 77.1591ZM147.7 77.179C147.216 77.179 146.777 77.0878 146.382 76.9055C145.988 76.7199 145.675 76.4531 145.443 76.1051C145.211 75.7538 145.095 75.3295 145.095 74.8324C145.095 74.3949 145.181 74.0402 145.353 73.7685C145.526 73.4934 145.756 73.2779 146.044 73.1222C146.333 72.9664 146.651 72.8504 146.999 72.7741C147.35 72.6946 147.703 72.6316 148.058 72.5852C148.522 72.5256 148.898 72.4808 149.186 72.451C149.478 72.4179 149.69 72.3632 149.823 72.2869C149.959 72.2107 150.027 72.0781 150.027 71.8892V71.8494C150.027 71.3589 149.892 70.9777 149.624 70.706C149.359 70.4342 148.956 70.2983 148.416 70.2983C147.856 70.2983 147.417 70.4209 147.098 70.6662C146.78 70.9115 146.556 71.1733 146.427 71.4517L145.314 71.054C145.512 70.59 145.778 70.2287 146.109 69.9702C146.444 69.7083 146.808 69.526 147.203 69.4233C147.6 69.3172 147.992 69.2642 148.376 69.2642C148.621 69.2642 148.903 69.294 149.221 69.3537C149.543 69.41 149.853 69.5277 150.151 69.7067C150.453 69.8857 150.703 70.1558 150.902 70.517C151.1 70.8783 151.2 71.3622 151.2 71.9688V77H150.027V75.9659H149.967C149.887 76.1316 149.755 76.3089 149.569 76.4979C149.384 76.6868 149.137 76.8475 148.828 76.9801C148.52 77.1127 148.144 77.179 147.7 77.179ZM147.879 76.125C148.343 76.125 148.734 76.0339 149.052 75.8516C149.374 75.6693 149.616 75.4339 149.778 75.1456C149.944 74.8572 150.027 74.554 150.027 74.2358V73.1619C149.977 73.2216 149.868 73.2763 149.699 73.326C149.533 73.3724 149.341 73.4138 149.122 73.4503C148.906 73.4834 148.696 73.5133 148.49 73.5398C148.288 73.563 148.124 73.5829 147.998 73.5994C147.693 73.6392 147.408 73.7038 147.143 73.7933C146.881 73.8795 146.669 74.0104 146.507 74.1861C146.348 74.3584 146.268 74.5937 146.268 74.892C146.268 75.2997 146.419 75.608 146.721 75.8168C147.025 76.0223 147.412 76.125 147.879 76.125ZM153.341 77V69.3636H154.475V70.517H154.555C154.694 70.1392 154.946 69.8326 155.31 69.5973C155.675 69.362 156.086 69.2443 156.543 69.2443C156.629 69.2443 156.737 69.246 156.866 69.2493C156.996 69.2526 157.093 69.2576 157.16 69.2642V70.4574C157.12 70.4474 157.029 70.4325 156.886 70.4126C156.747 70.3894 156.599 70.3778 156.444 70.3778C156.073 70.3778 155.741 70.4557 155.449 70.6115C155.161 70.764 154.932 70.9761 154.763 71.2479C154.598 71.5163 154.515 71.8229 154.515 72.1676V77H153.341ZM163.96 71.0739L162.906 71.3722C162.839 71.1965 162.741 71.0258 162.612 70.8601C162.486 70.6911 162.314 70.5518 162.095 70.4425C161.876 70.3331 161.596 70.2784 161.255 70.2784C160.788 70.2784 160.398 70.3861 160.087 70.6016C159.778 70.8137 159.624 71.0838 159.624 71.4119C159.624 71.7036 159.73 71.9339 159.942 72.103C160.155 72.272 160.486 72.4129 160.937 72.5256L162.07 72.804C162.753 72.9697 163.262 73.2232 163.597 73.5646C163.931 73.9027 164.099 74.3385 164.099 74.8722C164.099 75.3097 163.973 75.7008 163.721 76.0455C163.472 76.3902 163.124 76.6619 162.677 76.8608C162.229 77.0597 161.709 77.1591 161.116 77.1591C160.337 77.1591 159.692 76.9901 159.182 76.652C158.671 76.3139 158.348 75.8201 158.212 75.1705L159.326 74.892C159.432 75.303 159.633 75.6113 159.928 75.8168C160.226 76.0223 160.615 76.125 161.096 76.125C161.643 76.125 162.077 76.009 162.398 75.777C162.723 75.5417 162.886 75.2599 162.886 74.9318C162.886 74.6667 162.793 74.4446 162.607 74.2656C162.422 74.0833 162.137 73.9474 161.752 73.858L160.479 73.5597C159.78 73.3939 159.266 73.1371 158.938 72.7891C158.613 72.4377 158.451 71.9986 158.451 71.4716C158.451 71.0407 158.572 70.6596 158.814 70.3281C159.059 69.9967 159.392 69.7365 159.813 69.5476C160.237 69.3587 160.718 69.2642 161.255 69.2642C162.011 69.2642 162.604 69.4299 163.035 69.7614C163.469 70.0928 163.777 70.5303 163.96 71.0739ZM169.961 77V66.8182H176.106V67.9119H171.194V71.3523H175.788V72.446H171.194V75.9062H176.186V77H169.961ZM179.045 69.3636L180.874 72.4858L182.704 69.3636H184.056L181.59 73.1818L184.056 77H182.704L180.874 74.0369L179.045 77H177.692L180.118 73.1818L177.692 69.3636H179.045ZM185.73 79.8636V69.3636H186.864V70.5767H187.003C187.089 70.4441 187.208 70.2751 187.361 70.0696C187.517 69.8608 187.739 69.6752 188.027 69.5128C188.319 69.3471 188.713 69.2642 189.21 69.2642C189.853 69.2642 190.42 69.425 190.911 69.7464C191.401 70.0679 191.784 70.5237 192.059 71.1136C192.334 71.7036 192.472 72.3996 192.472 73.2017C192.472 74.0104 192.334 74.7114 192.059 75.3047C191.784 75.8946 191.403 76.352 190.915 76.6768C190.428 76.9983 189.866 77.1591 189.23 77.1591C188.74 77.1591 188.347 77.0779 188.052 76.9155C187.757 76.7498 187.53 76.5625 187.371 76.3537C187.212 76.1416 187.089 75.9659 187.003 75.8267H186.903V79.8636H185.73ZM186.884 73.1818C186.884 73.7585 186.968 74.2673 187.137 74.7081C187.306 75.1456 187.553 75.4886 187.878 75.7372C188.203 75.9825 188.6 76.1051 189.071 76.1051C189.562 76.1051 189.971 75.9759 190.299 75.7173C190.63 75.4555 190.879 75.1042 191.045 74.6634C191.214 74.2192 191.298 73.7254 191.298 73.1818C191.298 72.6449 191.215 72.161 191.05 71.7301C190.887 71.2959 190.64 70.9529 190.309 70.701C189.981 70.4458 189.568 70.3182 189.071 70.3182C188.594 70.3182 188.193 70.4392 187.868 70.6811C187.543 70.9197 187.298 71.2545 187.132 71.6854C186.966 72.1129 186.884 72.6117 186.884 73.1818ZM197.463 77.1591C196.727 77.1591 196.093 76.9967 195.559 76.6719C195.029 76.3438 194.619 75.8864 194.331 75.2997C194.046 74.7098 193.903 74.0237 193.903 73.2415C193.903 72.4593 194.046 71.7699 194.331 71.1733C194.619 70.5734 195.02 70.1061 195.534 69.7713C196.051 69.4332 196.654 69.2642 197.344 69.2642C197.741 69.2642 198.134 69.3305 198.522 69.4631C198.91 69.5956 199.263 69.8111 199.581 70.1094C199.899 70.4044 200.153 70.7955 200.342 71.2827C200.531 71.7699 200.625 72.3698 200.625 73.0824V73.5795H194.739V72.5653H199.432C199.432 72.1345 199.346 71.75 199.173 71.4119C199.004 71.0739 198.762 70.8071 198.447 70.6115C198.136 70.416 197.768 70.3182 197.344 70.3182C196.876 70.3182 196.472 70.4342 196.131 70.6662C195.793 70.8949 195.532 71.1932 195.35 71.5611C195.168 71.929 195.077 72.3234 195.077 72.7443V73.4205C195.077 73.9972 195.176 74.486 195.375 74.8871C195.577 75.2848 195.857 75.5881 196.215 75.7969C196.573 76.0024 196.989 76.1051 197.463 76.1051C197.771 76.1051 198.05 76.062 198.298 75.9759C198.55 75.8864 198.767 75.7538 198.95 75.5781C199.132 75.3991 199.273 75.1771 199.372 74.9119L200.506 75.2301C200.386 75.6146 200.186 75.9527 199.904 76.2443C199.622 76.5327 199.274 76.758 198.86 76.9205C198.446 77.0795 197.98 77.1591 197.463 77.1591ZM202.41 77V69.3636H203.543V70.517H203.623C203.762 70.1392 204.014 69.8326 204.379 69.5973C204.743 69.362 205.154 69.2443 205.612 69.2443C205.698 69.2443 205.805 69.246 205.935 69.2493C206.064 69.2526 206.162 69.2576 206.228 69.2642V70.4574C206.188 70.4474 206.097 70.4325 205.955 70.4126C205.815 70.3894 205.668 70.3778 205.512 70.3778C205.141 70.3778 204.809 70.4557 204.518 70.6115C204.229 70.764 204.001 70.9761 203.832 71.2479C203.666 71.5163 203.583 71.8229 203.583 72.1676V77H202.41ZM207.619 77V69.3636H208.792V77H207.619ZM208.215 68.0909C207.987 68.0909 207.789 68.013 207.624 67.8572C207.461 67.7015 207.38 67.5142 207.38 67.2955C207.38 67.0767 207.461 66.8894 207.624 66.7337C207.789 66.5779 207.987 66.5 208.215 66.5C208.444 66.5 208.64 66.5779 208.802 66.7337C208.968 66.8894 209.051 67.0767 209.051 67.2955C209.051 67.5142 208.968 67.7015 208.802 67.8572C208.64 68.013 208.444 68.0909 208.215 68.0909ZM214.143 77.1591C213.407 77.1591 212.772 76.9967 212.239 76.6719C211.708 76.3438 211.299 75.8864 211.011 75.2997C210.726 74.7098 210.583 74.0237 210.583 73.2415C210.583 72.4593 210.726 71.7699 211.011 71.1733C211.299 70.5734 211.7 70.1061 212.214 69.7713C212.731 69.4332 213.334 69.2642 214.023 69.2642C214.421 69.2642 214.814 69.3305 215.202 69.4631C215.589 69.5956 215.942 69.8111 216.261 70.1094C216.579 70.4044 216.832 70.7955 217.021 71.2827C217.21 71.7699 217.305 72.3698 217.305 73.0824V73.5795H211.418V72.5653H216.112C216.112 72.1345 216.025 71.75 215.853 71.4119C215.684 71.0739 215.442 70.8071 215.127 70.6115C214.816 70.416 214.448 70.3182 214.023 70.3182C213.556 70.3182 213.152 70.4342 212.81 70.6662C212.472 70.8949 212.212 71.1932 212.03 71.5611C211.848 71.929 211.756 72.3234 211.756 72.7443V73.4205C211.756 73.9972 211.856 74.486 212.055 74.8871C212.257 75.2848 212.537 75.5881 212.895 75.7969C213.253 76.0024 213.669 76.1051 214.143 76.1051C214.451 76.1051 214.729 76.062 214.978 75.9759C215.23 75.8864 215.447 75.7538 215.629 75.5781C215.812 75.3991 215.952 75.1771 216.052 74.9119L217.185 75.2301C217.066 75.6146 216.866 75.9527 216.584 76.2443C216.302 76.5327 215.954 76.758 215.54 76.9205C215.125 77.0795 214.66 77.1591 214.143 77.1591ZM220.263 72.4062V77H219.089V69.3636H220.223V70.5568H220.322C220.501 70.169 220.773 69.8575 221.138 69.6222C221.502 69.3835 221.973 69.2642 222.55 69.2642C223.067 69.2642 223.519 69.3703 223.907 69.5824C224.295 69.7912 224.596 70.1094 224.812 70.5369C225.027 70.9612 225.135 71.4981 225.135 72.1477V77H223.962V72.2273C223.962 71.6274 223.806 71.16 223.494 70.8253C223.183 70.4872 222.755 70.3182 222.212 70.3182C221.837 70.3182 221.502 70.3994 221.207 70.5618C220.916 70.7242 220.685 70.9612 220.516 71.2727C220.347 71.5843 220.263 71.9621 220.263 72.4062ZM230.381 77.1591C229.665 77.1591 229.049 76.9901 228.532 76.652C228.015 76.3139 227.617 75.8482 227.339 75.255C227.06 74.6617 226.921 73.9839 226.921 73.2216C226.921 72.446 227.064 71.7616 227.349 71.1683C227.637 70.5717 228.038 70.1061 228.552 69.7713C229.069 69.4332 229.672 69.2642 230.361 69.2642C230.898 69.2642 231.382 69.3636 231.813 69.5625C232.244 69.7614 232.597 70.0398 232.872 70.3977C233.147 70.7557 233.318 71.1733 233.384 71.6506H232.211C232.121 71.3026 231.922 70.9943 231.614 70.7259C231.309 70.4541 230.898 70.3182 230.381 70.3182C229.924 70.3182 229.523 70.4375 229.178 70.6761C228.837 70.9115 228.57 71.2446 228.378 71.6754C228.189 72.103 228.094 72.6051 228.094 73.1818C228.094 73.7718 228.187 74.2855 228.373 74.723C228.562 75.1605 228.827 75.5002 229.168 75.7422C229.513 75.9841 229.917 76.1051 230.381 76.1051C230.686 76.1051 230.963 76.0521 231.211 75.946C231.46 75.84 231.671 75.6875 231.843 75.4886C232.015 75.2898 232.138 75.0511 232.211 74.7727H233.384C233.318 75.2235 233.154 75.6295 232.892 75.9908C232.633 76.3487 232.29 76.6338 231.863 76.8459C231.439 77.0547 230.945 77.1591 230.381 77.1591ZM238.301 77.1591C237.565 77.1591 236.93 76.9967 236.397 76.6719C235.867 76.3438 235.457 75.8864 235.169 75.2997C234.884 74.7098 234.741 74.0237 234.741 73.2415C234.741 72.4593 234.884 71.7699 235.169 71.1733C235.457 70.5734 235.858 70.1061 236.372 69.7713C236.889 69.4332 237.492 69.2642 238.182 69.2642C238.579 69.2642 238.972 69.3305 239.36 69.4631C239.748 69.5956 240.101 69.8111 240.419 70.1094C240.737 70.4044 240.991 70.7955 241.18 71.2827C241.368 71.7699 241.463 72.3698 241.463 73.0824V73.5795H235.577V72.5653H240.27C240.27 72.1345 240.184 71.75 240.011 71.4119C239.842 71.0739 239.6 70.8071 239.285 70.6115C238.974 70.416 238.606 70.3182 238.182 70.3182C237.714 70.3182 237.31 70.4342 236.969 70.6662C236.631 70.8949 236.37 71.1932 236.188 71.5611C236.006 71.929 235.915 72.3234 235.915 72.7443V73.4205C235.915 73.9972 236.014 74.486 236.213 74.8871C236.415 75.2848 236.695 75.5881 237.053 75.7969C237.411 76.0024 237.827 76.1051 238.301 76.1051C238.609 76.1051 238.888 76.062 239.136 75.9759C239.388 75.8864 239.605 75.7538 239.787 75.5781C239.97 75.3991 240.111 75.1771 240.21 74.9119L241.344 75.2301C241.224 75.6146 241.024 75.9527 240.742 76.2443C240.46 76.5327 240.112 76.758 239.698 76.9205C239.284 77.0795 238.818 77.1591 238.301 77.1591ZM248.657 71.0739L247.603 71.3722C247.537 71.1965 247.439 71.0258 247.309 70.8601C247.184 70.6911 247.011 70.5518 246.792 70.4425C246.574 70.3331 246.294 70.2784 245.952 70.2784C245.485 70.2784 245.095 70.3861 244.784 70.6016C244.476 70.8137 244.322 71.0838 244.322 71.4119C244.322 71.7036 244.428 71.9339 244.64 72.103C244.852 72.272 245.183 72.4129 245.634 72.5256L246.768 72.804C247.45 72.9697 247.959 73.2232 248.294 73.5646C248.629 73.9027 248.796 74.3385 248.796 74.8722C248.796 75.3097 248.67 75.7008 248.418 76.0455C248.17 76.3902 247.822 76.6619 247.374 76.8608C246.927 77.0597 246.406 77.1591 245.813 77.1591C245.034 77.1591 244.39 76.9901 243.879 76.652C243.369 76.3139 243.046 75.8201 242.91 75.1705L244.023 74.892C244.129 75.303 244.33 75.6113 244.625 75.8168C244.923 76.0223 245.313 76.125 245.793 76.125C246.34 76.125 246.774 76.009 247.096 75.777C247.421 75.5417 247.583 75.2599 247.583 74.9318C247.583 74.6667 247.49 74.4446 247.305 74.2656C247.119 74.0833 246.834 73.9474 246.449 73.858L245.177 73.5597C244.477 73.3939 243.964 73.1371 243.635 72.7891C243.311 72.4377 243.148 71.9986 243.148 71.4716C243.148 71.0407 243.269 70.6596 243.511 70.3281C243.756 69.9967 244.09 69.7365 244.51 69.5476C244.935 69.3587 245.415 69.2642 245.952 69.2642C246.708 69.2642 247.301 69.4299 247.732 69.7614C248.166 70.0928 248.474 70.5303 248.657 71.0739Z" fill="#777F8B"/>
<path d="M139.697 27.1818V49H134.435V32.1037H134.307L129.428 35.0866V30.527L134.808 27.1818H139.697ZM144.521 49V45.2074L152.479 38.2401C153.075 37.7003 153.583 37.2067 154.002 36.7592C154.421 36.3047 154.741 35.8501 154.961 35.3956C155.181 34.9339 155.291 34.4332 155.291 33.8935C155.291 33.2898 155.16 32.7749 154.897 32.3487C154.634 31.9155 154.272 31.5817 153.811 31.3473C153.349 31.1129 152.82 30.9957 152.223 30.9957C151.619 30.9957 151.09 31.12 150.636 31.3686C150.181 31.6101 149.826 31.9616 149.57 32.4233C149.322 32.8849 149.198 33.446 149.198 34.1065H144.201C144.201 32.6222 144.535 31.3402 145.203 30.2607C145.87 29.1811 146.808 28.3501 148.015 27.7678C149.23 27.1783 150.639 26.8835 152.244 26.8835C153.899 26.8835 155.338 27.1605 156.559 27.7145C157.781 28.2685 158.725 29.0426 159.393 30.0369C160.068 31.0241 160.405 32.1712 160.405 33.478C160.405 34.3089 160.238 35.1328 159.904 35.9496C159.57 36.7663 158.97 37.6683 158.104 38.6555C157.244 39.6428 156.023 40.8253 154.439 42.2031L151.829 44.6108V44.7493H160.671V49H144.521Z" fill="#0A192D"/>
<defs>
<filter id="filter0_d_1_275" x="0" y="212" width="158" height="158" filterUnits="userSpaceOnUse" color-interpolation-filters="sRGB">
<feFlood flood-opacity="0" result="BackgroundImageFix"/>
<feColorMatrix in="SourceAlpha" type="matrix" values="0 0 0 0 0 0 0 0 0 0 0 0 0 0 0 0 0 0 127 0" result="hardAlpha"/>
<feMorphology radius="10" operator="erode" in="SourceAlpha" result="effect1_dropShadow_1_275"/>
<feOffset dy="30"/>
<feGaussianBlur stdDeviation="30"/>
<feColorMatrix type="matrix" values="0 0 0 0 0 0 0 0 0 0 0 0 0 0 0 0 0 0 0.14 0"/>
<feBlend mode="normal" in2="BackgroundImageFix" result="effect1_dropShadow_1_275"/>
<feBlend mode="normal" in="SourceGraphic" in2="effect1_dropShadow_1_275" result="shape"/>
</filter>
<filter id="filter1_d_1_275" x="0" y="106" width="158" height="158" filterUnits="userSpaceOnUse" color-interpolation-filters="sRGB">
<feFlood flood-opacity="0" result="BackgroundImageFix"/>
<feColorMatrix in="SourceAlpha" type="matrix" values="0 0 0 0 0 0 0 0 0 0 0 0 0 0 0 0 0 0 127 0" result="hardAlpha"/>
<feMorphology radius="10" operator="erode" in="SourceAlpha" result="effect1_dropShadow_1_275"/>
<feOffset dy="30"/>
<feGaussianBlur stdDeviation="30"/>
<feColorMatrix type="matrix" values="0 0 0 0 0 0 0 0 0 0 0 0 0 0 0 0 0 0 0.14 0"/>
<feBlend mode="normal" in2="BackgroundImageFix" result="effect1_dropShadow_1_275"/>
<feBlend mode="normal" in="SourceGraphic" in2="effect1_dropShadow_1_275" result="shape"/>
</filter>
<filter id="filter2_d_1_275" x="0" y="0" width="158" height="158" filterUnits="userSpaceOnUse" color-interpolation-filters="sRGB">
<feFlood flood-opacity="0" result="BackgroundImageFix"/>
<feColorMatrix in="SourceAlpha" type="matrix" values="0 0 0 0 0 0 0 0 0 0 0 0 0 0 0 0 0 0 127 0" result="hardAlpha"/>
<feMorphology radius="10" operator="erode" in="SourceAlpha" result="effect1_dropShadow_1_275"/>
<feOffset dy="30"/>
<feGaussianBlur stdDeviation="30"/>
<feColorMatrix type="matrix" values="0 0 0 0 0 0 0 0 0 0 0 0 0 0 0 0 0 0 0.14 0"/>
<feBlend mode="normal" in2="BackgroundImageFix" result="effect1_dropShadow_1_275"/>
<feBlend mode="normal" in="SourceGraphic" in2="effect1_dropShadow_1_275" result="shape"/>
</filter>
<linearGradient id="paint0_linear_1_275" x1="72.1351" y1="250" x2="72.1351" y2="272.775" gradientUnits="userSpaceOnUse">
<stop stop-color="#FD8C4D"/>
<stop offset="1" stop-color="#FD6C4D"/>
</linearGradient>
<linearGradient id="paint1_linear_1_275" x1="84.8197" y1="259.314" x2="84.8197" y2="272.722" gradientUnits="userSpaceOnUse">
<stop stop-color="#FD8C4D"/>
<stop offset="1" stop-color="#FD6C4D"/>
</linearGradient>
<linearGradient id="paint2_linear_1_275" x1="79.343" y1="142" x2="79.343" y2="167.808" gradientUnits="userSpaceOnUse">
<stop stop-color="#FD8C4D"/>
<stop offset="1" stop-color="#FD6C4D"/>
</linearGradient>
<linearGradient id="paint3_linear_1_275" x1="81.3061" y1="39.9628" x2="81.3061" y2="62.7627" gradientUnits="userSpaceOnUse">
<stop stop-color="#FD8C4D"/>
<stop offset="1" stop-color="#FD6C4D"/>
</linearGradient>
<linearGradient id="paint4_linear_1_275" x1="73.5454" y1="36" x2="73.5454" y2="46.6789" gradientUnits="userSpaceOnUse">
<stop stop-color="#FD8C4D"/>
<stop offset="1" stop-color="#FD6C4D"/>
</linearGradient>
</defs>
</svg>
