<svg width="291" height="293" viewBox="0 0 291 293" fill="none" xmlns="http://www.w3.org/2000/svg">
<path fill-rule="evenodd" clip-rule="evenodd" d="M83.5673 134.509C84.3009 133.85 83.5849 135.359 84.3493 134.558C84.2021 133.576 84.9858 132.016 84.3801 131.321C84.2549 132.237 83.8972 132.186 83.4011 133.005C84.2542 131.929 84.3876 133.831 83.5673 134.509ZM102.27 140.707C102.586 140.803 102.56 140.13 102.858 140.162C104.935 141.451 106.561 144.11 109.651 144.141C110.636 146.385 113.035 146.871 114.738 147.936C115.97 148.707 116.778 150.56 119.044 149.359C116.803 147.551 113.966 146.442 112.419 144.558C109.567 143.747 106.846 141.255 103.391 139.114C103.335 138.791 104.231 137.874 104.006 137.656C103.459 138.264 102.975 138.567 102.553 138.564C98.0992 135.062 94.1562 132.5 91.2611 130.242C91.2128 129.898 92.1987 128.011 91.2341 128.83C91.2927 129.003 91.2394 130.093 90.8413 129.967C89.4848 128.098 83.4058 125.823 82.3734 122.563C82.4833 122.734 82.3425 123.06 82.2051 123.385C79.9583 121.567 77.0177 121.268 76 118.859C77.3142 121.63 78.6525 124.979 81.9519 124.615C81.7284 124.934 81.5043 125.252 81.2808 125.569C83.0019 124.476 82.6488 127.792 83.3474 127.855C86.8182 125.933 85.7723 129.915 87.9605 130.872C89.5392 129.335 90.6257 131.35 90.8391 132.293C94.3916 134.365 98.8053 137.062 102.27 140.707ZM74.097 120.404C73.8158 119.676 74.6448 119.545 75.1321 119.221C75.3052 118.289 74.4545 118.028 73.5949 118.214C74.7522 118.155 73.0151 120.286 73.6224 119.627C73.8569 119.773 74.3225 118.795 74.5741 118.854C74.1948 119.416 73.8466 119.823 73.5375 120.037C74.1645 119.808 73.4863 121.202 74.097 120.404ZM72.3914 120.217C73.7518 116.824 70.242 117.305 69.851 114.831C69.3122 115.398 68.8807 115.438 68.4814 115.33C67.9763 114.752 67.031 112.946 65.7409 114.002C66.263 114.272 65.79 115.163 66.0476 115.597C66.8587 114.765 68.1985 115.375 68.1711 116.059C67.2427 117.289 67.9056 115.54 67.1655 116.329C68.2648 116.857 71.5096 117.192 72.3914 120.217ZM65.6852 113.499C64.7608 113.33 64.8021 111.171 63.365 112.447C64.2701 112.352 64.7523 114.354 65.6852 113.499ZM78.6556 120.596C79.0478 120.819 79.8401 120.307 79.971 119.596C79.67 119.259 79.202 119.736 78.6556 120.596ZM75.1914 117.396C75.5486 116.937 75.9682 116.188 76.2271 116.213C76.6344 116.852 77.8787 117.867 78.6855 117.361C74.6342 113.342 69.6468 110.221 67.228 107.533C67.3856 107.534 67.5099 107.705 67.7317 107.397C67.4478 106.72 66.8083 107.773 66.3606 107.896C65.4727 105.853 62.8842 105.181 62.033 103.588C62.1697 103.277 61.9561 103.186 61.8063 103.055C61.8521 103.249 61.9428 103.418 62.033 103.588C61.9892 103.686 61.9101 103.809 61.7766 103.965C60.5417 102.674 59.5518 103.61 59.7091 101.681C58.8827 102.881 58.6632 101.115 57.8367 102.314C62.1736 106.668 70.1303 110.98 74.6889 115.208C74.3358 116.228 73.6398 115.421 73.8768 116.073C74.5934 115.397 73.9473 117.07 74.7998 116.211C74.9718 114.225 75.4153 116.201 75.1914 117.396ZM40.8117 92.5675C40.1477 93.6907 41.0625 93.4994 41.6509 93.1164C41.2609 92.7035 41.6798 91.788 40.8413 91.6547C40.4008 92.1675 40.4749 92.6078 40.1698 92.6109C39.5234 92.5373 40.9016 91.201 40.1423 91.1982C39.7584 91.7815 39.4792 91.853 39.274 91.5624C38.1136 93.376 39.5441 93.981 40.8117 92.5675ZM36.0599 89.4568C36.064 90.5554 37.338 91.5673 38.2675 91.8317C39.0269 88.4976 35.6333 90.4726 36.1178 87.6342C35.779 87.9964 35.4794 88.1671 35.2508 87.9954C34.0126 89.8071 35.2458 89.774 36.0599 89.4568ZM42.8 90.6103C42.1019 90.6893 42.8116 89.8881 42.6873 89.6095C42.2411 90.24 42.0223 89.7641 41.5129 90.7006C41.9224 91.2093 41.8664 91.5186 42.8 90.6103ZM55.0683 99.5735C51.8992 97.4244 49.7964 94.2902 45.9845 93.6287C48.6339 95.6173 51.0767 98.0828 55.0683 99.5735ZM57.9742 104.731C57.9016 104.658 57.8419 104.575 58.0581 104.321C58.2853 104.497 58.588 104.311 58.925 103.959C58.5792 103.329 57.9456 104.096 57.4153 104.365C57.8892 104.232 57.2115 105.624 57.9742 104.731ZM56.6347 99.6692C55.922 100.566 55.6367 99.3857 54.9849 99.9848C55.2034 100.265 54.9082 100.866 54.8713 101.306C56.794 100.376 55.933 102.729 57.9192 101.906C58.0633 100.49 55.159 101.039 56.6347 99.6692ZM73.9667 108.689C73.8197 108.403 74.2839 108.298 74.6382 107.733C73.5231 108.214 75.0548 106.463 74.0236 106.866C74.1895 107.234 73.9703 107.557 73.4907 107.914C73.6233 108.094 73.5258 109.286 73.9667 108.689ZM48.8988 87.1615C49.3365 86.8302 49.8635 86.064 50.2128 86.1624C49.1629 87.7597 50.9892 87.9197 51.4165 86.4833C50.4752 87.3541 49.8979 84.2445 47.7826 84.1051C47.0102 86.4739 48.2881 86.1236 48.8988 87.1615ZM41.9129 80.2619C41.3663 80.144 41.3312 78.147 40.5157 79.3474C40.5029 79.8152 40.8565 81.6131 41.9129 80.2619ZM38.6421 77.6567C38.7991 76.9648 38.1264 76.8943 37.5804 77.4254C37.7715 77.8776 37.9342 78.1158 38.6421 77.6567ZM37.6634 77.0178C37.8347 76.1306 36.8784 75.0129 35.9317 75.4168C36.5831 76.1446 36.6491 77.3833 37.6634 77.0178ZM120.765 128.624C120.18 127.495 119.604 126.733 118.529 127.161C118.582 127.967 119.969 128.876 120.765 128.624ZM118.11 126.887C117.897 126.645 117.762 125.458 116.992 126.155C116.901 126.584 117.527 127.467 118.11 126.887ZM130.214 134.343C130.756 135.354 132.174 135.447 133.093 135.764C132.441 135.03 131.834 134.316 130.214 134.343ZM125.182 131.05C123.822 130.27 122.501 128.728 120.822 129.126C122.852 129.949 123.217 131.422 125.182 131.05ZM62.1776 93.5273C62.3822 93.7736 62.7137 95.388 63.6582 94.0345C62.8073 93.9003 63.1757 92.6254 62.1776 93.5273ZM51.9193 86.3483C51.1713 87.2996 51.681 88.0857 52.3943 87.1235C52.5949 86.2353 51.7459 87.1083 51.9193 86.3483ZM41.604 80.9928C43.5983 80.9976 43.917 83.916 46.3845 83.19C44.6557 82.4132 44.3131 80.0046 41.604 80.9928ZM56.0277 89.5034C54.5885 88.9999 54.1419 86.391 52.085 87.854C53.6489 88.0917 53.8786 91.3295 56.0277 89.5034ZM90.72 106.63C90.5703 105.711 89.5132 105.357 89.7991 104.167C90.6286 105.218 92.5336 107.14 93.7961 106.318C91.5157 104.138 88.7309 103.38 87.0612 100.514C87.2033 100.247 87.4988 99.8834 87.3682 99.7859C87.0706 100.209 86.7711 100.636 86.4726 101.061C86.3894 100.301 85.2067 99.2781 84.2935 100.097C84.644 102.276 86.5278 103.573 87.8691 104.3C87.9313 104.099 87.5209 103.384 88.0373 103.478C88.5403 104.656 89.5772 106.447 90.72 106.63ZM81.1889 98.996C81.968 98.6138 81.4214 99.859 82.2516 99.228C82.1044 99.0008 82.6265 97.4727 82.0001 98.1338C82.0615 98.2736 81.9762 98.506 81.6935 98.8604C81.5137 98.7077 81.1089 98.5815 81.1889 98.996ZM80.9097 98.814C81.2082 98.3891 81.5067 97.9642 81.8057 97.5397C79.713 94.9138 77.7531 94.5045 75.1275 92.2354C75.7187 96.6063 79.6225 95.1164 80.9097 98.814ZM74.5675 91.8705C74.3624 90.9353 71.3108 90.8201 72.6387 89.6793C72.7762 89.2508 70.7692 89.9194 70.8483 89.9022C71.7502 90.7635 73.3181 92.846 74.5675 91.8705ZM70.0106 89.3523C70.3127 88.912 70.568 88.6976 70.8223 88.4885C70.693 88.0946 70.997 86.9991 70.1232 88.0319C70.3417 88.3121 70.047 88.9134 70.0106 89.3523ZM95.085 103.906C94.7037 102.773 93.0752 102.419 93.688 100.666C93.9167 100.842 94.2199 100.654 94.5545 100.305C93.2377 101.052 95.1761 98.7382 94.0809 99.5287C93.3609 100.458 91.8157 98.1663 91.0339 98.9278C91.2812 101.438 92.7127 103.922 95.085 103.906ZM100.817 105.332C100.767 102.37 99.4168 105.433 97.9658 103.001C97.5628 104.636 100.171 105.02 97.9892 106.74C99.881 105.402 100.577 109.863 102.406 109.165C102.557 108.357 101.797 108.117 102.549 106.933C102.438 107.398 103.111 107.469 103.612 107.161C102.465 106.747 102.219 104.631 100.817 105.332ZM103.528 107.571C103.95 107.573 104.168 108.567 104.73 107.893C104.34 107.411 104.397 106.773 103.528 107.571ZM161.561 137.652C163.776 138.457 163.443 139.502 165.642 139.394C165.076 138.382 163.421 136.133 161.561 137.652ZM172.798 143.149C172.385 142.751 171.492 142.654 171.624 141.915C171.148 143.286 171.81 143.862 172.798 143.149ZM108.957 100.428C107.445 99.7851 107.59 97.6631 106.078 99.008C106.98 98.6076 107.675 101.65 108.957 100.428ZM96.5214 89.9622C96.7454 89.6436 96.9703 89.3237 97.1934 89.0064C97.1805 88.4703 95.9841 88.412 96.4688 87.1345C94.9342 89.0314 94.794 85.9353 93.3642 86.0353C93.075 88.4946 95.6739 88.2098 96.5214 89.9622ZM92.3582 86.3049C92.7385 83.4718 89.5938 84.5952 90.1527 81.6046C92.6088 82.9 93.874 85.636 97.1956 86.6809C97.1554 86.2291 96.5748 86.1147 96.8049 85.4952C98.4485 85.5044 98.316 86.8445 98.2848 88.3249C98.7915 87.4044 99.0066 87.8977 99.3756 87.643C99.2533 88.6332 99.1752 90.1619 100.465 89.2874C97.6501 82.7115 88.2222 76.7577 83.7535 74.1611C85.988 77.0741 88.6968 77.1814 89.9852 80.1016C88.0569 80.9802 88.6606 77.0258 86.0438 78.4512C87.0654 78.6278 87.5831 80.4373 88.3896 80.919C88.9388 79.9431 89.7137 82.0527 88.1086 83.0589C89.4462 83.9427 91.4632 85.1393 92.3582 86.3049ZM84.8697 77.2174C83.8309 75.39 82.6751 75.3469 81.2368 74.838C82.428 76.3834 83.0665 78.1038 84.8697 77.2174ZM72.8793 68.4372C72.4781 68.3315 72.0475 68.3706 71.5092 68.9351C71.9089 69.2912 72.2289 70.6199 73.1861 70.0339C73.271 69.2305 72.2702 69.1048 72.5157 68.6658C72.6123 68.7031 72.714 68.726 72.8793 68.4372ZM70.4456 68.7064C71.6705 67.0868 71.1579 68.9011 71.5931 68.5262C71.4334 68.3001 71.9871 67.7645 72.2651 67.5704C70.6972 67.6832 71.2647 66.0578 69.1328 67.3814C69.1043 66.5048 67.7648 66.4478 68.4912 65.0999C67.8128 65.5821 68.2194 65.514 67.5965 66.3733C68.5049 66.6405 68.485 67.4884 68.8239 68.1102C69.975 66.3918 70.1228 68.3197 70.4456 68.7064ZM66.7022 65.3238C65.5449 65.062 66.2059 63.5296 65.3313 63.4982C65.5421 64.2019 64.6399 65.5976 65.1057 66.1426C65.8954 64.2114 65.555 66.3246 66.7022 65.3238ZM102.619 88.8358C102.827 92.1574 105.844 92.8013 107.508 94.3634C107.247 94.0627 107.785 93.3024 108.265 92.9953C106.437 91.2598 104.775 89.3076 102.619 88.8358ZM76.4001 72.1375C76.6978 72.2269 76.3995 73.8553 76.7346 72.8239C76.6625 72.7484 76.6037 72.6664 76.8194 72.4118C77.3975 72.5881 77.5146 73.0512 77.7133 73.4629C78.5594 72.3303 76.8649 71.8596 76.4001 72.1375ZM80.4605 65.493C80.675 64.4611 79.6543 65.5005 79.2578 65.1707C79.3823 64.9944 79.3981 64.7362 79.1186 65.079C78.9374 66.2286 79.6032 65.8511 80.4605 65.493ZM94.6894 143.651C93.6804 144.314 94.2589 143.95 93.3745 144.652C90.1909 141.338 88.0531 140.019 84.9066 137.248C85.1153 137.006 85.2697 137.023 85.4942 136.703C84.9859 136.638 83.3806 137.305 84.0423 135.284C83.7478 135.432 83.4225 135.726 83.0896 136.059C82.9621 135.899 83.3812 135.399 83.622 135.011C83.4666 134.997 83.2584 135.239 83.1197 135.146C82.4983 135.208 83.3511 135.737 82.4472 136.102C81.6466 135.199 82.7471 133.975 80.909 135.096C80.3733 134.455 80.6572 133.008 79.4562 133.681C79.2912 133.311 79.51 132.989 79.9891 132.631C78.5545 133.338 78.5401 132.013 77.5288 131.487C77.9203 131.12 78.2448 131.089 78.5358 131.216C79.1934 130.046 77.6787 130.941 78.2295 129.619C78.8806 129.583 79.5533 128.887 79.6549 129.624C80.0718 127.338 77.1722 126.294 76.135 125.922C76.7338 125.78 77.0655 124.166 76.2185 125.513C76.1754 125.063 76.8116 124.19 76.556 123.873C77.1421 123.061 77.5269 123.843 77.7309 122.782C77.3195 122.386 76.7909 124.155 76.1358 123.6C76.0075 124.215 76.4216 124.493 75.5765 125.557C75.4206 125.283 75.1369 125.633 74.8469 126.012C74.768 124.994 76.3266 125.084 75.8293 124.326C74.9199 125.108 73.5576 124.68 72.9757 124.321C73.656 126.291 75.6755 125.733 76.2168 127.837C74.7756 129.639 74.5853 128.086 74.5956 127.241C74.1817 127.082 74.4018 127.915 73.6996 128.515C73.6835 128.213 72.7385 127.758 72.5822 127.783C72.6106 126.71 73.6057 127.353 74.0372 126.875C73.7928 126.606 73.2247 124.797 71.4638 127.05C71.718 126.296 72.2239 125.385 71.8853 125.001C71.7473 125.326 71.6061 125.652 71.716 125.822C70.8492 126.113 72.2776 124.083 73.0601 123.91C72.0574 121.869 68.5258 120.031 65.9063 117.831C64.6297 116.761 62.9558 115.816 62.1606 114.45C61.6648 113.597 58.9774 112.143 57.4088 111.34C57.2885 111.118 57.8546 110.465 58.1643 109.975C55.9776 111.189 55.888 108.393 53.5238 107.866C53.3978 107.708 53.8149 107.208 54.0563 106.82C53.8934 106.496 52.7657 107.407 53.7213 106.135C51.0026 107.192 50.1018 104.44 48.6611 103.754C48.4594 103.655 47.9003 104.177 47.9343 104.207C47.664 103.968 48.0123 102.736 47.4875 102.52C46.8719 102.265 46.7434 101.995 46.3144 101.285C45.9267 100.646 45.0523 99.4674 44.8054 99.3684C44.6116 99.2896 44.1637 100.043 43.938 99.7314C43.7578 99.4786 44.2228 98.8895 44.1864 98.572C44.0612 98.6999 42.8834 98.0503 42.2064 98.1304C43.2345 96.9565 40.0353 96.6856 39.2998 95.2989C39.8339 94.7014 40.1582 94.9495 40.3345 94.1158C39.2142 94.0681 38.0662 95.691 38.4346 93.3363C36.8694 94.2334 36.9999 93.2491 35.8909 92.6008C36.3366 91.97 36.5558 92.4463 37.0652 91.5097C36.0318 92.582 36.509 90.7822 35.4168 91.8243C35.3298 91.6842 35.5252 91.3771 35.6945 91.2448C34.0714 91.9109 32.9955 90.1547 32.2851 89.3107C33.0554 88.5491 33.0021 88.1138 33.4609 88.2187C33.3601 87.5439 32.6237 86.5935 33.8254 85.6697C33.3588 85.9024 33.2135 85.8084 33.2673 85.3021C32.9503 85.6738 32.9312 85.8617 33.0006 85.9932C31.786 84.3553 29.8399 82.3392 29.271 80.8262C28.6375 81.602 29.0085 80.9237 28.1249 81.0056C28.4316 80.7941 28.7802 80.3851 29.1606 79.8232C28.7607 79.7085 28.017 81.2776 27.7061 80.7296C29.1508 78.4351 26.1003 80.063 26.8408 78.769C26.6401 78.7131 26.3137 79.2737 26.0292 79.6328C25.8171 78.7166 25.4545 78.8022 24.3514 78.5354C26.4367 77.9109 24.628 77.6977 23.8759 77.7599C24.2948 77.0041 24.4622 77.4812 24.8281 76.9867C25.0139 76.2576 24.6476 75.5304 23.7648 76.7564C24.1951 74.7793 23.3757 74.2825 23.042 72.5607C24.5831 71.7022 25.8629 72.2513 27.5158 73.1653C27.8218 73.1609 27.7463 72.7216 28.1873 72.2091C30.6977 72.785 32.005 75.0701 34.8135 74.6861C32.9021 70.5195 28.1162 69.468 25.5922 66.3217C27.1223 66.0681 27.6763 66.1435 29.1428 66.7863C29.6595 65.8091 28.5493 65.8465 28.6965 65.0997C29.2693 64.6276 29.6011 65.3262 30.1224 65.1027C28.9519 62.7719 26.6488 62.1268 24.3653 59.939C25.0445 58.691 25.1501 60.2375 25.9052 58.6208C29.9906 61.9987 35.6819 61.0044 36.6939 64.7545C36.0851 65.4043 35.8233 64.3647 35.3534 64.3396C35.5428 66.4988 37.4436 67.1992 38.8734 68.0412C42.8717 70.3929 46.9154 72.6554 50.782 74.9049C50.9951 74.5924 50.7854 74.544 50.7254 74.4033C55.6276 75.6419 61.8193 79.6299 64.8421 83.6421C65.2116 83.3878 65.4272 83.8815 65.932 82.9616C65.972 85.3073 67.9876 85.034 69.4811 85.7521C73.3042 87.5832 75.9372 92.0927 79.6564 93.3406C78.1615 94.6372 79.9967 93.7338 80.6343 93.9807C83.1829 94.9732 85.8728 98.4578 88.5719 100.107C88.9579 97.5552 85.1704 97.7453 84.884 94.9019C85.3916 93.9721 85.382 95.5619 85.8905 94.6307C85.3603 90.8364 81.2072 92.1876 80.6673 88.4203C80.2498 88.6124 80.3576 88.9829 79.7146 89.1931C75.571 87.4798 70.8004 82.7431 66.6911 79.2721C66.2046 78.8599 65.148 79.5184 64.48 79.2217C58.866 76.7231 56.7727 70.5205 51.4847 68.3889C54.5872 69.0415 55.8269 71.2343 59.4802 72.6924C59.6809 72.7483 60.0069 72.1874 60.2919 71.8266C62.0652 73.0244 61.9889 74.4048 63.3938 75.2529C70.1762 79.3585 77.3501 85.287 85.9517 88.1604C86.6536 88.2498 86.7428 87.0524 87.3515 86.7498C87.7632 89.1221 90.6019 88.2627 90.2003 91.4058C90.7788 91.367 90.4455 90.4438 90.453 90.1758C92.4758 90.0474 91.724 94.5384 94.3092 94.5592C94.8651 93.4384 94.0314 93.1848 94.3104 92.235C94.4362 91.9419 95.2609 92.6979 95.0647 93.1941C96.5533 91.8151 98.2734 94.3559 99.2018 95.4377C100.507 94.0389 101.584 97.4867 103.312 96.2669C100.063 93.0425 94.508 91.1231 91.7705 86.8501C91.3366 87.3598 91.4556 87.5247 91.6008 87.6706C90.88 87.8869 90.5121 87.4339 91.0715 86.3935C90.5566 85.977 90.7718 86.9114 90.1207 87.1657C89.9218 86.5963 89.9344 86.3518 89.8687 86.0713C87.9808 86.1586 87.414 84.0863 86.5432 82.9639C84.3733 80.8535 87.1001 83.8934 88.418 82.3304C86.2297 79.5582 81.7638 78.2149 80.0048 75.4288C81.0662 73.7619 80.5041 75.7463 81.3188 74.4296C80.6684 73.1497 79.2983 73.0769 78.6094 72.1885C78.0619 73.3651 79.434 73.3437 78.3828 74.8342C77.1567 74.3156 76.2238 72.9692 75.3097 72.8197C76.9568 70.5303 74.6811 70.0765 73.4914 71.6315C72.6404 71.7447 73.8387 70.579 73.2413 70.5364C73.0106 70.499 72.6545 71.0763 72.7928 71.1733C70.6649 70.3104 65.9161 67.6389 64.2679 65.5927C64.2275 65.2604 64.4872 64.7399 64.8847 64.1344C64.2846 64.1378 64.2461 65.2159 63.7642 65.727C63.0218 64.2515 61.3469 64.7387 61.4165 63.2618C62.1577 61.9763 62.3626 63.2886 62.8438 63.2639C63.0506 62.45 62.3912 62.8361 63.4601 61.8072C59.9549 59.9582 59.1374 59.3809 56.3324 57.1411C59.6036 56.282 60.4972 59.9513 63.3217 59.391C63.945 61.0846 65.5943 60.6589 66.4528 61.9043C66.8663 62.0646 66.6466 61.2307 67.3489 60.6299C68.0385 60.5628 67.6852 60.8088 68.1871 61.1801C68.8853 60.3868 68.3306 60.3747 68.4393 59.9496C69.1381 59.2006 68.622 60.9646 69.502 60.1797C69.6987 58.3926 67.0436 60.6588 66.6228 58.7609C66.9412 58.0907 66.3611 58.2662 67.1543 57.7145C66.417 57.3402 66.4917 56.4577 65.5618 56.2051C64.9468 55.8126 65.9243 55.6404 66.0665 56.0695C67.5166 56.7046 69.9249 56.6187 69.8381 58.5403C71.1414 57.8988 70.4154 59.3448 71.3206 59.0449C71.1171 59.6417 70.5249 60.457 69.9204 60.4552C71.3739 63.3659 74.7599 64.0898 77.2443 65.7128C77.7888 63.1211 74.4639 64.275 74.5909 61.6497C76.0781 61.6448 76.8374 62.6934 77.8893 63.3448C76.896 64.2401 78.2075 64.8977 78.8389 64.8968C79.1431 64.895 79.0709 64.4521 79.5105 63.9406C80.0499 65.0732 81.2004 64.7215 82.3057 65.7703C82.1482 66.2862 81.6052 67.043 81.8285 67.3206C83.0279 65.0081 81.9416 68.3734 83.1709 67.7329C80.6039 69.6131 82.1363 65.5352 80.2922 66.3125C80.967 68.6257 81.6975 70.6475 84.0069 70.6065C84.5735 69.7768 83.6455 69.8788 84.7096 68.7387C85.7533 69.4261 85.9556 70.2115 87.2246 70.3857C86.8773 70.7896 86.6883 70.4208 86.4402 70.339C86.3966 72.9821 88.5228 74.2968 90.2682 75.6342C90.9214 75.2437 90.9261 74.6243 90.8841 74.1772C91.5273 73.3664 91.7995 74.3556 92.3948 73.7699C92.7801 78.7398 98.9903 77.7337 99.1012 82.8105C99.4821 82.1811 99.9354 82.5555 100.779 81.5847C101.916 82.2036 102.225 83.7439 104.162 82.8692C104.147 85.0302 107.966 84.0465 106.423 88.0704C109.452 86.4232 110.462 87.5956 112.295 89.5865C111.941 90.0252 111.798 89.4262 111.427 89.9507C111.71 90.9056 112.746 91.3904 113.355 92.1432C113.831 91.0713 112.782 90.9511 112.265 90.4992C113.516 88.9138 113.149 90.683 114.112 90.7752C112.857 94.3712 116.156 94.3806 117.827 95.07C118.069 94.3832 117.274 94.3426 117.296 93.7936C119.452 93.3471 119.593 96.0507 121.295 95.9442C120.995 96.3701 120.697 96.7937 120.399 97.2186C122.584 99.741 124.975 100.365 128.113 101.339C128.556 101.366 128.294 100.731 128.926 100.474C132.167 102.385 135.21 105.404 139.241 105.831C139.308 105.446 137.678 105.337 138.879 103.734C139.085 104.584 140.507 105.355 140.274 106.974C143.845 108.746 148.296 110.22 152.016 112.335C155.094 114.082 158.678 115.056 161.716 116.823C167.709 120.309 171.886 124.468 176.837 128.116C178.278 129.178 179.387 130.469 179.462 133.091C177.068 135.758 176.288 134.293 174.287 134.355C174.256 135.149 173.753 136.238 174.285 136.681C174.107 136.849 173.076 137.677 173.389 137.955C170.824 140.639 169.776 138.416 167.768 139.854C167.599 141.827 169.903 140.9 171.038 142.461C171.482 141.29 171.011 140.689 170.395 140.18C172.408 139.766 173.956 141.934 174.476 144.246C172.933 145.311 173.39 143.442 171.708 143.829C170.979 145.524 169.914 145.436 169.188 146.832C169.182 147.551 169.763 147.904 170.137 148.384C169.51 148.611 168.65 149.968 168.095 149.838C167.281 150.942 167.461 151.425 167.31 152.116C167.476 152.448 168.787 150.95 168.57 150.615C169.781 149.496 169.264 152.532 170.416 150.891C169.742 152.435 168.783 151.799 168.093 152.163C167.758 153.207 168.234 153.743 168.231 154.579C167.288 155.213 167.106 153.861 166.694 153.572C166.389 153.575 166.461 154.016 166.022 154.528C166.511 155.704 167.877 157.207 168.564 157.588C167.595 159.011 168.276 157.178 167.556 157.86C167.5 159.594 165.743 162.168 163.831 165.19C162.644 165.256 162.175 165.58 161.428 164.545C161.069 164.729 160.935 165.263 160.252 165.637C159.554 167.199 160.77 168.133 161.453 168.283C160.108 169.443 160.26 170.993 160.415 171.791C159.722 172.853 159.334 172.425 158.736 173.017C156.684 176.999 154.252 176.398 152.161 178.015C148.989 176.95 147.3 173.328 144.139 172.3C143.14 171.974 141.688 172.301 140.727 171.927C138.539 171.078 136.742 169.525 134.633 168.404C128.24 165.002 122.902 160.623 115.933 157.557C113.727 156.587 110.864 155.635 108.552 154.121C104.696 151.597 100.106 149.858 97.9601 146.256C97.6012 146.44 97.4522 147.048 96.8678 146.939C97.0052 144.954 93.3736 147.038 94.6894 143.651Z" fill="#FFDDDB"/>
<path fill-rule="evenodd" clip-rule="evenodd" d="M208.137 158.365C207.396 159.015 208.129 157.514 207.356 158.307C207.492 159.29 206.69 160.841 207.288 161.543C207.424 160.629 207.781 160.683 208.286 159.871C207.421 160.936 207.309 159.033 208.137 158.365ZM189.506 151.954C189.191 151.854 189.209 152.527 188.912 152.492C186.85 151.18 185.254 148.502 182.165 148.436C181.205 146.181 178.812 145.668 177.121 144.583C175.898 143.798 175.112 141.936 172.831 143.111C175.052 144.945 177.876 146.086 179.401 147.987C182.244 148.83 184.936 151.354 188.367 153.534C188.419 153.858 187.513 154.765 187.735 154.984C188.29 154.383 188.777 154.086 189.199 154.093C193.612 157.646 197.526 160.252 200.395 162.544C200.44 162.888 199.432 164.763 200.406 163.956C200.35 163.782 200.415 162.693 200.812 162.823C202.147 164.708 208.2 167.051 209.195 170.323C209.087 170.151 209.232 169.826 209.373 169.503C211.599 171.347 214.536 171.68 215.526 174.1C214.243 171.314 212.943 167.95 209.64 168.277C209.867 167.96 210.095 167.644 210.322 167.33C208.588 168.403 208.979 165.092 208.281 165.021C204.789 166.902 205.88 162.934 203.703 161.951C202.107 163.471 201.043 161.443 200.841 160.498C197.312 158.385 192.929 155.638 189.506 151.954ZM217.446 172.577C217.719 173.308 216.889 173.429 216.398 173.747C216.214 174.677 217.062 174.949 217.924 174.772C216.766 174.818 218.527 172.707 217.912 173.359C217.679 173.21 217.203 174.183 216.952 174.121C217.337 173.563 217.69 173.16 218.002 172.95C217.372 173.172 218.066 171.785 217.446 172.577ZM219.15 172.783C217.751 176.16 221.266 175.72 221.629 178.197C222.174 177.637 222.606 177.602 223.004 177.714C223.502 178.297 224.427 180.114 225.729 179.073C225.21 178.797 225.693 177.912 225.441 177.475C224.62 178.298 223.287 177.673 223.323 176.988C224.265 175.77 223.582 177.511 224.331 176.73C223.238 176.19 219.997 175.817 219.15 172.783ZM225.779 179.577C226.702 179.756 226.636 181.915 228.087 180.655C227.181 180.74 226.722 178.732 225.779 179.577ZM212.89 172.332C212.501 172.105 211.702 172.608 211.564 173.317C211.861 173.658 212.334 173.186 212.89 172.332ZM216.318 175.572C215.955 176.027 215.527 176.771 215.269 176.743C214.869 176.099 213.636 175.071 212.824 175.567C216.829 179.631 221.78 182.81 224.169 185.525C224.011 185.522 223.889 185.35 223.663 185.655C223.94 186.335 224.591 185.289 225.04 185.172C225.905 187.225 228.485 187.926 229.318 189.529C229.178 189.838 229.391 189.932 229.539 190.065C229.495 189.87 229.407 189.7 229.318 189.529C229.363 189.431 229.444 189.309 229.579 189.154C230.799 190.46 231.8 189.535 231.62 191.462C232.46 190.271 232.66 192.04 233.5 190.851C229.213 186.447 221.306 182.045 216.795 177.766C217.16 176.749 217.847 177.565 217.617 176.909C216.893 177.578 217.558 175.912 216.696 176.761C216.501 178.745 216.08 176.764 216.318 175.572ZM250.413 200.79C251.09 199.675 250.173 199.856 249.58 200.232C249.965 200.649 249.536 201.56 250.373 201.703C250.819 201.195 250.75 200.754 251.055 200.754C251.701 200.835 250.308 202.156 251.067 202.167C251.457 201.588 251.737 201.52 251.939 201.813C253.12 200.013 251.697 199.391 250.413 200.79ZM255.129 203.955C255.137 202.856 253.875 201.83 252.949 201.555C252.151 204.88 255.567 202.944 255.05 205.777C255.393 205.418 255.695 205.251 255.921 205.425C257.18 203.628 255.947 203.647 255.129 203.955ZM248.402 202.725C249.101 202.654 248.383 203.447 248.504 203.727C248.957 203.101 249.171 203.58 249.691 202.649C249.287 202.136 249.346 201.827 248.402 202.725ZM236.237 193.622C239.381 195.808 241.448 198.965 245.253 199.67C242.626 197.652 240.211 195.159 236.237 193.622ZM233.39 188.432C233.462 188.506 233.52 188.59 233.301 188.842C233.076 188.662 232.771 188.845 232.43 189.193C232.769 189.828 233.411 189.067 233.945 188.804C233.469 188.933 234.163 187.548 233.39 188.432ZM234.672 193.509C235.395 192.62 235.666 193.804 236.325 193.212C236.11 192.929 236.412 192.332 236.454 191.892C234.52 192.8 235.408 190.457 233.413 191.258C233.253 192.671 236.163 192.156 234.672 193.509ZM217.443 184.292C217.587 184.58 217.122 184.68 216.761 185.24C217.882 184.772 216.33 186.506 217.366 186.114C217.204 185.744 217.427 185.425 217.911 185.073C217.78 184.891 217.891 183.7 217.443 184.292ZM242.265 206.104C241.823 206.43 241.288 207.19 240.94 207.088C242.008 205.503 240.183 205.322 239.74 206.753C240.691 205.893 241.233 209.009 243.346 209.173C244.146 206.813 242.864 207.149 242.265 206.104ZM249.172 213.083C249.717 213.207 249.73 215.204 250.559 214.013C250.577 213.545 250.244 211.744 249.172 213.083ZM252.413 215.725C252.248 216.415 252.92 216.493 253.472 215.968C253.286 215.514 253.126 215.274 252.413 215.725ZM253.384 216.375C253.203 217.26 254.146 218.389 255.098 217.996C254.455 217.26 254.403 216.021 253.384 216.375ZM170.875 163.825C171.447 164.961 172.015 165.73 173.094 165.314C173.05 164.507 171.674 163.582 170.875 163.825ZM173.51 165.593C173.72 165.837 173.842 167.025 174.619 166.338C174.715 165.909 174.1 165.019 173.51 165.593ZM161.492 157.999C160.961 156.981 159.545 156.873 158.629 156.545C159.273 157.287 159.872 158.008 161.492 157.999ZM166.486 161.349C167.836 162.144 169.14 163.702 170.824 163.323C168.803 162.477 168.454 161 166.486 161.349ZM229.059 199.587C228.858 199.339 228.544 197.721 227.585 199.063C228.434 199.207 228.051 200.478 229.059 199.587ZM239.235 206.883C239.994 205.94 239.493 205.148 238.769 206.102C238.559 206.988 239.417 206.125 239.235 206.883ZM249.489 212.355C247.495 212.328 247.21 209.406 244.734 210.104C246.454 210.9 246.769 213.313 249.489 212.355ZM235.163 203.681C236.596 204.201 237.013 206.815 239.087 205.375C237.526 205.12 237.333 201.879 235.163 203.681ZM200.668 186.16C200.807 187.081 201.86 187.447 201.561 188.634C200.743 187.574 198.86 185.629 197.588 186.437C199.844 188.643 202.62 189.433 204.257 192.317C204.112 192.583 203.812 192.943 203.942 193.042C204.244 192.622 204.548 192.199 204.852 191.778C204.926 192.539 206.097 193.574 207.02 192.766C206.694 190.583 204.825 189.265 203.492 188.523C203.428 188.723 203.83 189.443 203.314 189.342C202.825 188.158 201.808 186.357 200.668 186.16ZM210.111 193.902C209.328 194.276 209.889 193.037 209.052 193.658C209.196 193.887 208.657 195.409 209.291 194.755C209.231 194.615 209.319 194.383 209.605 194.032C209.783 194.187 210.187 194.318 210.111 193.902ZM210.389 194.087C210.085 194.509 209.782 194.93 209.478 195.351C211.541 198.001 213.496 198.433 216.096 200.731C215.554 196.354 211.634 197.8 210.389 194.087ZM216.651 201.103C216.846 202.04 219.896 202.19 218.555 203.316C218.413 203.743 220.427 203.097 220.348 203.113C219.456 202.242 217.912 200.142 216.651 201.103ZM221.179 203.673C220.872 204.109 220.615 204.321 220.358 204.527C220.483 204.923 220.166 206.015 221.052 204.992C220.836 204.709 221.138 204.111 221.179 203.673ZM196.272 188.834C196.641 189.972 198.265 190.344 197.632 192.089C197.405 191.911 197.1 192.096 196.762 192.441C198.087 191.709 196.122 194.001 197.226 193.223C197.957 192.302 199.476 194.611 200.266 193.858C200.048 191.346 198.644 188.846 196.272 188.834ZM190.556 187.343C190.573 190.305 191.958 187.258 193.381 189.707C193.803 188.076 191.2 187.662 193.4 185.968C191.493 187.284 190.848 182.815 189.011 183.492C188.851 184.298 189.608 184.547 188.843 185.723C188.96 185.259 188.287 185.18 187.783 185.482C188.925 185.91 189.147 188.028 190.556 187.343ZM187.872 185.073C187.449 185.067 187.243 184.07 186.673 184.737C187.058 185.224 186.994 185.862 187.872 185.073ZM130.184 154.333C127.979 153.503 128.323 152.462 126.123 152.545C126.677 153.563 128.307 155.831 130.184 154.333ZM119.01 148.709C119.419 149.111 120.311 149.218 120.17 149.956C120.662 148.59 120.006 148.007 119.01 148.709ZM182.361 192.154C183.866 192.814 183.697 194.934 185.224 193.607C184.318 193.997 183.657 190.947 182.361 192.154ZM194.677 202.761C194.45 203.077 194.221 203.394 193.994 203.709C194.001 204.245 195.197 204.317 194.698 205.589C196.254 203.71 196.359 206.807 197.79 206.723C198.107 204.268 195.505 204.523 194.677 202.761ZM198.799 206.465C198.386 209.294 201.543 208.206 200.95 211.19C198.509 209.867 197.275 207.117 193.966 206.034C194.001 206.486 194.58 206.607 194.343 207.224C192.7 207.196 192.847 205.858 192.895 204.378C192.378 205.293 192.169 204.797 191.797 205.047C191.93 204.059 192.026 202.531 190.726 203.391C193.466 209.998 202.826 216.059 207.265 218.706C205.063 215.768 202.356 215.63 201.101 212.695C203.039 211.839 202.39 215.786 205.023 214.39C204.004 214.202 203.507 212.387 202.706 211.896C202.145 212.866 201.395 210.747 203.011 209.759C201.683 208.86 199.68 207.641 198.799 206.465ZM206.183 215.637C207.201 217.477 208.356 217.533 209.789 218.058C208.615 216.499 207.996 214.772 206.183 215.637ZM218.073 224.554C218.473 224.664 218.904 224.63 219.449 224.071C219.053 223.711 218.748 222.379 217.784 222.954C217.69 223.756 218.69 223.893 218.439 224.329C218.343 224.291 218.242 224.267 218.073 224.554ZM220.51 224.312C219.266 225.918 219.8 224.109 219.36 224.479C219.517 224.707 218.958 225.237 218.677 225.427C220.246 225.333 219.66 226.951 221.807 225.652C221.826 226.529 223.165 226.601 222.423 227.941C223.107 227.466 222.699 227.53 223.332 226.678C222.427 226.4 222.456 225.553 222.124 224.927C220.954 226.632 220.828 224.703 220.51 224.312ZM224.214 227.737C225.369 228.012 224.69 229.537 225.564 229.578C225.362 228.872 226.28 227.487 225.82 226.937C225.008 228.859 225.373 226.75 224.214 227.737ZM188.567 203.818C188.397 200.494 185.387 199.816 183.742 198.235C183.999 198.538 183.453 199.292 182.969 199.594C184.777 201.35 186.417 203.321 188.567 203.818ZM214.595 220.814C214.298 220.721 214.615 219.096 214.268 220.123C214.339 220.2 214.397 220.282 214.178 220.535C213.602 220.352 213.49 219.887 213.296 219.473C212.438 220.596 214.127 221.086 214.595 220.814ZM210.459 227.411C210.233 228.441 211.265 227.413 211.658 227.747C211.531 227.922 211.513 228.18 211.796 227.841C211.99 226.693 211.32 227.063 210.459 227.411ZM197.12 149.096C198.136 148.445 197.554 148.803 198.446 148.111C201.592 151.46 203.714 152.803 206.829 155.611C206.618 155.85 206.463 155.831 206.235 156.149C206.743 156.219 208.356 155.571 207.671 157.584C207.967 157.439 208.296 157.149 208.632 156.82C208.758 156.981 208.333 157.476 208.088 157.862C208.243 157.877 208.454 157.638 208.592 157.732C209.214 157.678 208.367 157.139 209.275 156.785C210.066 157.696 208.951 158.907 210.802 157.808C211.33 158.455 211.03 159.899 212.239 159.239C212.399 159.611 212.177 159.931 211.694 160.283C213.136 159.592 213.136 160.918 214.141 161.456C213.745 161.817 213.42 161.845 213.131 161.715C212.46 162.877 213.985 161.999 213.419 163.315C212.767 163.344 212.087 164.032 211.994 163.294C211.551 165.575 214.438 166.652 215.471 167.035C214.871 167.17 214.521 168.781 215.383 167.443C215.421 167.894 214.775 168.76 215.027 169.08C214.432 169.885 214.056 169.098 213.84 170.157C214.247 170.558 214.795 168.795 215.444 169.358C215.579 168.744 215.168 168.461 216.026 167.407C216.178 167.683 216.466 167.336 216.76 166.96C216.828 167.98 215.27 167.872 215.759 168.635C216.677 167.863 218.034 168.307 218.612 168.672C217.954 166.695 215.929 167.23 215.411 165.12C216.873 163.334 217.045 164.89 217.026 165.734C217.438 165.897 217.227 165.063 217.936 164.47C217.949 164.773 218.888 165.239 219.045 165.215C219.004 166.288 218.017 165.634 217.58 166.106C217.821 166.378 218.369 168.194 220.155 165.96C219.892 166.711 219.376 167.617 219.71 168.005C219.852 167.682 219.997 167.358 219.889 167.186C220.759 166.904 219.307 168.919 218.523 169.082C219.503 171.134 223.013 173.012 225.607 175.243C226.872 176.327 228.535 177.291 229.314 178.666C229.8 179.525 232.471 181.009 234.03 181.83C234.148 182.053 233.575 182.699 233.259 183.187C235.46 181.997 235.518 184.794 237.876 185.348C238 185.508 237.577 186.003 237.331 186.388C237.491 186.714 238.629 185.816 237.658 187.077C240.389 186.051 241.258 188.813 242.691 189.516C242.892 189.616 243.457 189.101 243.423 189.07C243.691 189.313 243.328 190.54 243.851 190.762C244.463 191.024 244.589 191.296 245.01 192.011C245.39 192.654 246.251 193.843 246.497 193.944C246.69 194.025 247.146 193.278 247.368 193.591C247.546 193.846 247.074 194.43 247.107 194.748C247.233 194.621 248.404 195.284 249.082 195.212C248.04 196.374 251.236 196.681 251.956 198.076C251.415 198.668 251.093 198.416 250.908 199.248C252.027 199.308 253.194 197.698 252.799 200.049C254.374 199.169 254.232 200.152 255.334 200.813C254.881 201.439 254.667 200.96 254.147 201.891C255.193 200.83 254.695 202.625 255.799 201.595C255.884 201.736 255.686 202.041 255.515 202.171C257.145 201.524 258.201 203.292 258.902 204.144C258.123 204.897 258.171 205.333 257.714 205.223C257.807 205.899 258.532 206.857 257.32 207.767C257.79 207.54 257.934 207.636 257.874 208.141C258.195 207.773 258.217 207.586 258.149 207.453C259.345 209.105 261.268 211.143 261.819 212.662C262.462 211.894 262.083 212.568 262.967 212.496C262.658 212.704 262.305 213.109 261.918 213.667C262.317 213.786 263.078 212.225 263.383 212.777C261.912 215.055 264.981 213.462 264.226 214.747C264.426 214.805 264.759 214.248 265.047 213.893C265.249 214.811 265.613 214.73 266.713 215.009C264.62 215.61 266.426 215.844 267.179 215.79C266.752 216.541 266.59 216.062 266.218 216.552C266.024 217.279 266.382 218.011 267.279 216.795C266.826 218.767 267.64 219.273 267.954 220.998C266.403 221.839 265.13 221.276 263.487 220.343C263.181 220.344 263.252 220.784 262.805 221.291C260.301 220.687 259.02 218.387 256.207 218.739C258.071 222.927 262.845 224.033 265.333 227.208C263.8 227.444 263.247 227.362 261.788 226.703C261.26 227.674 262.371 227.649 262.215 228.394C261.637 228.86 261.313 228.158 260.789 228.375C261.933 230.719 264.229 231.39 266.487 233.604C265.794 234.844 265.706 233.297 264.932 234.905C260.886 231.48 255.184 232.41 254.214 228.648C254.83 228.006 255.08 229.048 255.55 229.079C255.385 226.917 253.492 226.195 252.072 225.337C248.101 222.94 244.083 220.632 240.242 218.338C240.026 218.648 240.235 218.699 240.293 218.84C235.406 217.546 229.26 213.488 226.283 209.441C225.91 209.691 225.7 209.195 225.185 210.109C225.172 207.763 223.153 208.014 221.668 207.279C217.866 205.404 215.284 200.865 211.58 199.575C213.089 198.295 211.244 199.178 210.609 198.924C208.072 197.902 205.422 194.387 202.742 192.707C202.327 195.254 206.116 195.108 206.37 197.954C205.852 198.878 205.88 197.288 205.361 198.214C205.848 202.014 210.016 200.71 210.513 204.483C210.932 204.296 210.829 203.924 211.474 203.721C215.598 205.482 220.314 210.272 224.384 213.79C224.866 214.208 225.93 213.561 226.594 213.866C232.18 216.428 234.202 222.654 239.466 224.846C236.371 224.158 235.156 221.951 231.52 220.451C231.32 220.393 230.987 220.95 230.698 221.308C228.939 220.09 229.031 218.711 227.635 217.847C220.9 213.664 213.794 207.654 205.226 204.683C204.525 204.586 204.422 205.782 203.81 206.077C203.425 203.701 200.577 204.528 201.014 201.389C200.435 201.422 200.758 202.348 200.748 202.616C198.724 202.722 199.526 198.24 196.942 198.189C196.373 199.304 197.204 199.567 196.914 200.513C196.785 200.805 195.969 200.04 196.171 199.546C194.666 200.908 192.975 198.347 192.059 197.255C190.739 198.639 189.7 195.179 187.959 196.379C191.171 199.64 196.704 201.623 199.392 205.927C199.832 205.422 199.715 205.256 199.571 205.108C200.295 204.9 200.657 205.357 200.086 206.391C200.596 206.814 200.392 205.877 201.046 205.63C201.238 206.202 201.223 206.446 201.285 206.727C203.174 206.661 203.717 208.74 204.575 209.872C206.721 212.007 204.029 208.936 202.693 210.484C204.85 213.281 209.3 214.675 211.027 217.481C209.947 219.136 210.532 217.158 209.702 218.466C210.338 219.753 211.707 219.841 212.386 220.737C212.947 219.567 211.575 219.573 212.643 218.094C213.863 218.627 214.78 219.984 215.693 220.144C214.02 222.414 216.29 222.894 217.497 221.353C218.35 221.249 217.138 222.401 217.735 222.451C217.965 222.491 218.328 221.917 218.191 221.819C220.309 222.706 225.027 225.431 226.651 227.496C226.688 227.829 226.422 228.346 226.018 228.947C226.618 228.951 226.669 227.873 227.157 227.368C227.882 228.852 229.563 228.383 229.476 229.859C228.72 231.136 228.53 229.822 228.049 229.841C227.833 230.653 228.497 230.274 227.416 231.291C230.9 233.179 231.711 233.766 234.49 236.038C231.21 236.859 230.358 233.18 227.527 233.708C226.923 232.008 225.269 232.415 224.425 231.159C224.013 230.994 224.223 231.831 223.514 232.424C222.824 232.483 223.18 232.241 222.682 231.864C221.975 232.649 222.53 232.668 222.416 233.091C221.709 233.832 222.245 232.074 221.356 232.849C221.139 234.634 223.82 232.398 224.219 234.301C223.893 234.967 224.475 234.798 223.676 235.341C224.409 235.724 224.324 236.605 225.251 236.868C225.861 237.268 224.882 237.429 224.745 236.998C223.302 236.347 220.893 236.405 221.001 234.485C219.691 235.111 220.433 233.674 219.525 233.963C219.735 233.369 220.337 232.56 220.941 232.569C219.521 229.642 216.143 228.879 213.677 227.228C213.103 229.814 216.441 228.698 216.284 231.321C214.797 231.309 214.05 230.252 213.005 229.589C214.009 228.705 212.705 228.032 212.074 228.026C211.769 228.024 211.837 228.468 211.391 228.974C210.865 227.836 209.71 228.174 208.617 227.113C208.78 226.599 209.332 225.848 209.112 225.568C207.886 227.867 209.011 224.514 207.774 225.141C210.362 223.29 208.784 227.35 210.636 226.594C209.988 224.273 209.281 222.243 206.971 222.258C206.395 223.081 207.324 222.99 206.247 224.117C205.211 223.418 205.018 222.631 203.751 222.442C204.103 222.042 204.287 222.413 204.535 222.498C204.608 219.855 202.497 218.516 200.767 217.159C200.11 217.542 200.098 218.161 200.135 218.609C199.482 219.412 199.221 218.42 198.619 218.999C198.291 214.025 192.069 214.96 192.016 209.883C191.628 210.508 191.179 210.128 190.325 211.089C189.194 210.457 188.903 208.914 186.957 209.766C186.996 207.606 183.166 208.546 184.755 204.54C181.707 206.152 180.71 204.968 178.9 202.957C179.26 202.522 179.396 203.123 179.773 202.602C179.501 201.644 178.47 201.148 177.87 200.388C177.381 201.455 178.429 201.587 178.94 202.044C177.672 203.616 178.059 201.851 177.097 201.747C178.393 198.166 175.094 198.119 173.431 197.411C173.181 198.095 173.976 198.144 173.947 198.693C171.787 199.115 171.676 196.41 169.973 196.497C170.278 196.074 170.58 195.654 170.884 195.233C168.728 192.686 166.343 192.034 163.217 191.025C162.775 190.993 163.03 191.63 162.394 191.881C159.175 189.933 156.166 186.879 152.141 186.406C152.069 186.79 153.699 186.919 152.479 188.508C152.283 187.655 150.869 186.868 151.121 185.252C147.571 183.439 143.137 181.914 139.441 179.757C136.383 177.975 132.81 176.961 129.792 175.159C123.84 171.604 119.71 167.399 114.801 163.694C113.372 162.616 112.278 161.313 112.233 158.69C114.657 156.05 115.42 157.524 117.422 157.485C117.462 156.691 117.977 155.608 117.45 155.159C117.63 154.993 118.67 154.177 118.36 153.895C120.956 151.24 121.978 153.475 124.003 152.06C124.194 150.09 121.879 150.99 120.763 149.417C120.305 150.582 120.769 151.188 121.38 151.704C119.362 152.096 117.838 149.91 117.345 147.593C118.9 146.545 118.422 148.408 120.108 148.041C120.857 146.355 121.92 146.454 122.662 145.067C122.676 144.348 122.099 143.988 121.73 143.504C122.36 143.284 123.236 141.938 123.789 142.074C124.615 140.979 124.441 140.494 124.6 139.805C124.437 139.47 123.11 140.954 123.323 141.292C122.1 142.396 122.651 139.366 121.48 140.995C122.172 139.457 123.123 140.105 123.818 139.748C124.164 138.709 123.695 138.167 123.707 137.331C124.657 136.708 124.824 138.061 125.233 138.355C125.538 138.356 125.47 137.914 125.915 137.407C125.44 136.226 124.091 134.707 123.408 134.319C124.393 132.906 123.692 134.732 124.419 134.058C124.495 132.325 126.281 129.771 128.227 126.771C129.415 126.719 129.888 126.4 130.623 127.444C130.984 127.264 131.124 126.731 131.812 126.365C132.527 124.811 131.322 123.863 130.641 123.706C131.999 122.561 131.864 121.009 131.718 120.21C132.423 119.155 132.807 119.587 133.411 119.002C135.508 115.045 137.934 115.672 140.043 114.08C143.202 115.181 144.85 118.822 147.999 119.886C148.994 120.223 150.45 119.913 151.406 120.298C153.585 121.172 155.364 122.745 157.46 123.89C163.814 127.364 169.102 131.804 176.036 134.949C178.23 135.944 181.083 136.929 183.377 138.469C187.205 141.036 191.774 142.828 193.879 146.454C194.24 146.274 194.396 145.668 194.979 145.784C194.819 147.767 198.474 145.725 197.12 149.096Z" fill="#FFDDDB"/>
<path fill-rule="evenodd" clip-rule="evenodd" d="M186.484 87.4509C185.743 88.1007 186.476 86.5999 185.702 87.393C185.838 88.3761 185.037 89.9275 185.635 90.6294C185.77 89.7147 186.127 89.7693 186.633 88.9567C185.768 90.0225 185.656 88.1194 186.484 87.4509ZM167.853 81.0403C167.538 80.9405 167.556 81.6135 167.258 81.5784C165.197 80.2659 163.601 77.5882 160.511 77.5221C159.552 75.2673 157.159 74.7537 155.468 73.6688C154.245 72.8843 153.458 71.0218 151.178 72.1971C153.399 74.0308 156.222 75.1719 157.748 77.0733C160.591 77.9165 163.283 80.4399 166.714 82.6201C166.766 82.944 165.859 83.8506 166.082 84.0704C166.636 83.4687 167.123 83.1719 167.545 83.1795C171.959 86.7321 175.873 89.3383 178.742 91.6296C178.786 91.974 177.779 93.8493 178.753 93.0421C178.696 92.8679 178.762 91.7791 179.159 91.909C180.494 93.7936 186.546 96.1375 187.542 99.4089C187.434 99.2371 187.578 98.9124 187.719 98.5893C189.945 100.433 192.882 100.766 193.873 103.186C192.59 100.4 191.29 97.0362 187.986 97.3626C188.214 97.0462 188.441 96.7301 188.668 96.4158C186.935 97.4888 187.326 94.1776 186.628 94.1066C183.135 95.9885 184.227 92.0196 182.049 91.0367C180.453 92.5566 179.39 90.5292 179.187 89.5837C175.658 87.4709 171.276 84.7237 167.853 81.0403ZM195.793 101.663C196.066 102.394 195.235 102.515 194.744 102.833C194.561 103.763 195.408 104.035 196.27 103.858C195.112 103.904 196.873 101.793 196.259 102.445C196.026 102.296 195.549 103.269 195.298 103.207C195.684 102.649 196.037 102.246 196.348 102.036C195.719 102.258 196.413 100.872 195.793 101.663ZM197.496 101.869C196.097 105.246 199.612 104.806 199.975 107.283C200.521 106.723 200.952 106.688 201.351 106.801C201.849 107.383 202.774 109.2 204.076 108.159C203.557 107.883 204.04 106.998 203.787 106.561C202.967 107.384 201.634 106.759 201.669 106.074C202.611 104.856 201.929 106.597 202.678 105.816C201.584 105.276 198.344 104.903 197.496 101.869ZM204.126 108.663C205.048 108.842 204.982 111.001 206.434 109.741C205.528 109.826 205.068 107.818 204.126 108.663ZM191.237 101.418C190.847 101.191 190.049 101.694 189.91 102.403C190.207 102.744 190.681 102.272 191.237 101.418ZM194.664 104.658C194.302 105.113 193.874 105.857 193.615 105.829C193.215 105.185 191.983 104.157 191.17 104.653C195.175 108.717 200.127 111.896 202.515 114.611C202.358 114.608 202.235 114.436 202.01 114.742C202.286 115.421 202.938 114.375 203.387 114.258C204.251 116.311 206.832 117.012 207.665 118.615C207.525 118.925 207.737 119.018 207.886 119.151C207.842 118.956 207.753 118.786 207.665 118.615C207.71 118.517 207.79 118.395 207.926 118.241C209.146 119.546 210.146 118.621 209.967 120.548C210.807 119.357 211.006 121.126 211.846 119.937C207.559 115.533 199.652 111.131 195.142 106.852C195.507 105.835 196.193 106.651 195.964 105.996C195.24 106.664 195.905 104.998 195.043 105.847C194.848 107.831 194.427 105.85 194.664 104.658ZM228.76 129.876C229.436 128.761 228.519 128.942 227.927 129.318C228.312 129.735 227.883 130.646 228.72 130.789C229.166 130.281 229.097 129.84 229.402 129.84C230.047 129.921 228.654 131.242 229.413 131.253C229.804 130.674 230.084 130.606 230.286 130.899C231.467 129.099 230.043 128.477 228.76 129.876ZM233.476 133.041C233.484 131.942 232.222 130.916 231.295 130.641C230.498 133.966 233.914 132.03 233.397 134.863C233.74 134.505 234.041 134.337 234.268 134.512C235.527 132.714 234.293 132.733 233.476 133.041ZM226.749 131.811C227.448 131.74 226.729 132.533 226.85 132.813C227.304 132.187 227.517 132.666 228.037 131.735C227.633 131.222 227.693 130.913 226.749 131.811ZM214.584 122.708C217.728 124.894 219.795 128.051 223.599 128.756C220.973 126.738 218.558 124.245 214.584 122.708ZM211.737 117.518C211.808 117.592 211.867 117.676 211.648 117.928C211.423 117.748 211.118 117.931 210.777 118.279C211.116 118.914 211.758 118.153 212.291 117.89C211.816 118.019 212.509 116.634 211.737 117.518ZM213.018 122.595C213.741 121.706 214.013 122.89 214.672 122.298C214.456 122.015 214.758 121.418 214.8 120.978C212.867 121.886 213.755 119.543 211.759 120.344C211.599 121.757 214.51 121.242 213.018 122.595ZM195.79 113.378C195.934 113.666 195.468 113.766 195.108 114.326C196.228 113.858 194.677 115.592 195.712 115.2C195.551 114.83 195.774 114.511 196.257 114.159C196.127 113.977 196.238 112.786 195.79 113.378ZM220.611 135.19C220.17 135.516 219.634 136.276 219.286 136.174C220.354 134.589 218.53 134.408 218.086 135.839C219.037 134.979 219.579 138.095 221.693 138.259C222.492 135.899 221.21 136.235 220.611 135.19ZM227.519 142.169C228.064 142.293 228.076 144.29 228.905 143.099C228.923 142.631 228.59 140.83 227.519 142.169ZM230.759 144.811C230.595 145.501 231.266 145.579 231.818 145.054C231.632 144.6 231.473 144.36 230.759 144.811ZM231.731 145.461C231.549 146.346 232.493 147.475 233.444 147.082C232.801 146.346 232.749 145.107 231.731 145.461ZM149.221 92.911C149.794 94.0472 150.361 94.8156 151.441 94.3997C151.397 93.5928 150.021 92.6683 149.221 92.911ZM151.857 94.6787C152.066 94.9229 152.188 96.1111 152.966 95.4236C153.062 94.9948 152.446 94.1048 151.857 94.6787ZM139.838 87.0848C139.307 86.0675 137.891 85.9586 136.975 85.631C137.62 86.3731 138.218 87.0939 139.838 87.0848ZM144.832 90.4349C146.183 91.2303 147.486 92.7877 149.171 92.4091C147.149 91.5628 146.801 90.0859 144.832 90.4349ZM207.406 128.673C207.204 128.425 206.891 126.807 205.931 128.149C206.781 128.293 206.398 129.564 207.406 128.673ZM217.582 135.969C218.341 135.026 217.84 134.234 217.116 135.188C216.905 136.074 217.764 135.211 217.582 135.969ZM227.836 141.441C225.842 141.414 225.556 138.492 223.08 139.19C224.8 139.986 225.116 142.399 227.836 141.441ZM213.51 132.767C214.943 133.287 215.36 135.901 217.433 134.461C215.872 134.206 215.679 130.965 213.51 132.767ZM179.014 115.246C179.154 116.167 180.207 116.533 179.907 117.72C179.09 116.66 177.207 114.715 175.935 115.523C178.19 117.729 180.966 118.519 182.603 121.403C182.458 121.669 182.159 122.029 182.288 122.128C182.591 121.708 182.895 121.285 183.198 120.864C183.273 121.625 184.444 122.66 185.366 121.852C185.04 119.669 183.172 118.351 181.839 117.609C181.774 117.809 182.176 118.529 181.661 118.428C181.172 117.244 180.155 115.443 179.014 115.246ZM188.458 122.988C187.675 123.362 188.235 122.123 187.398 122.744C187.543 122.973 187.003 124.495 187.637 123.841C187.577 123.701 187.665 123.469 187.952 123.118C188.13 123.273 188.533 123.404 188.458 122.988ZM188.735 123.173C188.432 123.595 188.129 124.016 187.825 124.438C189.887 127.087 191.843 127.519 194.442 129.818C193.901 125.44 189.98 126.886 188.735 123.173ZM194.998 130.189C195.193 131.126 198.243 131.276 196.902 132.402C196.759 132.829 198.774 132.183 198.695 132.199C197.803 131.328 196.258 129.228 194.998 130.189ZM199.526 132.759C199.219 133.196 198.961 133.407 198.705 133.613C198.829 134.009 198.513 135.101 199.398 134.078C199.183 133.795 199.485 133.197 199.526 132.759ZM174.619 117.921C174.987 119.058 176.612 119.43 175.979 121.176C175.752 120.997 175.447 121.182 175.108 121.527C176.433 120.795 174.469 123.087 175.573 122.309C176.303 121.388 177.823 123.697 178.613 122.944C178.394 120.432 176.991 117.932 174.619 117.921ZM168.903 116.43C168.919 119.392 170.305 116.345 171.728 118.793C172.149 117.162 169.546 116.748 171.747 115.054C169.84 116.37 169.195 111.901 167.358 112.578C167.198 113.384 167.955 113.633 167.19 114.809C167.306 114.345 166.633 114.266 166.129 114.569C167.272 114.996 167.493 117.114 168.903 116.43ZM166.218 114.159C165.796 114.153 165.589 113.156 165.02 113.823C165.404 114.31 165.34 114.948 166.218 114.159ZM108.531 83.4195C106.325 82.5892 106.67 81.5478 104.47 81.6308C105.024 82.6488 106.654 84.9167 108.531 83.4195ZM97.3565 77.7949C97.7653 78.1973 98.6573 78.3041 98.5166 79.0419C99.0088 77.6764 98.3527 77.0927 97.3565 77.7949ZM160.708 121.24C162.212 121.9 162.044 124.02 163.57 122.693C162.664 123.083 162.004 120.033 160.708 121.24ZM173.024 131.847C172.796 132.163 172.568 132.48 172.341 132.795C172.348 133.331 173.543 133.403 173.044 134.675C174.6 132.796 174.705 135.893 176.136 135.809C176.453 133.354 173.851 133.609 173.024 131.847ZM177.145 135.551C176.733 138.38 179.89 137.292 179.297 140.276C176.856 138.953 175.622 136.203 172.312 135.12C172.347 135.573 172.927 135.693 172.69 136.31C171.046 136.282 171.194 134.944 171.242 133.464C170.725 134.379 170.515 133.883 170.143 134.133C170.277 133.145 170.372 131.617 169.072 132.477C171.813 139.084 181.172 145.145 185.611 147.792C183.41 144.854 180.703 144.716 179.448 141.781C181.386 140.925 180.737 144.872 183.37 143.476C182.35 143.288 181.853 141.473 181.052 140.982C180.492 141.952 179.741 139.833 181.358 138.846C180.03 137.947 178.027 136.727 177.145 135.551ZM184.53 144.724C185.548 146.563 186.703 146.619 188.136 147.144C186.962 145.585 186.343 143.858 184.53 144.724ZM196.42 153.64C196.82 153.75 197.251 153.716 197.795 153.158C197.4 152.797 197.095 151.465 196.131 152.04C196.037 152.842 197.036 152.979 196.786 153.415C196.69 153.377 196.588 153.353 196.42 153.64ZM198.856 153.398C197.613 155.004 198.146 153.196 197.707 153.565C197.864 153.793 197.304 154.323 197.024 154.514C198.593 154.419 198.007 156.037 200.154 154.738C200.172 155.615 201.511 155.687 200.77 157.027C201.453 156.552 201.046 156.616 201.679 155.764C200.773 155.486 200.803 154.639 200.471 154.013C199.3 155.718 199.175 153.789 198.856 153.398ZM202.561 156.823C203.715 157.098 203.037 158.623 203.911 158.665C203.708 157.958 204.626 156.573 204.167 156.023C203.355 157.945 203.719 155.836 202.561 156.823ZM166.913 132.904C166.744 129.58 163.734 128.902 162.088 127.321C162.346 127.624 161.799 128.379 161.316 128.68C163.124 130.436 164.763 132.407 166.913 132.904ZM192.941 149.9C192.644 149.807 192.961 148.182 192.614 149.209C192.686 149.286 192.744 149.368 192.525 149.621C191.949 149.438 191.837 148.973 191.643 148.559C190.784 149.682 192.473 150.172 192.941 149.9ZM188.805 156.497C188.579 157.527 189.612 156.499 190.004 156.833C189.878 157.008 189.859 157.266 190.143 156.927C190.337 155.779 189.667 156.149 188.805 156.497ZM175.466 78.1823C176.483 77.5311 175.9 77.8887 176.793 77.1969C179.938 80.5461 182.061 81.8894 185.176 84.6967C184.964 84.9361 184.81 84.9175 184.582 85.2352C185.089 85.3056 186.702 84.6571 186.018 86.6704C186.314 86.5254 186.642 86.2351 186.979 85.9065C187.105 86.0671 186.68 86.5625 186.435 86.9481C186.59 86.9633 186.801 86.7236 186.938 86.8185C187.561 86.7636 186.714 86.2252 187.622 85.8708C188.412 86.7823 187.298 87.9935 189.148 86.8937C189.677 87.5408 189.377 88.9846 190.585 88.3255C190.746 88.6969 190.523 89.0169 190.04 89.3689C191.483 88.6781 191.482 90.0036 192.487 90.5416C192.092 90.9034 191.767 90.9308 191.477 90.801C190.807 91.9631 192.331 91.0852 191.766 92.4007C191.114 92.4301 190.434 93.1182 190.34 92.3798C189.897 94.6609 192.785 95.7381 193.818 96.1212C193.218 96.2565 192.867 97.8672 193.73 96.5295C193.768 96.9799 193.122 97.8463 193.374 98.1659C192.778 98.9709 192.402 98.1842 192.186 99.2432C192.593 99.6441 193.142 97.8812 193.791 98.4436C193.926 97.8304 193.515 97.5472 194.372 96.4935C194.525 96.7686 194.813 96.4221 195.107 96.0463C195.174 97.0656 193.617 96.9578 194.105 97.7206C195.024 96.9491 196.381 97.3932 196.959 97.7585C196.301 95.781 194.275 96.3158 193.758 94.2059C195.219 92.4203 195.392 93.9756 195.372 94.8202C195.784 94.9835 195.574 94.1489 196.283 93.5561C196.295 93.8591 197.235 94.325 197.392 94.3009C197.351 95.3738 196.363 94.7199 195.926 95.1924C196.168 95.4639 196.715 97.28 198.502 95.0465C198.239 95.7976 197.723 96.7028 198.057 97.0908C198.198 96.768 198.343 96.4437 198.235 96.272C199.106 95.9905 197.654 98.0048 196.87 98.1681C197.849 100.22 201.36 102.098 203.954 104.329C205.218 105.413 206.881 106.377 207.661 107.752C208.147 108.611 210.818 110.095 212.377 110.916C212.495 111.14 211.921 111.786 211.606 112.273C213.806 111.083 213.864 113.88 216.222 114.434C216.346 114.594 215.924 115.089 215.678 115.474C215.837 115.8 216.975 114.902 216.005 116.163C218.736 115.137 219.605 117.899 221.038 118.602C221.238 118.702 221.803 118.187 221.77 118.156C222.037 118.399 221.675 119.626 222.197 119.848C222.81 120.111 222.935 120.382 223.356 121.097C223.737 121.74 224.598 122.929 224.843 123.03C225.036 123.111 225.493 122.364 225.715 122.677C225.892 122.932 225.421 123.516 225.453 123.834C225.58 123.707 226.75 124.37 227.428 124.298C226.387 125.46 229.583 125.767 230.302 127.162C229.762 127.754 229.44 127.502 229.254 128.334C230.374 128.394 231.54 126.784 231.145 129.135C232.721 128.256 232.579 129.238 233.68 129.899C233.228 130.525 233.014 130.046 232.494 130.977C233.539 129.916 233.042 131.711 234.146 130.681C234.231 130.822 234.032 131.127 233.861 131.257C235.492 130.61 236.548 132.378 237.249 133.23C236.47 133.983 236.518 134.419 236.06 134.309C236.154 134.985 236.879 135.943 235.667 136.853C236.136 136.626 236.28 136.722 236.221 137.227C236.542 136.859 236.563 136.672 236.495 136.539C237.691 138.191 239.614 140.229 240.166 141.748C240.808 140.98 240.43 141.654 241.314 141.582C241.005 141.79 240.652 142.195 240.265 142.753C240.664 142.872 241.425 141.311 241.73 141.863C240.259 144.141 243.328 142.548 242.573 143.833C242.773 143.891 243.105 143.335 243.394 142.979C243.596 143.897 243.959 143.816 245.059 144.095C242.967 144.696 244.773 144.93 245.526 144.876C245.098 145.627 244.936 145.148 244.565 145.638C244.371 146.365 244.729 147.097 245.626 145.881C245.173 147.853 245.986 148.359 246.301 150.084C244.75 150.925 243.476 150.362 241.834 149.429C241.528 149.43 241.598 149.87 241.152 150.377C238.648 149.773 237.367 147.473 234.554 147.825C236.418 152.013 241.192 153.119 243.68 156.294C242.147 156.53 241.594 156.448 240.135 155.789C239.607 156.76 240.717 156.735 240.562 157.481C239.984 157.946 239.66 157.244 239.136 157.461C240.28 159.805 242.575 160.477 244.834 162.69C244.14 163.93 244.053 162.383 243.279 163.991C239.232 160.566 233.53 161.496 232.561 157.735C233.177 157.092 233.427 158.134 233.896 158.165C233.732 156.003 231.839 155.281 230.419 154.423C226.448 152.026 222.43 149.718 218.589 147.424C218.372 147.734 218.582 147.785 218.64 147.927C213.752 146.632 207.606 142.574 204.629 138.527C204.257 138.778 204.047 138.281 203.532 139.195C203.518 136.85 201.5 137.1 200.015 136.365C196.212 134.49 193.631 129.951 189.926 128.661C191.436 127.381 189.59 128.264 188.956 128.01C186.419 126.988 183.768 123.473 181.088 121.793C180.673 124.34 184.463 124.194 184.717 127.04C184.199 127.964 184.226 126.374 183.707 127.3C184.194 131.1 188.362 129.796 188.859 133.569C189.279 133.382 189.175 133.01 189.821 132.807C193.945 134.568 198.661 139.359 202.731 142.876C203.212 143.294 204.276 142.647 204.941 142.952C210.526 145.514 212.549 151.74 217.812 153.932C214.717 153.244 213.503 151.037 209.866 149.537C209.666 149.479 209.334 150.037 209.045 150.394C207.285 149.176 207.377 147.797 205.982 146.933C199.247 142.75 192.141 136.74 183.572 133.769C182.872 133.672 182.769 134.868 182.157 135.164C181.772 132.787 178.924 133.614 179.361 130.475C178.782 130.508 179.105 131.434 179.094 131.702C177.07 131.808 177.873 127.326 175.288 127.275C174.72 128.39 175.55 128.653 175.261 129.599C175.131 129.891 174.315 129.126 174.517 128.632C173.013 129.994 171.322 127.433 170.406 126.341C169.085 127.725 168.047 124.265 166.305 125.465C169.518 128.726 175.05 130.709 177.739 135.013C178.179 134.508 178.062 134.342 177.918 134.194C178.641 133.986 179.004 134.443 178.433 135.477C178.943 135.9 178.738 134.963 179.392 134.716C179.585 135.288 179.569 135.532 179.632 135.813C181.521 135.748 182.064 137.826 182.922 138.958C185.068 141.093 182.376 138.023 181.04 139.57C183.197 142.367 187.647 143.762 189.374 146.567C188.294 148.222 188.878 146.244 188.049 147.552C188.685 148.839 190.054 148.927 190.733 149.823C191.293 148.653 189.921 148.659 190.989 147.181C192.209 147.713 193.127 149.07 194.039 149.23C192.366 151.5 194.637 151.98 195.844 150.439C196.696 150.335 195.485 151.487 196.082 151.537C196.312 151.577 196.674 151.003 196.537 150.905C198.655 151.792 203.373 154.517 204.998 156.582C205.035 156.915 204.769 157.432 204.365 158.033C204.965 158.037 205.016 156.959 205.503 156.454C206.229 157.938 207.909 157.469 207.823 158.945C207.067 160.222 206.877 158.908 206.396 158.927C206.18 159.739 206.843 159.36 205.763 160.377C209.247 162.266 210.058 162.852 212.837 165.124C209.556 165.945 208.704 162.266 205.874 162.794C205.27 161.094 203.616 161.501 202.771 160.246C202.36 160.081 202.57 160.917 201.861 161.51C201.171 161.569 201.527 161.327 201.029 160.95C200.322 161.735 200.876 161.754 200.763 162.177C200.056 162.918 200.592 161.16 199.703 161.935C199.486 163.72 202.166 161.484 202.566 163.387C202.24 164.053 202.822 163.884 202.022 164.427C202.755 164.81 202.671 165.691 203.598 165.954C204.208 166.354 203.229 166.515 203.091 166.084C201.649 165.433 199.239 165.491 199.348 163.571C198.038 164.197 198.78 162.76 197.871 163.049C198.082 162.455 198.683 161.646 199.288 161.655C197.867 158.728 194.49 157.966 192.024 156.314C191.45 158.9 194.788 157.784 194.631 160.407C193.144 160.395 192.396 159.338 191.352 158.675C192.356 157.791 191.052 157.118 190.42 157.112C190.116 157.11 190.183 157.554 189.738 158.061C189.211 156.922 188.057 157.26 186.964 156.199C187.127 155.685 187.678 154.935 187.458 154.654C186.233 156.953 187.357 153.6 186.121 154.227C188.709 152.376 187.13 156.436 188.983 155.68C188.335 153.359 187.627 151.329 185.317 151.344C184.741 152.167 185.671 152.076 184.594 153.204C183.558 152.504 183.364 151.717 182.097 151.528C182.449 151.128 182.634 151.499 182.881 151.584C182.955 148.941 180.844 147.602 179.114 146.245C178.456 146.628 178.444 147.247 178.481 147.695C177.829 148.498 177.568 147.506 176.966 148.085C176.637 143.111 170.416 144.046 170.363 138.969C169.975 139.594 169.526 139.214 168.671 140.175C167.541 139.544 167.25 138 165.303 138.852C165.342 136.692 161.512 137.632 163.102 133.626C160.054 135.238 159.057 134.054 157.247 132.043C157.606 131.608 157.742 132.209 158.119 131.689C157.847 130.73 156.816 130.234 156.216 129.474C155.728 130.541 156.775 130.673 157.287 131.13C156.019 132.702 156.405 130.937 155.444 130.833C156.74 127.252 153.44 127.205 151.777 126.497C151.528 127.181 152.322 127.23 152.294 127.779C150.134 128.201 150.023 125.496 148.32 125.583C148.625 125.161 148.927 124.74 149.23 124.319C147.074 121.772 144.69 121.12 141.563 120.111C141.121 120.079 141.376 120.716 140.74 120.967C137.522 119.019 134.513 115.965 130.488 115.492C130.416 115.876 132.045 116.005 130.826 117.594C130.63 116.741 129.216 115.954 129.468 114.338C125.917 112.525 121.483 111 117.787 108.843C114.729 107.061 111.156 106.047 108.139 104.245C102.186 100.691 98.0563 96.4847 93.1474 92.7802C91.7187 91.7023 90.6244 90.3988 90.5794 87.776C93.0032 85.1366 93.7662 86.6097 95.7684 86.5708C95.8082 85.7769 96.3236 84.694 95.7965 84.2451C95.9764 84.0792 97.017 83.2627 96.707 82.981C99.3023 80.3264 100.325 82.5614 102.349 81.1463C102.541 79.1757 100.226 80.0761 99.1094 78.5028C98.6518 79.6684 99.1157 80.2742 99.7265 80.7905C97.7082 81.1818 96.1851 78.9963 95.6918 76.6787C97.2466 75.6315 96.7683 77.4943 98.4547 77.1272C99.2033 75.4406 100.266 75.54 101.009 74.1528C101.022 73.4342 100.446 73.074 100.077 72.5901C100.707 72.3699 101.582 71.0236 102.136 71.1598C102.962 70.0653 102.788 69.5796 102.947 68.891C102.784 68.5565 101.456 70.0399 101.67 70.3776C100.446 71.4825 100.998 68.4519 99.8271 70.0806C100.519 68.5434 101.47 69.1907 102.164 68.8344C102.511 67.7949 102.041 67.2534 102.054 66.4172C103.003 65.7936 103.17 67.1476 103.579 67.4414C103.885 67.4418 103.817 66.9999 104.262 66.4931C103.787 65.3116 102.438 63.7932 101.755 63.405C102.74 61.9924 102.039 63.8183 102.766 63.1442C102.842 61.411 104.628 58.8574 106.574 55.8574C107.762 55.8048 108.235 55.4857 108.97 56.5297C109.33 56.3497 109.471 55.8166 110.158 55.4513C110.873 53.8972 109.669 52.9495 108.987 52.7918C110.345 51.6466 110.211 50.0949 110.065 49.2959C110.77 48.2411 111.153 48.6735 111.758 48.0884C113.855 44.1306 116.28 44.7586 118.39 43.1662C121.549 44.2674 123.196 47.9084 126.346 48.9723C127.34 49.3095 128.796 48.9987 129.753 49.3842C131.932 50.2576 133.71 51.8315 135.806 52.9763C142.16 56.4505 147.449 60.8902 154.382 64.0349C156.577 65.0305 159.429 66.0154 161.723 67.5548C165.551 70.1224 170.121 71.9141 172.225 75.54C172.586 75.3601 172.742 74.754 173.325 74.8697C173.165 76.8532 176.821 74.8108 175.466 78.1823Z" fill="#FFDDDB"/>
<path fill-rule="evenodd" clip-rule="evenodd" d="M91.3474 183.588C92.0826 182.931 91.363 184.438 92.1293 183.638C91.9844 182.657 92.7718 181.098 92.1678 180.401C92.0404 181.317 91.6828 181.266 91.1848 182.083C92.0404 181.01 92.1694 182.912 91.3474 183.588ZM110.036 189.83C110.351 189.927 110.327 189.254 110.625 189.286C112.698 190.58 114.319 193.243 117.408 193.281C118.388 195.527 120.786 196.019 122.486 197.089C123.717 197.862 124.52 199.718 126.789 198.522C124.552 196.708 121.718 195.593 120.176 193.705C117.325 192.888 114.611 190.389 111.16 188.24C111.105 187.916 112.004 187.001 111.779 186.784C111.23 187.39 110.745 187.692 110.323 187.688C105.878 184.175 101.941 181.604 99.0513 179.339C99.0038 178.995 99.9941 177.111 99.0276 177.927C99.0857 178.1 99.0299 179.19 98.6321 179.063C97.28 177.191 91.2064 174.902 90.1817 171.64C90.2912 171.81 90.1497 172.136 90.0115 172.461C87.769 170.637 84.8291 170.331 83.817 167.92C85.1247 170.694 86.4552 174.046 89.7554 173.69C89.5311 174.008 89.3063 174.326 89.082 174.643C90.8057 173.554 90.4448 176.869 91.1432 176.933C94.6186 175.02 93.5632 178.999 95.7492 179.962C97.3315 178.428 98.4132 180.445 98.6245 181.389C102.172 183.47 106.579 186.177 110.036 189.83ZM81.9104 169.46C81.6309 168.732 82.4603 168.603 82.9483 168.28C83.1236 167.349 82.2736 167.085 81.4135 167.27C82.571 167.213 80.8288 169.34 81.4377 168.682C81.6718 168.829 82.1397 167.852 82.3912 167.911C82.0106 168.473 81.6614 168.879 81.3518 169.092C81.9793 168.864 81.2978 170.257 81.9104 169.46ZM80.2053 169.269C81.5736 165.88 78.0628 166.352 77.6776 163.878C77.1375 164.443 76.7059 164.482 76.3068 164.373C75.8031 163.795 74.8621 161.986 73.5695 163.039C74.091 163.31 73.6158 164.2 73.8724 164.634C74.6855 163.804 76.0238 164.417 75.9948 165.102C75.0635 166.329 75.7305 164.582 74.9886 165.37C76.0866 165.9 79.3306 166.243 80.2053 169.269ZM73.5149 162.536C72.5909 162.365 72.6374 160.205 71.1973 161.478C72.1025 161.386 72.58 163.389 73.5149 162.536ZM86.4685 169.664C86.8602 169.887 87.6538 169.377 87.7863 168.667C87.4861 168.329 87.017 168.805 86.4685 169.664ZM83.012 166.455C83.3702 165.997 83.7916 165.249 84.0504 165.275C84.4562 165.915 85.6981 166.932 86.5061 166.428C82.4643 162.4 77.4843 159.267 75.0718 156.573C75.2294 156.575 75.3533 156.746 75.5758 156.438C75.2935 155.761 74.6515 156.813 74.2036 156.934C73.3205 154.889 70.7336 154.211 69.8862 152.616C70.0236 152.305 69.8102 152.214 69.6607 152.082C69.7061 152.277 69.7964 152.446 69.8862 152.616C69.8421 152.714 69.7627 152.837 69.6289 152.993C68.397 151.699 67.4049 152.632 67.5668 150.703C66.7376 151.902 66.5222 150.136 65.6929 151.332C70.0195 155.697 77.966 160.027 82.5146 164.266C82.1591 165.285 81.465 164.476 81.7004 165.129C82.4186 164.455 81.7685 166.126 82.6232 165.269C82.7998 163.283 83.2386 165.26 83.012 166.455ZM48.6909 141.545C48.0242 142.667 48.9395 142.478 49.5288 142.096C49.1398 141.682 49.5608 140.768 48.7227 140.633C48.281 141.144 48.354 141.585 48.0489 141.587C47.4027 141.512 48.784 140.179 48.0247 140.175C47.6395 140.757 47.3601 140.828 47.1556 140.537C45.9909 142.347 47.42 142.956 48.6909 141.545ZM43.9464 138.423C43.948 139.522 45.2196 140.537 46.1484 140.804C46.9157 137.471 43.5175 139.438 44.0086 136.601C43.669 136.962 43.369 137.132 43.1408 136.96C41.8983 138.769 43.1316 138.739 43.9464 138.423ZM50.6839 139.593C49.9855 139.67 50.6971 138.871 50.5734 138.592C50.1258 139.221 49.9081 138.745 49.3965 139.68C49.8048 140.19 49.7481 140.499 50.6839 139.593ZM62.9309 148.585C59.767 146.428 57.6715 143.289 53.8612 142.619C56.5059 144.614 58.9428 147.085 62.9309 148.585ZM65.8247 153.75C65.7522 153.676 65.6927 153.593 65.9095 153.339C66.1364 153.516 66.4394 153.331 66.7773 152.98C66.433 152.348 65.7975 153.115 65.2666 153.382C65.7409 153.25 65.0598 154.641 65.8247 153.75ZM64.4971 148.684C63.7823 149.58 63.4998 148.399 62.8465 148.996C63.0644 149.277 62.7678 149.877 62.7298 150.318C64.6548 149.392 63.7882 151.743 65.7764 150.924C65.9237 149.509 63.0181 150.051 64.4971 148.684ZM81.8078 157.746C81.6614 157.458 82.1259 157.355 82.4816 156.791C81.3653 157.269 82.9011 155.522 81.869 155.923C82.034 156.291 81.8141 156.613 81.3336 156.969C81.4658 157.15 81.3655 158.341 81.8078 157.746ZM56.7908 136.159C57.2292 135.828 57.7581 135.063 58.1071 135.163C57.0534 136.757 58.8794 136.922 59.3101 135.486C58.3667 136.355 57.7968 133.244 55.6818 133.1C54.9038 135.466 56.1826 135.119 56.7908 136.159ZM49.8211 129.242C49.2748 129.123 49.2444 127.126 48.4262 128.325C48.4122 128.792 48.7616 130.591 49.8211 129.242ZM46.5565 126.63C46.7152 125.938 46.0426 125.866 45.4954 126.396C45.6854 126.848 45.8475 127.087 46.5565 126.63ZM45.5793 125.988C45.7527 125.102 44.7991 123.982 43.8514 124.383C44.5011 125.113 44.5641 126.351 45.5793 125.988ZM128.559 177.791C127.976 176.66 127.402 175.897 126.326 176.323C126.378 177.129 127.762 178.041 128.559 177.791ZM125.908 176.047C125.696 175.805 125.563 174.618 124.792 175.313C124.7 175.742 125.323 176.627 125.908 176.047ZM137.994 183.532C138.534 184.545 139.951 184.641 140.87 184.96C140.219 184.224 139.614 183.509 137.994 183.532ZM132.97 180.228C131.612 179.444 130.295 177.899 128.614 178.293C130.643 179.121 131.005 180.594 132.97 180.228ZM70.0545 142.556C70.2585 142.803 70.5862 144.418 71.5339 143.066C70.6833 142.93 71.0547 141.656 70.0545 142.556ZM59.8132 135.353C59.0629 136.302 59.5708 137.089 60.2863 136.129C60.489 135.241 59.6379 136.112 59.8132 135.353ZM49.5106 129.973C51.5048 129.982 51.8166 132.901 54.2858 132.181C52.5588 131.4 52.222 128.991 49.5106 129.973ZM63.9141 138.517C62.4761 138.01 62.0356 135.4 59.9753 136.859C61.5387 137.1 61.7607 140.338 63.9141 138.517ZM98.5659 155.726C98.4183 154.806 97.3621 154.45 97.6508 153.26C98.4778 154.313 100.378 156.24 101.643 155.421C99.3675 153.236 96.5845 152.471 94.9216 149.601C95.0642 149.334 95.3606 148.972 95.2302 148.874C94.9317 149.297 94.6312 149.722 94.3317 150.146C94.2503 149.386 93.0699 148.361 92.1548 149.178C92.5002 151.357 94.3809 152.659 95.7205 153.389C95.7831 153.188 95.3745 152.472 95.8907 152.568C96.3909 153.747 97.4235 155.54 98.5659 155.726ZM89.0528 148.069C89.8329 147.689 89.2833 148.933 90.115 148.304C89.9683 148.076 90.4941 146.55 89.8661 147.209C89.9272 147.349 89.8413 147.581 89.5578 147.935C89.3783 147.782 88.9738 147.655 89.0528 148.069ZM88.774 147.887C89.0736 147.462 89.373 147.038 89.6731 146.615C87.5865 143.984 85.6277 143.57 83.0074 141.294C83.5882 145.667 87.4956 144.186 88.774 147.887ZM82.4483 140.928C82.2453 139.993 79.1941 139.87 80.5247 138.732C80.6632 138.304 78.6546 138.968 78.7337 138.951C79.6336 139.815 81.1966 141.901 82.4483 140.928ZM77.8973 138.399C78.2005 137.96 78.4562 137.746 78.711 137.537C78.5827 137.143 78.8893 136.048 78.013 137.079C78.2309 137.36 77.9348 137.96 77.8973 138.399ZM102.937 153.012C102.559 151.878 100.931 151.52 101.548 149.769C101.776 149.946 102.08 149.758 102.415 149.41C101.097 150.154 103.041 147.845 101.944 148.633C101.221 149.56 99.6816 147.265 98.898 148.024C99.1394 150.535 100.565 153.022 102.937 153.012ZM108.666 154.451C108.623 151.49 107.266 154.549 105.82 152.114C105.413 153.748 108.02 154.139 105.835 155.853C107.73 154.519 108.415 158.983 110.246 158.289C110.399 157.481 109.64 157.239 110.394 156.056C110.282 156.521 110.955 156.594 111.457 156.287C110.31 155.87 110.07 153.754 108.666 154.451ZM111.371 156.698C111.794 156.7 112.009 157.694 112.573 157.022C112.184 156.539 112.242 155.901 111.371 156.698ZM169.334 186.915C171.546 187.725 171.211 188.77 173.41 188.667C172.847 187.654 171.197 185.401 169.334 186.915ZM180.558 192.438C180.146 192.04 179.253 191.941 179.387 191.202C178.907 192.572 179.568 193.15 180.558 192.438ZM116.818 149.567C115.307 148.921 115.457 146.799 113.942 148.14C114.845 147.742 115.533 150.786 116.818 149.567ZM104.407 139.072C104.631 138.754 104.857 138.434 105.081 138.118C105.069 137.581 103.873 137.52 104.361 136.244C102.822 138.137 102.689 135.041 101.259 135.137C100.964 137.596 103.563 137.317 104.407 139.072ZM100.252 135.405C100.639 132.573 97.4917 133.688 98.0577 130.699C100.511 132 101.769 134.739 105.089 135.792C105.049 135.34 104.469 135.225 104.701 134.605C106.344 134.619 106.209 135.958 106.174 137.439C106.683 136.519 106.897 137.013 107.266 136.759C107.142 137.749 107.06 139.278 108.352 138.406C105.552 131.824 96.1386 125.848 91.6761 123.241C93.9037 126.159 96.6122 126.273 97.8937 129.196C95.9634 130.07 96.5764 126.117 93.9562 127.536C94.9774 127.715 95.4908 129.526 96.2962 130.009C96.8477 129.035 97.6176 131.146 96.0102 132.149C97.3457 133.036 99.3599 134.237 100.252 135.405ZM92.7851 126.3C91.7506 124.47 90.5948 124.424 89.1577 123.912C90.3453 125.46 90.9798 127.182 92.7851 126.3ZM80.8154 117.491C80.4144 117.384 79.9838 117.422 79.4441 117.986C79.843 118.343 80.1599 119.672 81.1184 119.088C81.2052 118.285 80.2047 118.157 80.4512 117.719C80.5478 117.756 80.6494 117.779 80.8154 117.491ZM78.381 117.754C79.6098 116.138 79.0929 117.951 79.529 117.577C79.3698 117.35 79.9247 116.816 80.2033 116.623C78.635 116.732 79.2064 115.108 77.0714 116.426C77.045 115.55 75.7055 115.49 76.4351 114.143C75.7556 114.624 76.1624 114.557 75.5375 115.415C76.4453 115.684 76.4234 116.532 76.7608 117.154C77.9159 115.439 78.0591 117.367 78.381 117.754ZM74.6456 114.363C73.489 114.098 74.1536 112.568 73.2791 112.534C73.4882 113.238 72.5827 114.632 73.0472 115.178C73.8415 113.249 73.4961 115.361 74.6456 114.363ZM110.507 137.96C110.707 141.282 113.723 141.933 115.382 143.499C115.122 143.198 115.662 142.439 116.143 142.133C114.319 140.393 112.662 138.437 110.507 137.96ZM84.3275 121.2C84.6249 121.29 84.3228 122.917 84.6603 121.887C84.5884 121.811 84.5298 121.729 84.7461 121.475C85.3238 121.653 85.4398 122.116 85.6375 122.528C86.4862 121.398 84.7929 120.923 84.3275 121.2ZM88.4036 114.565C88.6205 113.533 87.5973 114.57 87.2016 114.24C87.3265 114.064 87.3429 113.805 87.0626 114.148C86.8787 115.297 87.5454 114.921 88.4036 114.565ZM102.448 192.756C101.437 193.417 102.017 193.054 101.131 193.754C97.9548 190.433 95.8202 189.109 92.6802 186.33C92.8895 186.088 93.0439 186.106 93.2691 185.786C92.761 185.72 91.1541 186.383 91.8206 184.364C91.5257 184.511 91.1997 184.805 90.8661 185.136C90.7389 184.977 91.1592 184.478 91.401 184.09C91.2456 184.076 91.0368 184.318 90.8983 184.224C90.2767 184.284 91.1283 184.815 90.2236 185.178C89.4251 184.273 90.5284 183.052 88.6878 184.169C88.1536 183.526 88.4409 182.08 87.2383 182.75C87.0742 182.38 87.2937 182.058 87.7737 181.702C86.3374 182.405 86.3262 181.08 85.316 180.551C85.7085 180.186 86.033 180.155 86.3237 180.283C86.9841 179.115 85.4672 180.006 86.0212 178.686C86.6724 178.65 87.3466 177.956 87.4465 178.694C87.8688 176.409 84.9717 175.358 83.9354 174.984C84.5345 174.843 84.87 173.229 84.0198 174.575C83.9779 174.125 84.6161 173.252 84.3613 172.935C84.9492 172.125 85.3322 172.908 85.5387 171.847C85.1283 171.45 84.5955 173.218 83.9416 172.661C83.8119 173.276 84.2253 173.555 83.3778 174.617C83.2225 174.343 82.938 174.692 82.6471 175.07C82.5706 174.052 84.129 174.145 83.6334 173.387C82.7222 174.167 81.361 173.735 80.7799 173.375C81.4555 175.346 83.4763 174.793 84.0126 176.898C82.5672 178.697 82.3806 177.144 82.3929 176.299C81.9793 176.139 82.1975 176.972 81.4938 177.571C81.4785 177.268 80.5345 176.811 80.3782 176.836C80.4092 175.763 81.4028 176.408 81.8353 175.932C81.5916 175.662 81.0278 173.851 79.2615 176.101C79.5175 175.347 80.0256 174.437 79.6878 174.053C79.5492 174.377 79.4072 174.702 79.5167 174.873C78.6491 175.162 80.0824 173.135 80.8652 172.965C79.8673 170.921 76.3401 169.075 73.7258 166.868C72.4517 165.795 70.7801 164.846 69.9881 163.479C69.4943 162.624 66.8104 161.164 65.2436 160.357C65.1239 160.135 65.6915 159.484 66.0023 158.993C63.8128 160.203 63.7298 157.406 61.3669 156.874C61.2412 156.715 61.6596 156.217 61.9018 155.829C61.7397 155.505 60.6098 156.413 61.5685 155.143C58.8472 156.194 57.953 153.44 56.5139 152.75C56.3124 152.651 55.7521 153.171 55.7861 153.202C55.5163 152.962 55.8675 151.731 55.3432 151.514C54.7282 151.257 54.6003 150.987 54.173 150.276C53.7868 149.636 52.9152 148.455 52.6685 148.356C52.475 148.276 52.0253 149.028 51.8003 148.717C51.6207 148.463 52.0871 147.875 52.0514 147.558C51.926 147.686 50.7496 147.033 50.0725 147.112C51.1033 145.94 47.9048 145.662 47.1726 144.273C47.7081 143.677 48.0318 143.926 48.2101 143.093C47.0899 143.042 45.938 144.662 46.312 142.309C44.7447 143.202 44.8775 142.218 43.7701 141.567C44.2173 140.937 44.4353 141.414 44.9469 140.479C43.911 141.549 44.3925 139.75 43.2978 140.789C43.2111 140.649 43.4073 140.343 43.5768 140.211C41.9522 140.873 40.8804 139.114 40.172 138.268C40.9441 137.509 40.8919 137.073 41.3504 137.179C41.2512 136.504 40.5171 135.552 41.7209 134.631C41.2538 134.863 41.1087 134.768 41.1637 134.262C40.8458 134.633 40.8263 134.821 40.8953 134.953C39.6846 133.312 37.7433 131.291 37.1779 129.777C36.5426 130.551 36.9152 129.874 36.0314 129.954C36.3386 129.743 36.6882 129.335 37.0699 128.774C36.6703 128.658 35.9229 130.225 35.6133 129.677C37.0634 127.385 34.0091 129.006 34.7526 127.714C34.552 127.658 34.2243 128.217 33.939 128.576C33.729 127.659 33.3662 127.744 32.2638 127.474C34.3505 126.855 32.5424 126.637 31.7901 126.698C32.2108 125.943 32.377 126.42 32.7441 125.927C32.9317 125.198 32.567 124.47 31.6814 125.694C32.1163 123.718 31.2982 123.219 30.9684 121.497C32.5116 120.642 33.7901 121.194 35.4408 122.112C35.7469 122.108 35.6724 121.669 36.1146 121.157C38.6236 121.739 39.9255 124.027 42.7349 123.65C40.8333 119.479 36.05 118.416 33.5334 115.264C35.0641 115.014 35.6179 115.09 37.0829 115.737C37.6019 114.761 36.4916 114.795 36.6405 114.049C37.2145 113.578 37.5447 114.278 38.0665 114.055C36.9014 111.722 34.5999 111.071 32.3215 108.878C33.0037 107.632 33.1056 109.178 33.8646 107.564C37.942 110.951 43.6356 109.97 44.6388 113.723C44.0285 114.371 43.7691 113.331 43.2993 113.305C43.4835 115.464 45.3827 116.169 46.8105 117.015C50.8032 119.376 54.8416 121.648 58.7029 123.906C58.9167 123.594 58.7071 123.546 58.6474 123.405C63.5467 124.655 69.729 128.657 72.7423 132.677C73.1124 132.423 73.3269 132.918 73.8339 131.999C73.8682 134.345 75.8845 134.076 77.3763 134.798C81.1951 136.638 83.8174 141.154 87.5337 142.41C86.0357 143.703 87.873 142.804 88.51 143.053C91.0563 144.051 93.738 147.542 96.4332 149.198C96.8252 146.647 93.0372 146.828 92.7576 143.984C93.2673 143.055 93.254 144.645 93.7647 143.715C93.2435 139.92 89.0872 141.261 88.5562 137.492C88.1383 137.684 88.2452 138.054 87.6016 138.263C83.4622 136.54 78.7027 131.792 74.6016 128.311C74.1161 127.898 73.058 128.554 72.3906 128.256C66.7826 125.744 64.7039 119.536 59.4209 117.392C62.5219 118.052 63.7564 120.248 67.4063 121.715C67.6068 121.771 67.9342 121.211 68.22 120.851C69.9905 122.053 69.911 123.433 71.3139 124.284C78.0866 128.406 85.2464 134.351 93.8412 137.245C94.5429 137.336 94.6349 136.139 95.2443 135.838C95.6505 138.211 98.4912 137.358 98.0821 140.5C98.6607 140.463 98.3296 139.539 98.3377 139.271C100.361 139.147 99.5985 143.637 102.184 143.664C102.742 142.544 101.909 142.289 102.19 141.339C102.317 141.047 103.14 141.805 102.942 142.3C104.434 140.925 106.148 143.47 107.074 144.554C108.382 143.158 109.452 146.608 111.182 145.393C107.941 142.16 102.39 140.228 99.6631 135.949C99.228 136.457 99.3466 136.622 99.4914 136.769C98.7701 136.983 98.4033 136.529 98.9651 135.49C98.4512 135.073 98.6642 136.007 98.0125 136.26C97.815 135.69 97.8282 135.446 97.7631 135.165C95.875 135.248 95.3131 133.174 94.445 132.05C92.28 129.934 94.9996 132.981 96.3213 131.421C94.1394 128.644 89.6768 127.29 87.9244 124.499C88.9897 122.835 88.4229 124.818 89.2407 123.503C88.5933 122.222 87.2234 122.146 86.5366 121.256C85.9863 122.431 87.3585 122.413 86.3037 123.901C85.0789 123.38 84.1492 122.031 83.2354 121.879C84.8879 119.594 82.6133 119.135 81.4199 120.687C80.5686 120.798 81.7697 119.635 81.1724 119.591C80.9418 119.553 80.5844 120.13 80.7224 120.227C78.5966 119.359 73.8541 116.676 72.2108 114.626C72.1711 114.294 72.4321 113.774 72.831 113.169C72.2308 113.171 72.1898 114.249 71.7067 114.759C70.9678 113.282 69.2917 113.765 69.3649 112.289C70.1091 111.005 70.3109 112.318 70.7921 112.294C71.0009 111.481 70.3405 111.865 71.4119 110.839C67.911 108.981 67.0949 108.402 64.2952 106.156C67.5684 105.304 68.4534 108.976 71.2792 108.422C71.8984 110.117 73.5487 109.696 74.4043 110.943C74.8174 111.104 74.5997 110.27 75.3034 109.671C75.9932 109.605 75.6393 109.85 76.1403 110.223C76.8404 109.431 76.2857 109.418 76.3954 108.993C77.096 108.246 76.5757 110.008 77.4575 109.225C77.6585 107.439 74.9981 109.699 74.5818 107.8C74.9017 107.13 74.3212 107.305 75.1157 106.755C74.3793 106.379 74.4561 105.496 73.5268 105.242C72.9127 104.848 73.8906 104.678 74.0318 105.107C75.4804 105.746 77.8889 105.666 77.7975 107.587C79.1024 106.949 78.3729 108.393 79.2788 108.095C79.0739 108.691 78.4798 109.505 77.8753 109.502C79.3219 112.416 82.7062 113.148 85.1868 114.777C85.7374 112.186 82.4098 113.333 82.543 110.708C84.0302 110.706 84.787 111.757 85.8374 112.41C84.8419 113.303 86.1519 113.964 86.7833 113.965C87.0875 113.964 87.0163 113.521 87.4572 113.01C87.9939 114.144 89.1452 113.795 90.248 114.846C90.0894 115.362 89.5446 116.117 89.7672 116.396C90.972 114.086 89.8778 117.449 91.1086 116.811C88.5372 118.685 90.0792 114.611 88.2333 115.384C88.9026 117.699 89.6283 119.722 91.9379 119.687C92.5064 118.858 91.5781 118.958 92.6449 117.82C93.6871 118.51 93.8874 119.296 95.1561 119.473C94.8078 119.876 94.6197 119.507 94.3718 119.425C94.322 122.068 96.445 123.388 98.1873 124.729C98.8413 124.34 98.8475 123.721 98.8066 123.274C99.4517 122.464 99.7216 123.454 100.318 122.87C100.692 127.841 106.904 126.849 107.003 131.926C107.386 131.298 107.838 131.673 108.684 130.704C109.82 131.326 110.125 132.867 112.064 131.997C112.044 134.158 115.866 133.183 114.312 137.203C117.345 135.563 118.353 136.738 120.181 138.733C119.826 139.171 119.684 138.572 119.312 139.096C119.593 140.051 120.628 140.538 121.235 141.293C121.714 140.222 120.665 140.099 120.149 139.646C121.404 138.064 121.033 139.832 121.995 139.926C120.732 143.519 124.031 143.537 125.7 144.23C125.944 143.544 125.149 143.501 125.172 142.952C127.329 142.511 127.464 145.215 129.166 145.112C128.865 145.538 128.566 145.96 128.267 146.385C130.446 148.912 132.836 149.542 135.972 150.523C136.414 150.552 136.153 149.916 136.787 149.66C140.023 151.579 143.059 154.605 147.088 155.042C147.157 154.657 145.526 154.543 146.731 152.944C146.935 153.794 148.356 154.568 148.119 156.187C151.686 157.968 156.133 159.452 159.848 161.576C162.922 163.33 166.504 164.312 169.538 166.087C175.522 169.587 179.69 173.756 184.632 177.416C186.07 178.481 187.176 179.774 187.245 182.396C184.845 185.058 184.069 183.592 182.067 183.649C182.034 184.443 181.529 185.53 182.06 185.974C181.881 186.142 180.848 186.968 181.161 187.247C178.589 189.925 177.547 187.699 175.535 189.132C175.362 191.104 177.668 190.183 178.799 191.746C179.246 190.577 178.777 189.975 178.161 189.464C180.176 189.055 181.719 191.227 182.233 193.54C180.687 194.601 181.149 192.734 179.466 193.116C178.732 194.809 177.669 194.719 176.939 196.113C176.932 196.832 177.511 197.187 177.884 197.668C177.256 197.893 176.393 199.248 175.839 199.116C175.023 200.218 175.201 200.702 175.048 201.392C175.214 201.725 176.528 200.23 176.312 199.894C177.525 198.778 177.001 201.814 178.157 200.175C177.479 201.718 176.522 201.079 175.831 201.442C175.494 202.485 175.968 203.022 175.963 203.858C175.019 204.49 174.84 203.138 174.429 202.848C174.123 202.85 174.195 203.291 173.755 203.802C174.241 204.979 175.603 206.485 176.29 206.867C175.317 208.289 176.002 206.457 175.281 207.137C175.221 208.871 173.458 211.441 171.539 214.458C170.352 214.522 169.881 214.845 169.137 213.808C168.778 213.991 168.642 214.525 167.958 214.897C167.257 216.457 168.47 217.394 169.153 217.546C167.805 218.703 167.954 220.253 168.107 221.051C167.412 222.112 167.024 221.683 166.425 222.274C164.364 226.25 161.933 225.644 159.838 227.256C156.669 226.183 154.989 222.557 151.83 221.522C150.832 221.193 149.379 221.517 148.419 221.14C146.232 220.287 144.44 218.729 142.333 217.603C135.948 214.186 130.62 209.795 123.658 206.713C121.455 205.737 118.594 204.778 116.286 203.259C112.435 200.726 107.85 198.976 105.712 195.369C105.353 195.552 105.203 196.16 104.619 196.049C104.761 194.065 101.124 196.14 102.448 192.756Z" fill="#FFDDDB"/>
</svg>
